<?xml version="1.0" encoding="utf-8"?>
<!-- Generator: Adobe Illustrator 18.0.0, SVG Export Plug-In . SVG Version: 6.00 Build 0)  -->
<!DOCTYPE svg PUBLIC "-//W3C//DTD SVG 1.1//EN" "http://www.w3.org/Graphics/SVG/1.1/DTD/svg11.dtd">
<svg version="1.1" id="Capa_1" xmlns="http://www.w3.org/2000/svg" xmlns:xlink="http://www.w3.org/1999/xlink" x="0px" y="0px"
	 viewBox="0 0 612 612" enable-background="new 0 0 612 612" xml:space="preserve">
<g>
	<g id="_x31_0_41_">
		<g>
			<path fill="#555555" d="M415.3,196.7c-7.5-7.5-19.7-7.5-27.3,0l-82.2,82.2l-81-81c-7.5-7.5-19.6-7.5-27,0c-7.5,7.5-7.5,19.6,0,27
				l81,81l-81.6,81.6c-7.5,7.5-7.5,19.7,0,27.3s19.7,7.5,27.3,0l81.6-81.6l81,81c7.5,7.5,19.6,7.5,27,0c7.5-7.5,7.5-19.6,0-27
				l-81-81l82.2-82.2C422.9,216.4,422.9,204.2,415.3,196.7z M306,0C137,0,0,137,0,306s137,306,306,306c169,0,306-137,306-306
				S475,0,306,0z M306,573.8C158.1,573.8,38.3,453.9,38.3,306S158.1,38.3,306,38.3S573.8,158.1,573.8,306S453.9,573.8,306,573.8z"/>
		</g>
	</g>
</g>
</svg>
