<?xml version="1.0" encoding="utf-8"?>
<!-- Generator: Adobe Illustrator 18.0.0, SVG Export Plug-In . SVG Version: 6.00 Build 0)  -->
<!DOCTYPE svg PUBLIC "-//W3C//DTD SVG 1.1//EN" "http://www.w3.org/Graphics/SVG/1.1/DTD/svg11.dtd">
<svg version="1.1" id="Layer_1" xmlns="http://www.w3.org/2000/svg" xmlns:xlink="http://www.w3.org/1999/xlink" x="0px" y="0px"
	 viewBox="0 0 612.1 595.3" enable-background="new 0 0 612.1 595.3" xml:space="preserve">
<g>
	<g id="_x38__3_">
		<g>
			<path fill="#565555" d="M306.1-8c-169,0-306,137-306,306s137,306,306,306s306-137,306-306S475.1-8,306.1-8z M306.1,565.8
				C158.2,565.8,38.4,445.9,38.4,298S158.2,30.2,306.1,30.2S573.9,150.1,573.9,298S454,565.8,306.1,565.8z M325.2,317.1h95.6
				c10.6,0,19.1-8.6,19.1-19.1s-8.6-19.1-19.1-19.1h-95.6H287h-95.6c-10.6,0-19.1,8.6-19.1,19.1s8.6,19.1,19.1,19.1H287H325.2z"/>
		</g>
	</g>
</g>
</svg>
