<svg display="none" width="0" height="0" version="1.1" xmlns="http://www.w3.org/2000/svg" xmlns:xlink="http://www.w3.org/1999/xlink">
	<defs>
		<symbol id="icon-calendar" viewBox="0 0 1024 1024">
			<title>calendar</title>
			<path class="path1" d="M592.844 538.92v0c-29.799 0-53.896 24.128-53.896 53.923 0 29.74 24.155 53.896 53.896 53.896v0c29.74 0 53.896-24.155 53.896-53.896 0.003-29.795-24.101-53.923-53.896-53.923zM431.156 485.052c29.754 0 53.896-24.142 53.896-53.896 0-29.775-24.142-53.889-53.896-53.889-29.747 0-53.889 24.114-53.889 53.889 0 29.754 24.142 53.896 53.889 53.896zM592.844 377.267v0c-29.799 0-53.896 24.114-53.896 53.889 0 29.754 24.101 53.896 53.896 53.896v0c29.74 0 53.896-24.142 53.896-53.896 0.003-29.775-24.101-53.889-53.896-53.889zM646.743 107.785h-269.476v107.792h269.476v-107.792zM754.535 485.052c29.727 0 53.896-24.142 53.896-53.896 0-29.775-24.114-53.889-53.896-53.889-29.799 0-53.896 24.114-53.896 53.889 0 29.754 24.155 53.896 53.896 53.896zM754.535 646.74c29.727 0 53.896-24.155 53.896-53.896 0-29.795-24.114-53.896-53.896-53.896-29.799 0-53.896 24.101-53.896 53.896 0 29.74 24.155 53.896 53.896 53.896zM431.156 646.74c29.754 0 53.896-24.155 53.896-53.896 0-29.795-24.114-53.923-53.896-53.923-29.775 0-53.889 24.128-53.889 53.923 0 29.74 24.142 53.896 53.889 53.896zM269.476 808.43c29.747 0 53.896-24.169 53.896-53.896 0-29.795-24.149-53.896-53.896-53.896-29.775 0-53.896 24.101-53.896 53.896 0 29.727 24.145 53.896 53.896 53.896zM916.208 107.785h-53.879v107.792h53.879v700.629h-808.417v-700.625h53.889v-107.795h-53.889c-59.529 0-107.792 48.246-107.792 107.795v700.604c0 59.563 48.263 107.819 107.792 107.819h808.413c59.539 0 107.792-48.259 107.792-107.819v-700.604c0.003-59.549-48.253-107.795-107.788-107.795zM269.476 646.74c29.747 0 53.896-24.155 53.896-53.896 0-29.795-24.149-53.923-53.896-53.923-29.775 0-53.896 24.128-53.896 53.923 0 29.74 24.145 53.896 53.896 53.896zM269.476 485.052c29.747 0 53.896-24.142 53.896-53.896 0-29.775-24.149-53.889-53.896-53.889-29.775 0-53.896 24.114-53.896 53.889 0 29.754 24.145 53.896 53.896 53.896zM431.156 808.43c29.754 0 53.896-24.169 53.896-53.896 0-29.795-24.142-53.896-53.896-53.896-29.747 0-53.889 24.101-53.889 53.896 0 29.727 24.142 53.896 53.889 53.896zM269.476 215.58c29.747 0 53.896-24.142 53.896-53.896v-107.785c0-29.785-24.121-53.899-53.896-53.899-29.751 0-53.896 24.114-53.896 53.896v107.785c0 29.758 24.145 53.899 53.896 53.899zM754.535 215.58c29.727 0 53.896-24.142 53.896-53.896v-107.785c0-29.785-24.169-53.899-53.896-53.899-29.799 0-53.896 24.114-53.896 53.896v107.785c0 29.758 24.155 53.899 53.896 53.899z"></path>
		</symbol>
		<symbol id="icon-chat" viewBox="0 0 1024 1024">
			<title>chat</title>
			<path class="path1" d="M383.905 1020.062c-5.057 0-10.13-1.229-14.761-3.686-10.571-5.577-17.061-16.715-16.746-28.625l3.072-117.319h-79.006c-60.211 0-103.203-49.609-103.203-110.608v-411.79c0-59.439 42.992-107.804 103.203-107.804h632.312c60.211 0 115.208 48.349 115.208 107.804v411.743c0 60.983-54.981 110.608-115.208 110.608h-306.003l-200.515 143.754c-5.451 3.938-11.894 5.923-18.353 5.923zM276.496 303.262c-25.899 0-40.188 19.677-40.188 44.788v411.743c0 25.836 15.155 47.592 40.188 47.592h111.348c8.507 0 16.652 3.419 22.575 9.515 5.939 6.112 9.153 14.336 8.917 22.827l-2.269 86.3 157.208-112.703c5.356-3.844 11.768-5.908 18.353-5.908h316.132c25.049 0 52.192-21.788 52.192-47.592v-411.79c0-25.112-26.293-44.788-52.192-44.788h-632.265z"></path>
			<path class="path2" d="M50.097 608.886c-7.436 0-11.878-2.615-17.881-7.94-23.048-20.401-32.217-47.199-32.217-77.477v-411.743c0-59.439 42.992-107.788 103.203-107.788h632.312c60.211 0 115.208 48.349 115.208 107.804v18.227c0 17.392-14.115 31.508-31.508 31.508s-31.508-14.115-31.508-31.508v-18.243c0-25.112-26.293-44.788-52.192-44.788h-632.312c-25.899 0.016-40.188 19.692-40.188 44.788v411.743c0 12.083 1.575 21.992 10.98 30.31 13.028 11.532 12.745 31.476 1.197 44.489-6.239 7.010-16.4 10.618-25.096 10.618z"></path>
			<path class="path3" d="M482.367 445.046h-126.031c-8.712 0-15.754-7.042-15.754-15.754s7.042-15.754 15.754-15.754h126.031c8.712 0 15.754 7.042 15.754 15.754s-7.042 15.754-15.754 15.754z"></path>
			<path class="path4" d="M702.921 445.046h-157.538c-8.712 0-15.754-7.042-15.754-15.754s7.042-15.754 15.754-15.754h157.538c8.712 0 15.754 7.042 15.754 15.754s-7.042 15.754-15.754 15.754z"></path>
			<path class="path5" d="M828.952 445.046h-63.015c-8.712 0-15.754-7.042-15.754-15.754s7.042-15.754 15.754-15.754h63.015c8.712 0 15.754 7.042 15.754 15.754s-7.042 15.754-15.754 15.754z"></path>
			<path class="path6" d="M419.352 523.815h-63.015c-8.712 0-15.754-7.058-15.754-15.754s7.042-15.754 15.754-15.754h63.015c8.712 0 15.754 7.042 15.754 15.754s-7.042 15.754-15.754 15.754z"></path>
			<path class="path7" d="M608.398 523.815h-126.031c-8.712 0-15.754-7.058-15.754-15.754s7.042-15.754 15.754-15.754h126.031c8.712 0 15.754 7.042 15.754 15.754s-7.042 15.754-15.754 15.754z"></path>
			<path class="path8" d="M828.952 523.815h-157.538c-8.712 0-15.754-7.058-15.754-15.754s7.042-15.754 15.754-15.754h157.538c8.712 0 15.754 7.042 15.754 15.754s-7.042 15.754-15.754 15.754z"></path>
			<path class="path9" d="M513.875 618.338h-157.538c-8.712 0-15.754-7.042-15.754-15.754s7.042-15.754 15.754-15.754h157.538c8.712 0 15.754 7.042 15.754 15.754s-7.042 15.754-15.754 15.754z"></path>
			<path class="path10" d="M734.429 618.338h-157.538c-8.712 0-15.754-7.042-15.754-15.754s7.042-15.754 15.754-15.754h157.538c8.712 0 15.754 7.042 15.754 15.754s-7.042 15.754-15.754 15.754z"></path>
			<path class="path11" d="M828.952 618.338h-31.508c-8.712 0-15.754-7.042-15.754-15.754s7.042-15.754 15.754-15.754h31.508c8.712 0 15.754 7.042 15.754 15.754s-7.042 15.754-15.754 15.754z"></path>
			<path class="path12" d="M419.352 697.108h-63.015c-8.712 0-15.754-7.042-15.754-15.754s7.042-15.754 15.754-15.754h63.015c8.712 0 15.754 7.042 15.754 15.754s-7.042 15.754-15.754 15.754z"></path>
			<path class="path13" d="M592.644 697.108h-110.277c-8.712 0-15.754-7.042-15.754-15.754s7.042-15.754 15.754-15.754h110.277c8.712 0 15.754 7.042 15.754 15.754s-7.042 15.754-15.754 15.754z"></path>
		</symbol>
		<symbol id="icon-cogs" viewBox="0 0 1024 1024">
			<title>cogs</title>
			<path class="path1" d="M396.297 856.795h-72.489c-20.342 0-26.37-6.027-62.426-95.253l-17.921-7.265c-75.88 34.28-85.19 34.28-90.84 34.28h-11.517l-9.149-8.288-51.286-50.264c-14.907-14.745-14.907-22.549 24.217-111.398l-6.996-16.629c-91.648-32.827-97.89-38.855-97.89-59.789v-71.036c0-20.719 5.597-26.154 97.514-61.78l6.996-16.629c-39.662-83.737-41.653-94.877-25.885-110.214l59.466-58.228 12.485-0.215c5.274 0 14.853 0 92.078 32.451l17.813-7.211c33.527-89.549 39.501-95.63 60.327-95.63h72.489c20.557 0 26.047 5.489 62.372 95.253l17.813 7.211c75.772-34.28 85.19-34.28 90.894-34.28h11.517l9.149 8.234 51.448 50.156c14.853 14.799 14.853 22.602-24.271 111.506l7.050 16.737c92.24 33.043 97.836 38.478 97.836 59.735v70.929c0 20.773-5.597 26.208-97.514 61.834l-6.996 16.683c41.007 86.535 41.169 95.146 26.154 110.053l-59.735 58.444-12.485 0.215c-5.274 0-14.853 0-91.971-32.505l-17.867 7.319c-33.581 89.495-39.608 95.576-60.381 95.576zM339.952 799.859h39.77c7.104-16.037 18.62-45.259 27.984-70.337l4.359-11.732 63.018-25.562 10.871 4.682c25.778 10.925 56.183 23.302 72.92 29.276l27.661-27.015c-6.619-16.306-19.374-44.613-30.836-68.453l-5.543-11.57 26.37-62.426 11.247-4.413c25.885-10.010 56.022-22.226 72.328-29.598v-37.509c-16.414-6.888-46.174-18.19-71.79-27.231l-11.893-4.198-26.262-62.534 5.005-11.247c10.978-24.809 23.302-53.977 29.545-70.606l-27.661-27.015c-16.575 6.404-46.066 19.212-71.036 30.621l-11.14 5.059-62.964-25.401-4.52-11.194c-10.171-25.401-22.71-54.892-30.298-70.821h-39.716c-7.104 16.037-18.566 45.259-27.93 70.337l-4.359 11.678-62.856 25.509-10.871-4.628c-25.831-10.978-56.345-23.248-73.135-29.222l-27.607 27.015c6.619 16.306 19.427 44.559 30.836 68.507l5.489 11.517-26.37 62.48-11.247 4.305c-25.885 10.010-55.968 22.226-72.274 29.598v37.509c16.414 6.996 46.227 18.19 71.844 27.338l11.839 4.198 26.208 62.426-4.951 11.194c-10.978 24.755-23.302 53.977-29.545 70.606l27.607 27.015c16.575-6.404 46.066-19.158 70.983-30.567l11.194-5.112 62.964 25.509 4.52 11.247c10.225 25.347 22.71 54.892 30.244 70.767zM358.518 637.229c-74.050 0-134.269-59.197-134.269-132.009 0-72.758 60.219-131.955 134.269-131.955s134.323 59.197 134.323 131.955c0 72.866-60.273 132.009-134.323 132.009zM358.518 430.201c-42.622 0-77.333 33.635-77.333 75.019 0 41.438 34.711 75.073 77.333 75.073 42.676 0 77.387-33.635 77.387-75.073 0-41.33-34.711-75.019-77.387-75.019z"></path>
			<path class="path2" d="M814.927 870.249h-3.929l-35.787-12.001c-16.414-5.543-17.974-16.252-19.912-58.228-10.817 1.13-26.37 2.745-34.442 2.745-15.176 0-22.011-7.642-25.078-14.046l-14.853-30.675c-6.942-15.499-0.646-24.271 26.854-55.268l-0.054-0.484c-31.052-25.239-39.285-33.419-33.958-49.941l11.032-32.989c5.543-16.198 17.059-18.028 57.26-20.396l0.377-0.431c-4.251-41.223-4.198-52.040 10.763-59.95l35.949-18.351h5.812c8.395 0 11.678 0 43.806 28.953 26.423-33.258 31.374-36.11 42.676-36.11h3.982l35.68 12.001c16.414 5.328 18.082 17.059 19.912 58.228 10.871-1.184 26.477-2.798 34.496-2.798 15.284 0 22.064 7.803 25.078 14.315l14.745 30.46c7.642 14.799 1.238 23.625-26.746 55.322l0.054 0.484c30.46 24.809 39.501 33.796 33.688 50.479l-10.871 32.505c-4.897 16.145-16.521 17.974-57.206 20.396l-0.323 0.377c4.144 40.415 4.198 52.255-11.247 60.112l-35.464 18.19h-5.866c-8.288 0-11.786 0-43.913-28.953-25.509 32.182-30.729 36.056-42.514 36.056zM799.59 830.587l4.574 1.507c5.92-7.050 13.723-16.683 20.342-25.132l7.157-9.149 45.259-3.229 8.288 7.588c7.911 7.265 17.167 15.445 24.163 21.365l5.059-2.583c-0.646-9.202-1.776-21.741-2.96-32.505l-1.13-11.194 29.383-34.496 11.14-0.646c10.871-0.646 23.464-1.507 32.558-2.368l2.045-6.027c-6.835-5.92-16.198-13.777-24.432-20.45l-8.88-7.211-2.798-44.99 7.211-8.126c7.48-8.449 15.983-18.351 21.903-25.616l-2.422-5.059c-10.063 0.861-22.818 2.26-31.159 3.283l-11.678 1.453-33.958-30.083-0.484-11.086c-0.538-11.032-1.238-23.733-1.991-33.096l-4.682-1.561c-5.92 7.050-13.777 16.737-20.396 25.132l-7.157 9.149-45.097 3.337-8.288-7.642c-7.911-7.265-17.221-15.445-24.163-21.365l-5.005 2.529c0.646 9.256 1.722 21.795 2.906 32.612l1.13 11.14-29.276 34.496-11.194 0.538c-10.817 0.646-23.517 1.561-32.612 2.422l-2.045 5.974c6.835 5.974 16.252 13.777 24.486 20.45l8.987 7.211 2.745 45.205-7.211 8.126c-7.534 8.395-16.037 18.243-22.011 25.509l2.422 5.005c10.117-0.915 22.872-2.314 31.159-3.337l11.678-1.453 34.011 30.083 0.484 11.086c0.431 11.032 1.238 23.84 1.937 33.204zM847.485 765.794c-7.857 0-15.499-1.238-22.925-3.767-38.263-12.808-58.766-54.838-45.743-93.639 10.225-30.352 38.37-50.748 70.068-50.748 7.803 0 15.445 1.238 22.818 3.659 38.263 12.808 58.766 54.892 45.743 93.639-10.171 30.406-38.317 50.856-69.96 50.856zM848.938 665.051c-11.301 0-21.365 7.427-25.078 18.459-4.682 13.992 2.422 29.060 15.822 33.581 13.185 4.413 28.253-3.767 32.774-17.221 4.736-13.992-2.368-29.060-15.768-33.581-2.529-0.807-5.166-1.238-7.749-1.238z"></path>
		</symbol>
		<symbol id="icon-folder" viewBox="0 0 1024 1024">
			<title>folder</title>
			<path class="path1" d="M984.774 405.591h-54.208v-108.416c0-22.085-18.069-40.154-40.154-40.154h-391.501l-52.2-84.323c-8.031-12.046-18.069-20.077-32.123-20.077h-291.116c-22.085 0-38.146 18.069-38.146 40.154v212.816h-44.169c-24.092 0-46.177 22.085-40.154 48.185l84.323 385.478c4.015 18.069 20.077 32.123 38.146 32.123h766.94c18.069 0 36.139-12.046 40.154-30.115l92.354-387.486c6.023-26.1-14.054-48.185-38.146-48.185zM163.627 230.921h226.87l52.2 86.331c8.031 12.046 20.077 18.069 34.131 18.069h375.439v70.269h-688.64v-174.67zM860.296 791.069h-704.702l-66.254-307.178h845.241l-74.285 307.178z"></path>
		</symbol>
		<symbol id="icon-handshake" viewBox="0 0 1024 1024">
			<title>handshake</title>
			<path class="path1" d="M1024 223.186v321.618c0 0-66.35 13.522-80 15.323-13.65 1.783-56.411 16.073-87.497-14.802-47.817-47.616-217.911-223.022-217.911-223.022s-29.303-29.824-76.407-4.005c-42.999 23.561-106.798 58.021-133.76 71.634-9.554 6.949-21.147 11.054-33.701 11.054-32.521 0-58.871-27.355-58.871-61.111 0-26.45 16.219-48.914 38.894-57.408 61.339-38.491 189.12-112.914 242.459-142.309 32.567-17.92 56.018-19.456 100.699 19.502 55.049 48.082 103.982 91.813 103.982 91.813s22.912 10.962 41.417 8.274c38.711-5.714 160.695-36.562 160.695-36.562zM347.301 768.119c8.229-21.925 5.467-46.519-10.322-63.323-14.199-15.141-34.853-19.127-54.619-14.427 5.513-20.27 2.478-41.856-11.813-57.125-14.254-15.104-34.853-19.072-54.61-14.373 5.458-20.27 2.432-41.856-11.822-57.143-22.354-23.808-61.019-22.766-86.4 2.377-25.262 25.17-41.472 70.674-18.898 97.39 22.537 26.697 48.338 10.478 68.096 5.806-5.458 20.279-21.915 39.159-1.71 65.719 20.178 26.624 48.338 10.496 68.087 5.778-5.504 20.261-21.248 41.024-1.737 65.71 19.621 24.658 51.794 11.52 72.987 4.699-8.192 21.897-25.719 45.394-3.2 71.936 22.482 26.523 74.496 14.171 99.931-10.962 25.381-25.134 27.785-64.942 5.513-88.75-15.36-16.384-38.318-20.187-59.483-13.312zM810.094 599.963c-182.665-189.486-96.64-100.27-195.291-202.789 0 0-29.742-30.72-68.864-12.891-27.474 12.498-62.848 29.522-89.518 42.496-29.312 15.863-54.866 20.736-60.206 20.736-56.53 0-102.4-47.534-102.4-106.149 0-38.016 19.465-71.122 48.466-89.902 40.786-29.266 134.738-81.152 134.738-81.152s-28.581-37.632-91.31-37.632c-62.665 0-193.573 89.042-193.573 89.042s-37.157 24.704-90.103 2.478l-102.034-36.864v367.945c0 0 29.111 8.805 55.296 19.84 5.97-17.445 15.406-33.673 28.727-46.967 43.429-42.935 115.374-43.401 154.917-1.207 11.867 12.763 20.187 28.197 24.457 45.029 15.963 5.12 30.281 14.107 41.929 26.514 11.913 12.672 20.197 28.114 24.503 44.965 15.963 5.138 30.254 14.126 41.938 26.587 13.102 13.925 21.806 30.93 25.938 49.335 16.585 5.038 31.698 14.281 43.813 27.246 23.671 25.243 32.174 59.584 27.017 92.709 0 0.018 0 0.018 0 0.018v0c0 0.027 0 0.027 0 0.046 0.046 0.055 0.119 0.091 0.174 0.165 0.896 1.033 14.793 17.253 23.607 26.377 17.536 18.222 46.080 18.176 63.616 0 17.481-18.158 17.554-47.79 0-66.002-0.567-0.585-1.262-1.006-1.838-1.573 0.018-0.128 0.091-0.265 0.11-0.393-59.109-61.321-62.181-65.746-56.329-71.808 5.842-6.062 14.501 7.296 80.631 75.959 0.302 0.302 0.713 0.567 1.216 0.768 1.326 1.929 2.642 3.877 4.306 5.577 17.49 18.213 46.071 18.176 63.607 0 17.499-18.167 17.536-47.799 0-66.011-0.933-0.96-1.975-1.701-2.944-2.56-0.869-1.042-1.719-2.094-2.77-3.163-60.343-62.546-67.2-74.459-62.592-79.232 5.248-5.458 33.353 26.542 93.394 88.795 0.128 0 0.247-0.037 0.393-0.037 17.591 16.622 44.928 16.21 61.943-1.417 16.375-16.987 17.253-43.913 2.935-62.235-0.256-1.225-0.722-2.286-1.509-3.099-75.986-78.894-72.731-80.073-68.123-84.846s4.946-5.102 78.894 71.607c0.265 0.311 0.466 0.686 0.768 1.006 17.499 18.213 46.089 18.167 63.625 0 17.481-18.167 17.536-47.808 0-66.030-0.521-0.466-1.070-0.814-1.554-1.28z"></path>
		</symbol>
		<symbol id="icon-list" viewBox="0 0 1024 1024">
			<title>list</title>
			<path class="path1" d="M73.728 792.576c-38.912 0-73.728 32.768-73.728 71.68s34.816 73.728 73.728 73.728 71.68-34.816 71.68-73.728-32.768-71.68-71.68-71.68z"></path>
			<path class="path2" d="M73.728 440.32c-38.912 0-73.728 32.768-73.728 71.68s34.816 71.68 73.728 71.68 71.68-32.768 71.68-71.68-32.768-71.68-71.68-71.68z"></path>
			<path class="path3" d="M335.872 225.28h620.544c36.864 0 67.584-28.672 67.584-65.536s-30.72-67.584-67.584-67.584h-620.544c-36.864 0-67.584 30.72-67.584 67.584s30.72 65.536 67.584 65.536z"></path>
			<path class="path4" d="M73.728 86.016c-38.912 0-73.728 34.816-73.728 73.728s34.816 71.68 73.728 71.68 71.68-32.768 71.68-71.68-32.768-73.728-71.68-73.728z"></path>
			<path class="path5" d="M956.416 444.416h-620.544c-36.864 0-67.584 30.72-67.584 67.584s30.72 67.584 67.584 67.584h620.544c36.864 0 67.584-30.72 67.584-67.584s-30.72-67.584-67.584-67.584z"></path>
			<path class="path6" d="M956.416 796.672h-620.544c-36.864 0-67.584 30.72-67.584 67.584s30.72 67.584 67.584 67.584h620.544c36.864 0 67.584-30.72 67.584-67.584s-30.72-67.584-67.584-67.584z"></path>
		</symbol>
		<symbol id="icon-logo-colour" viewBox="0 0 2965 1024">
			<title>logo-colour</title>
			<path class="path1" d="M515.914 489.584l-77.565 289.623h-81.123l-40.562-148.014c-3.558-13.521-7.828-31.311-12.809-54.082l-4.27-17.79h-2.135l-8.539 35.58c-2.846 12.097-6.404 24.195-9.251 36.292l-41.273 148.014h-79.7l-74.719-289.623h56.217l41.985 158.688c2.846 9.962 5.693 24.195 9.251 41.985l8.539 42.696h2.135c2.135-9.251 4.27-16.367 4.981-21.348l4.981-20.637c2.846-10.674 6.404-24.906 11.386-41.985l44.831-158.688h64.756l43.408 158.688c3.558 13.521 7.116 27.753 10.674 41.985l4.981 20.637 4.981 21.348h1.423l4.981-21.348 4.27-21.348c3.558-17.079 7.116-31.311 9.962-42.696l42.696-158.688h55.505z"></path>
			<path class="path2" d="M716.587 723.703h-124.531l-17.79 55.505h-58.352l96.067-289.623h82.546l97.49 289.623h-56.928l-18.502-55.505zM703.778 683.141l-49.812-150.86-49.101 150.86h98.913z"></path>
			<path class="path3" d="M1031.828 574.265h-53.37c0-2.846-0.712-4.981-0.712-5.693-1.423-16.367-4.981-26.329-10.674-30.599s-19.925-6.404-41.985-6.404c-26.329 0-42.696 2.135-51.236 7.116-7.828 4.981-12.097 14.944-12.097 30.599 0 18.502 3.558 29.176 9.962 32.734s27.753 6.404 64.756 8.539c43.408 2.135 71.161 8.539 83.969 18.502s19.213 30.599 19.213 61.91c0 38.427-7.116 63.333-22.060 74.719s-47.678 17.079-98.202 17.079c-45.543 0-75.43-5.693-90.374-16.367s-22.060-33.445-22.060-66.891v-10.674h53.37v6.404c0 19.925 3.558 32.734 10.674 37.003s26.329 7.116 57.64 7.116c24.906 0 40.562-2.846 46.966-7.828s9.962-17.079 9.962-36.292c0-14.232-2.846-23.483-7.828-27.753s-16.367-7.116-33.445-8.539l-30.599-2.135c-45.543-2.846-74.719-9.251-87.527-19.213s-19.213-31.311-19.213-64.756c0-33.445 7.828-56.217 22.771-67.603 15.655-11.386 46.254-17.079 91.797-17.079 43.408 0 72.584 4.981 88.239 15.655 14.944 9.962 22.771 30.599 22.771 60.486v9.962z"></path>
			<path class="path4" d="M1191.939 538.685v239.811h-54.794v-239.811h-83.258v-49.101h224.867v49.101h-86.816z"></path>
			<path class="path5" d="M1355.608 535.839v74.719h135.917v40.562h-135.917v81.835h144.456v46.254h-199.249v-289.623h197.826v46.254h-143.033z"></path>
			<path class="path6" d="M1879.35 489.584v289.623h-54.794v-157.976c0-12.809 0-27.041 0.712-42.696l1.423-42.696h-1.423l-12.809 39.85c-5.693 17.79-10.674 31.311-13.521 39.85l-63.333 162.958h-49.812l-64.044-162.246c-3.558-9.251-8.539-22.060-14.232-39.85l-12.809-39.85h-1.423l0.712 20.637 0.712 21.348c0.712 16.367 1.423 30.599 1.423 41.985v157.976h-54.794v-288.912h89.662l51.947 133.782c3.558 9.251 8.539 22.771 14.232 39.85l12.809 39.85h2.135l12.809-39.85c4.981-17.079 9.962-29.887 13.521-39.85l50.524-134.493h90.374z"></path>
			<path class="path7" d="M2104.928 723.703h-124.531l-17.79 55.505h-58.352l96.067-289.623h82.546l97.49 289.623h-56.928l-18.502-55.505zM2092.12 683.141l-49.812-150.86-49.101 150.86h98.913z"></path>
			<path class="path8" d="M2320.545 538.685v239.811h-54.794v-239.811h-83.258v-49.101h224.867v49.101h-86.816z"></path>
			<path class="path9" d="M2613.726 676.025h54.794v9.962c0 40.562-7.116 66.179-22.060 78.277s-46.966 17.79-97.49 17.79c-56.928 0-92.509-9.251-105.318-27.753s-19.925-68.314-19.925-149.437c0-47.678 9.251-78.988 27.041-93.932s54.794-22.771 111.722-22.771c41.273 0 69.026 6.404 82.546 18.502s20.637 37.003 20.637 74.007v6.404h-54.082v-7.116c0-19.213-3.558-31.311-10.674-36.292s-23.483-7.828-49.101-7.828c-34.157 0-54.794 4.27-61.198 12.809-7.116 8.539-9.962 32.734-9.962 74.007 0 55.505 2.846 88.239 9.251 98.202s26.329 14.944 59.775 14.944c27.041 0 44.831-2.846 53.37-8.539 7.828-5.693 12.097-17.79 12.097-37.003l-1.423-14.232z"></path>
			<path class="path10" d="M2948.892 489.584v289.623h-54.794v-125.243h-135.917v125.243h-54.794v-289.623h54.794v118.126h135.917v-118.126h54.794z"></path>
			<path class="path11" d="M1578.341 843.252v128.089h-21.348v-128.089h21.348z"></path>
			<path class="path12" d="M1621.037 843.252v17.79h-21.348v-17.79h21.348zM1621.037 881.679v89.662h-21.348v-89.662h21.348z"></path>
			<path class="path13" d="M1641.673 881.679h21.348l-0.712 14.944h0.712c4.27-10.674 13.521-16.367 28.464-16.367 21.348 0 32.022 9.962 32.022 29.887v61.198h-21.348v-57.64l-0.712-6.404c-0.712-6.404-6.404-9.962-15.655-9.962-14.232 0-21.348 7.116-21.348 20.637v53.37h-21.348v-89.662z"></path>
			<path class="path14" d="M1765.493 843.252v73.295h5.693l24.195-34.869h24.906l-31.311 41.985 37.715 47.678h-26.329l-29.176-39.85h-4.981v39.85h-21.348v-128.089h20.637z"></path>
			<path class="path15" d="M1858.001 843.252v17.79h-21.348v-17.79h21.348zM1858.001 881.679v89.662h-21.348v-89.662h21.348z"></path>
			<path class="path16" d="M1878.638 881.679h21.348l-0.712 14.944h0.712c4.27-10.674 13.521-16.367 28.464-16.367 21.348 0 32.022 9.962 32.022 29.887v61.198h-21.348v-57.64l-0.712-6.404c-0.712-6.404-6.404-9.962-15.655-9.962-14.232 0-21.348 7.116-21.348 20.637v53.37h-21.348v-89.662z"></path>
			<path class="path17" d="M2060.809 881.679v91.085c0 14.944-2.846 24.906-8.539 29.887-5.693 5.693-17.079 7.828-32.734 7.828s-25.618-2.135-30.599-6.404-7.828-12.097-7.828-24.195h20.637c0 5.693 1.423 9.251 3.558 11.386 2.135 1.423 7.116 2.135 14.944 2.135 13.521 0 19.925-5.693 19.925-16.367v-19.925h-0.712c-3.558 9.251-12.809 14.232-26.329 14.232s-22.771-3.558-27.753-9.962c-4.981-6.404-7.116-18.502-7.116-37.003 0-17.079 2.135-28.464 7.116-34.869s14.232-9.962 27.041-9.962c14.232 0 23.483 4.981 27.753 15.655h0.712l-0.712-14.944h20.637zM2018.824 898.046c-8.539 0-13.521 1.423-15.655 4.981s-3.558 10.674-3.558 22.771c0 12.809 1.423 20.637 3.558 24.195s7.828 4.981 16.367 4.981 14.232-2.135 16.367-5.693c2.846-3.558 3.558-11.386 3.558-24.195 0-12.097-1.423-19.213-3.558-22.771s-8.539-4.27-17.079-4.27z"></path>
			<path class="path18" d="M2130.546 881.679h21.348l-1.423 12.809h0.712c4.981-9.251 13.521-14.232 24.195-14.232 15.655 0 23.483 9.962 23.483 29.887v6.404h-19.925c0-2.135 0.712-4.27 0.712-4.981 0-9.251-3.558-14.232-11.386-14.232-10.674 0-15.655 7.116-15.655 21.348v52.659h-21.348v-89.662z"></path>
			<path class="path19" d="M2268.598 942.877h21.348v3.558c0 17.79-12.809 26.329-39.138 26.329-17.79 0-29.176-2.846-34.869-9.251s-8.539-19.213-8.539-38.427c0-17.79 2.846-29.176 8.539-34.869s17.079-9.251 33.445-9.251c15.655 0 27.041 2.846 32.022 8.539 5.693 5.693 7.828 17.079 7.828 34.157v6.404h-60.486c0 2.135 0 3.558 0 4.27 0 8.539 1.423 14.944 4.27 17.79s7.828 4.27 16.367 4.27c7.828 0 12.809-0.712 15.655-2.846 2.846-1.423 3.558-4.981 3.558-10.674zM2268.598 917.259v-3.558c0-7.116-1.423-12.097-3.558-14.232s-7.828-2.846-16.367-2.846c-7.828 0-13.521 1.423-15.655 3.558-2.135 2.846-3.558 7.828-3.558 17.079h39.138z"></path>
			<path class="path20" d="M2383.166 906.585h-21.348c0-0.712 0-1.423 0-1.423-0.712-4.27-1.423-7.116-3.558-7.828s-7.116-1.423-14.944-1.423c-11.386 0-17.079 3.558-17.079 10.674 0 4.981 0.712 7.828 2.846 8.539s8.539 1.423 19.925 2.135c15.655 0.712 25.618 2.846 29.887 6.404s7.116 9.962 7.116 20.637c0 10.674-2.846 18.502-9.251 22.771s-17.079 6.404-33.445 6.404c-15.655 0-25.618-2.135-31.311-5.693s-8.539-10.674-8.539-21.348v-2.135h22.060c0 1.423-0.712 2.135-0.712 2.846-0.712 7.828 4.981 12.097 18.502 12.097s20.637-4.27 20.637-12.097c0-7.828-4.27-11.386-12.809-11.386-19.213 0-32.022-2.135-37.715-5.693-6.404-3.558-9.251-11.386-9.251-22.771 0-9.962 2.846-17.079 8.539-20.637s16.367-5.693 32.022-5.693c14.944 0 24.906 1.423 29.887 4.981 5.693 3.558 8.539 10.674 8.539 20.637z"></path>
			<path class="path21" d="M2442.941 880.967c17.079 0 28.464 2.846 34.157 8.539s7.828 17.079 7.828 34.869c0 19.925-2.846 32.734-7.828 39.138s-16.367 9.251-33.445 9.251c-18.502 0-29.887-2.846-35.58-8.539s-7.828-18.502-7.828-37.715c0-18.502 2.846-31.311 7.828-37.003s17.079-8.539 34.869-8.539zM2442.229 898.046c-9.251 0-14.944 1.423-17.079 4.981s-3.558 10.674-3.558 22.771c0 13.521 1.423 22.060 3.558 25.618s7.828 4.981 17.079 4.981c9.251 0 14.232-2.135 17.079-5.693 2.135-3.558 3.558-12.097 3.558-25.618 0-11.386-1.423-18.502-3.558-22.060s-7.828-4.981-17.079-4.981z"></path>
			<path class="path22" d="M2582.416 881.679v89.662h-21.348l1.423-15.655h-0.712c-4.27 10.674-13.521 16.367-29.176 16.367-20.637 0-30.599-9.962-30.599-30.599v-60.486h21.348v54.794c0 7.828 0.712 12.809 2.846 14.944s6.404 3.558 13.521 3.558c13.521 0 20.637-8.539 20.637-24.906v-49.101h22.060z"></path>
			<path class="path23" d="M2604.475 881.679h21.348l-1.423 12.809h0.712c4.981-9.251 13.521-14.232 24.195-14.232 15.655 0 23.483 9.962 23.483 29.887v6.404h-19.925c0-2.135 0.712-4.27 0.712-4.981 0-9.251-3.558-14.232-11.386-14.232-10.674 0-15.655 7.116-15.655 21.348v52.659h-21.348v-89.662z"></path>
			<path class="path24" d="M2742.527 937.184h21.348v2.846l-1.423 13.521c-2.846 12.097-15.655 18.502-38.427 18.502-17.079 0-28.464-2.846-33.445-9.251-5.693-6.404-8.539-18.502-8.539-37.003 0-17.79 2.846-29.887 8.539-36.292s16.367-9.251 32.734-9.251c15.655 0 26.329 2.135 31.311 7.116 5.693 4.27 8.539 12.809 8.539 25.618h-21.348c0-10.674-5.693-15.655-17.79-15.655-8.539 0-14.232 1.423-16.367 4.981s-3.558 11.386-3.558 24.195c0 12.809 1.423 20.637 3.558 23.483 2.135 3.558 8.539 4.981 17.79 4.981 7.116 0 12.097-1.423 14.232-3.558 1.423-1.423 2.846-6.404 2.846-14.232z"></path>
			<path class="path25" d="M2837.17 942.877h21.348v3.558c0 17.79-12.809 26.329-39.138 26.329-17.79 0-29.176-2.846-34.869-9.251s-8.539-19.213-8.539-38.427c0-17.79 2.846-29.176 8.539-34.869s17.079-9.251 33.445-9.251c15.655 0 27.041 2.846 32.022 8.539 5.693 5.693 7.828 17.079 7.828 34.157v6.404h-60.486c0 2.135 0 3.558 0 4.27 0 8.539 1.423 14.944 4.27 17.79s7.828 4.27 16.367 4.27c7.828 0 12.809-0.712 15.655-2.846 2.135-1.423 3.558-4.981 3.558-10.674zM2837.17 917.259v-3.558c0-7.116-1.423-12.097-3.558-14.232s-7.828-2.846-16.367-2.846c-7.828 0-13.521 1.423-15.655 3.558-2.135 2.846-3.558 7.828-3.558 17.079h39.138z"></path>
			<path class="path26" d="M2951.739 906.585h-21.348c0-0.712 0-1.423 0-1.423-0.712-4.27-1.423-7.116-3.558-7.828s-7.116-1.423-14.944-1.423c-11.386 0-17.079 3.558-17.079 10.674 0 4.981 0.712 7.828 2.846 8.539s8.539 1.423 19.925 2.135c15.655 0.712 25.618 2.846 29.887 6.404s7.116 9.962 7.116 20.637c0 10.674-2.846 18.502-9.251 22.771s-17.079 6.404-33.445 6.404c-15.655 0-25.618-2.135-31.311-5.693s-8.539-10.674-8.539-21.348v-2.135h22.060c0 1.423-0.712 2.135-0.712 2.846-0.712 7.828 4.981 12.097 18.502 12.097s20.637-4.27 20.637-12.097c0-7.828-4.27-11.386-12.809-11.386-19.213 0-32.022-2.135-37.715-5.693-6.404-3.558-9.251-11.386-9.251-22.771 0-9.962 2.846-17.079 8.539-20.637s16.367-5.693 32.022-5.693c14.944 0 24.906 1.423 29.887 4.981 5.693 3.558 8.539 10.674 8.539 20.637z"></path>
			<path class="path27" d="M11.386 230.56h171.497v171.497h-171.497v-171.497z"></path>
			<path class="path28" d="M231.983 230.56h2724.025v171.497h-2724.025v-171.497z"></path>
			<path class="path29" d="M231.983 9.962h171.497v171.497h-171.497v-171.497z"></path>
		</symbol>
		<symbol id="icon-logo-white" viewBox="0 0 2965 1024">
			<title>logo-white</title>
			<path class="path1" d="M515.914 489.584l-77.565 289.623h-81.123l-40.562-148.014c-3.558-13.521-7.828-31.311-12.809-54.082l-4.27-17.79h-2.135l-8.539 35.58c-2.846 12.097-6.404 24.195-9.251 36.292l-41.273 148.014h-79.7l-74.719-289.623h56.217l41.985 158.688c2.846 9.962 5.693 24.195 9.251 41.985l8.539 42.696h2.135c2.135-9.251 4.27-16.367 4.981-21.348l4.981-20.637c2.846-10.674 6.404-24.906 11.386-41.985l44.831-158.688h64.756l43.408 158.688c3.558 13.521 7.116 27.753 10.674 41.985l4.981 20.637 4.981 21.348h1.423l4.981-21.348 4.27-21.348c3.558-17.079 7.116-31.311 9.962-42.696l42.696-158.688h55.505z"></path>
			<path class="path2" d="M716.587 723.703h-124.531l-17.79 55.505h-58.352l96.067-289.623h82.546l97.49 289.623h-56.928l-18.502-55.505zM703.778 683.141l-49.812-150.86-49.101 150.86h98.913z"></path>
			<path class="path3" d="M1031.828 574.265h-53.37c0-2.846-0.712-4.981-0.712-5.693-1.423-16.367-4.981-26.329-10.674-30.599s-19.925-6.404-41.985-6.404c-26.329 0-42.696 2.135-51.236 7.116-7.828 4.981-12.097 14.944-12.097 30.599 0 18.502 3.558 29.176 9.962 32.734s27.753 6.404 64.756 8.539c43.408 2.135 71.161 8.539 83.969 18.502s19.213 30.599 19.213 61.91c0 38.427-7.116 63.333-22.060 74.719s-47.678 17.079-98.202 17.079c-45.543 0-75.43-5.693-90.374-16.367s-22.060-33.445-22.060-66.891v-10.674h53.37v6.404c0 19.925 3.558 32.734 10.674 37.003s26.329 7.116 57.64 7.116c24.906 0 40.562-2.846 46.966-7.828s9.962-17.079 9.962-36.292c0-14.232-2.846-23.483-7.828-27.753s-16.367-7.116-33.445-8.539l-30.599-2.135c-45.543-2.846-74.719-9.251-87.527-19.213s-19.213-31.311-19.213-64.756c0-33.445 7.828-56.217 22.771-67.603 15.655-11.386 46.254-17.079 91.797-17.079 43.408 0 72.584 4.981 88.239 15.655 14.944 9.962 22.771 30.599 22.771 60.486v9.962z"></path>
			<path class="path4" d="M1191.939 538.685v239.811h-54.794v-239.811h-83.258v-49.101h224.867v49.101h-86.816z"></path>
			<path class="path5" d="M1355.608 535.839v74.719h135.917v40.562h-135.917v81.835h144.456v46.254h-199.249v-289.623h197.826v46.254h-143.033z"></path>
			<path class="path6" d="M1879.35 489.584v289.623h-54.794v-157.976c0-12.809 0-27.041 0.712-42.696l1.423-42.696h-1.423l-12.809 39.85c-5.693 17.79-10.674 31.311-13.521 39.85l-63.333 162.958h-49.812l-64.044-162.246c-3.558-9.251-8.539-22.060-14.232-39.85l-12.809-39.85h-1.423l0.712 20.637 0.712 21.348c0.712 16.367 1.423 30.599 1.423 41.985v157.976h-54.794v-288.912h89.662l51.947 133.782c3.558 9.251 8.539 22.771 14.232 39.85l12.809 39.85h2.135l12.809-39.85c4.981-17.079 9.962-29.887 13.521-39.85l50.524-134.493h90.374z"></path>
			<path class="path7" d="M2104.928 723.703h-124.531l-17.79 55.505h-58.352l96.067-289.623h82.546l97.49 289.623h-56.928l-18.502-55.505zM2092.12 683.141l-49.812-150.86-49.101 150.86h98.913z"></path>
			<path class="path8" d="M2320.545 538.685v239.811h-54.794v-239.811h-83.258v-49.101h224.867v49.101h-86.816z"></path>
			<path class="path9" d="M2613.726 676.025h54.794v9.962c0 40.562-7.116 66.179-22.060 78.277s-46.966 17.79-97.49 17.79c-56.928 0-92.509-9.251-105.318-27.753s-19.925-68.314-19.925-149.437c0-47.678 9.251-78.988 27.041-93.932s54.794-22.771 111.722-22.771c41.273 0 69.026 6.404 82.546 18.502s20.637 37.003 20.637 74.007v6.404h-54.082v-7.116c0-19.213-3.558-31.311-10.674-36.292s-23.483-7.828-49.101-7.828c-34.157 0-54.794 4.27-61.198 12.809-7.116 8.539-9.962 32.734-9.962 74.007 0 55.505 2.846 88.239 9.251 98.202s26.329 14.944 59.775 14.944c27.041 0 44.831-2.846 53.37-8.539 7.828-5.693 12.097-17.79 12.097-37.003l-1.423-14.232z"></path>
			<path class="path10" d="M2948.892 489.584v289.623h-54.794v-125.243h-135.917v125.243h-54.794v-289.623h54.794v118.126h135.917v-118.126h54.794z"></path>
			<path class="path11" d="M1578.341 843.252v128.089h-21.348v-128.089h21.348z"></path>
			<path class="path12" d="M1621.037 843.252v17.79h-21.348v-17.79h21.348zM1621.037 881.679v89.662h-21.348v-89.662h21.348z"></path>
			<path class="path13" d="M1641.673 881.679h21.348l-0.712 14.944h0.712c4.27-10.674 13.521-16.367 28.464-16.367 21.348 0 32.022 9.962 32.022 29.887v61.198h-21.348v-57.64l-0.712-6.404c-0.712-6.404-6.404-9.962-15.655-9.962-14.232 0-21.348 7.116-21.348 20.637v53.37h-21.348v-89.662z"></path>
			<path class="path14" d="M1765.493 843.252v73.295h5.693l24.195-34.869h24.906l-31.311 41.985 37.715 47.678h-26.329l-29.176-39.85h-4.981v39.85h-21.348v-128.089h20.637z"></path>
			<path class="path15" d="M1858.001 843.252v17.79h-21.348v-17.79h21.348zM1858.001 881.679v89.662h-21.348v-89.662h21.348z"></path>
			<path class="path16" d="M1878.638 881.679h21.348l-0.712 14.944h0.712c4.27-10.674 13.521-16.367 28.464-16.367 21.348 0 32.022 9.962 32.022 29.887v61.198h-21.348v-57.64l-0.712-6.404c-0.712-6.404-6.404-9.962-15.655-9.962-14.232 0-21.348 7.116-21.348 20.637v53.37h-21.348v-89.662z"></path>
			<path class="path17" d="M2060.809 881.679v91.085c0 14.944-2.846 24.906-8.539 29.887-5.693 5.693-17.079 7.828-32.734 7.828s-25.618-2.135-30.599-6.404-7.828-12.097-7.828-24.195h20.637c0 5.693 1.423 9.251 3.558 11.386 2.135 1.423 7.116 2.135 14.944 2.135 13.521 0 19.925-5.693 19.925-16.367v-19.925h-0.712c-3.558 9.251-12.809 14.232-26.329 14.232s-22.771-3.558-27.753-9.962c-4.981-6.404-7.116-18.502-7.116-37.003 0-17.079 2.135-28.464 7.116-34.869s14.232-9.962 27.041-9.962c14.232 0 23.483 4.981 27.753 15.655h0.712l-0.712-14.944h20.637zM2018.824 898.046c-8.539 0-13.521 1.423-15.655 4.981s-3.558 10.674-3.558 22.771c0 12.809 1.423 20.637 3.558 24.195s7.828 4.981 16.367 4.981 14.232-2.135 16.367-5.693c2.846-3.558 3.558-11.386 3.558-24.195 0-12.097-1.423-19.213-3.558-22.771s-8.539-4.27-17.079-4.27z"></path>
			<path class="path18" d="M2130.546 881.679h21.348l-1.423 12.809h0.712c4.981-9.251 13.521-14.232 24.195-14.232 15.655 0 23.483 9.962 23.483 29.887v6.404h-19.925c0-2.135 0.712-4.27 0.712-4.981 0-9.251-3.558-14.232-11.386-14.232-10.674 0-15.655 7.116-15.655 21.348v52.659h-21.348v-89.662z"></path>
			<path class="path19" d="M2268.598 942.877h21.348v3.558c0 17.79-12.809 26.329-39.138 26.329-17.79 0-29.176-2.846-34.869-9.251s-8.539-19.213-8.539-38.427c0-17.79 2.846-29.176 8.539-34.869s17.079-9.251 33.445-9.251c15.655 0 27.041 2.846 32.022 8.539 5.693 5.693 7.828 17.079 7.828 34.157v6.404h-60.486c0 2.135 0 3.558 0 4.27 0 8.539 1.423 14.944 4.27 17.79s7.828 4.27 16.367 4.27c7.828 0 12.809-0.712 15.655-2.846 2.846-1.423 3.558-4.981 3.558-10.674zM2268.598 917.259v-3.558c0-7.116-1.423-12.097-3.558-14.232s-7.828-2.846-16.367-2.846c-7.828 0-13.521 1.423-15.655 3.558-2.135 2.846-3.558 7.828-3.558 17.079h39.138z"></path>
			<path class="path20" d="M2383.166 906.585h-21.348c0-0.712 0-1.423 0-1.423-0.712-4.27-1.423-7.116-3.558-7.828s-7.116-1.423-14.944-1.423c-11.386 0-17.079 3.558-17.079 10.674 0 4.981 0.712 7.828 2.846 8.539s8.539 1.423 19.925 2.135c15.655 0.712 25.618 2.846 29.887 6.404s7.116 9.962 7.116 20.637c0 10.674-2.846 18.502-9.251 22.771s-17.079 6.404-33.445 6.404c-15.655 0-25.618-2.135-31.311-5.693s-8.539-10.674-8.539-21.348v-2.135h22.060c0 1.423-0.712 2.135-0.712 2.846-0.712 7.828 4.981 12.097 18.502 12.097s20.637-4.27 20.637-12.097c0-7.828-4.27-11.386-12.809-11.386-19.213 0-32.022-2.135-37.715-5.693-6.404-3.558-9.251-11.386-9.251-22.771 0-9.962 2.846-17.079 8.539-20.637s16.367-5.693 32.022-5.693c14.944 0 24.906 1.423 29.887 4.981 5.693 3.558 8.539 10.674 8.539 20.637z"></path>
			<path class="path21" d="M2442.941 880.967c17.079 0 28.464 2.846 34.157 8.539s7.828 17.079 7.828 34.869c0 19.925-2.846 32.734-7.828 39.138s-16.367 9.251-33.445 9.251c-18.502 0-29.887-2.846-35.58-8.539s-7.828-18.502-7.828-37.715c0-18.502 2.846-31.311 7.828-37.003s17.079-8.539 34.869-8.539zM2442.229 898.046c-9.251 0-14.944 1.423-17.079 4.981s-3.558 10.674-3.558 22.771c0 13.521 1.423 22.060 3.558 25.618s7.828 4.981 17.079 4.981c9.251 0 14.232-2.135 17.079-5.693 2.135-3.558 3.558-12.097 3.558-25.618 0-11.386-1.423-18.502-3.558-22.060s-7.828-4.981-17.079-4.981z"></path>
			<path class="path22" d="M2582.416 881.679v89.662h-21.348l1.423-15.655h-0.712c-4.27 10.674-13.521 16.367-29.176 16.367-20.637 0-30.599-9.962-30.599-30.599v-60.486h21.348v54.794c0 7.828 0.712 12.809 2.846 14.944s6.404 3.558 13.521 3.558c13.521 0 20.637-8.539 20.637-24.906v-49.101h22.060z"></path>
			<path class="path23" d="M2604.475 881.679h21.348l-1.423 12.809h0.712c4.981-9.251 13.521-14.232 24.195-14.232 15.655 0 23.483 9.962 23.483 29.887v6.404h-19.925c0-2.135 0.712-4.27 0.712-4.981 0-9.251-3.558-14.232-11.386-14.232-10.674 0-15.655 7.116-15.655 21.348v52.659h-21.348v-89.662z"></path>
			<path class="path24" d="M2742.527 937.184h21.348v2.846l-1.423 13.521c-2.846 12.097-15.655 18.502-38.427 18.502-17.079 0-28.464-2.846-33.445-9.251-5.693-6.404-8.539-18.502-8.539-37.003 0-17.79 2.846-29.887 8.539-36.292s16.367-9.251 32.734-9.251c15.655 0 26.329 2.135 31.311 7.116 5.693 4.27 8.539 12.809 8.539 25.618h-21.348c0-10.674-5.693-15.655-17.79-15.655-8.539 0-14.232 1.423-16.367 4.981s-3.558 11.386-3.558 24.195c0 12.809 1.423 20.637 3.558 23.483 2.135 3.558 8.539 4.981 17.79 4.981 7.116 0 12.097-1.423 14.232-3.558 1.423-1.423 2.846-6.404 2.846-14.232z"></path>
			<path class="path25" d="M2837.17 942.877h21.348v3.558c0 17.79-12.809 26.329-39.138 26.329-17.79 0-29.176-2.846-34.869-9.251s-8.539-19.213-8.539-38.427c0-17.79 2.846-29.176 8.539-34.869s17.079-9.251 33.445-9.251c15.655 0 27.041 2.846 32.022 8.539 5.693 5.693 7.828 17.079 7.828 34.157v6.404h-60.486c0 2.135 0 3.558 0 4.27 0 8.539 1.423 14.944 4.27 17.79s7.828 4.27 16.367 4.27c7.828 0 12.809-0.712 15.655-2.846 2.135-1.423 3.558-4.981 3.558-10.674zM2837.17 917.259v-3.558c0-7.116-1.423-12.097-3.558-14.232s-7.828-2.846-16.367-2.846c-7.828 0-13.521 1.423-15.655 3.558-2.135 2.846-3.558 7.828-3.558 17.079h39.138z"></path>
			<path class="path26" d="M2951.739 906.585h-21.348c0-0.712 0-1.423 0-1.423-0.712-4.27-1.423-7.116-3.558-7.828s-7.116-1.423-14.944-1.423c-11.386 0-17.079 3.558-17.079 10.674 0 4.981 0.712 7.828 2.846 8.539s8.539 1.423 19.925 2.135c15.655 0.712 25.618 2.846 29.887 6.404s7.116 9.962 7.116 20.637c0 10.674-2.846 18.502-9.251 22.771s-17.079 6.404-33.445 6.404c-15.655 0-25.618-2.135-31.311-5.693s-8.539-10.674-8.539-21.348v-2.135h22.060c0 1.423-0.712 2.135-0.712 2.846-0.712 7.828 4.981 12.097 18.502 12.097s20.637-4.27 20.637-12.097c0-7.828-4.27-11.386-12.809-11.386-19.213 0-32.022-2.135-37.715-5.693-6.404-3.558-9.251-11.386-9.251-22.771 0-9.962 2.846-17.079 8.539-20.637s16.367-5.693 32.022-5.693c14.944 0 24.906 1.423 29.887 4.981 5.693 3.558 8.539 10.674 8.539 20.637z"></path>
			<path class="path27" d="M11.386 230.56h171.497v171.497h-171.497v-171.497z"></path>
			<path class="path28" d="M231.983 230.56h2724.025v171.497h-2724.025v-171.497z"></path>
			<path class="path29" d="M231.983 9.962h171.497v171.497h-171.497v-171.497z"></path>
		</symbol>
		<symbol id="icon-users" viewBox="0 0 1024 1024">
			<title>users</title>
			<path class="path1" d="M617.94 229.029c47.347 29.686 80.548 79.921 86.592 138.233 19.309 9.022 40.74 14.211 63.462 14.211 82.95 0 150.182-67.232 150.182-150.169 0-82.95-67.232-150.182-150.182-150.182-82.158 0.026-148.801 66.056-150.054 147.907zM519.553 536.523c82.95 0 150.182-67.244 150.182-150.182s-67.244-150.169-150.182-150.169c-82.937 0-150.207 67.244-150.207 150.182s67.27 150.169 150.207 150.169zM583.257 546.76h-127.435c-106.029 0-192.289 86.273-192.289 192.302v155.843l0.396 2.441 10.735 3.361c101.186 31.616 189.094 42.159 261.45 42.159 141.326 0 223.24-40.293 228.288-42.862l10.032-5.073h1.073v-155.868c0.038-106.029-86.221-192.302-192.251-192.302zM831.724 391.722h-126.451c-1.367 50.593-22.964 96.151-57.123 128.917 94.247 28.025 163.204 115.422 163.204 218.653v48.024c124.853-4.575 196.8-39.961 201.541-42.338l10.032-5.086h1.073v-155.894c0-106.017-86.26-192.276-192.276-192.276zM256.032 381.498c29.379 0 56.714-8.575 79.87-23.182 7.361-48.012 33.098-89.966 69.864-118.54 0.153-2.811 0.422-5.597 0.422-8.434 0-82.95-67.244-150.182-150.156-150.182-82.963 0-150.182 67.232-150.182 150.182 0 82.912 67.219 150.156 150.182 150.156zM390.904 520.639c-33.993-32.6-55.513-77.915-57.085-128.201-4.69-0.345-9.329-0.716-14.108-0.716h-127.422c-106.029 0-192.289 86.26-192.289 192.276v155.868l0.396 2.402 10.735 3.386c81.174 25.341 153.619 37.021 216.544 40.702v-47.066c0.026-103.231 68.957-190.602 163.229-218.653z"></path>
		</symbol>
		<symbol id="icon-next" viewBox="0 0 1024 1024">
			<title>next</title>
			<path class="path1" d="M750.442 511.995l-460.811 512.005-16.073-14.472 447.756-497.533-447.756-497.533 16.062-14.462 460.822 511.995z"></path>
		</symbol>
		<symbol id="icon-pin" viewBox="0 0 1024 1024">
			<title>pin</title>
			<path class="path1" d="M512.002 0c-186.768 0-338.714 151.947-338.714 338.712 0 75.223 48.035 197.862 146.842 374.927 69.892 125.235 138.634 229.658 141.522 234.041l50.35 76.32 50.348-76.318c2.89-4.385 71.637-108.806 141.52-234.041 98.811-177.067 146.842-299.704 146.842-374.927 0.002-186.768-151.945-338.714-338.71-338.714zM512.002 512c-96.966 0-175.575-78.607-175.575-175.575s78.609-175.575 175.575-175.575c96.966 0 175.575 78.607 175.575 175.575s-78.611 175.575-175.575 175.575z"></path>
		</symbol>
		<symbol id="icon-play" viewBox="0 0 1024 1024">
			<title>play</title>
			<path class="path1" d="M937.186 468.823l-801.028-462.195c-32.896-18.915-74.017 4.934-74.017 42.765v925.212c0 37.831 41.121 61.681 74.017 42.765l801.028-462.195c32.896-19.746 32.896-67.438 0-86.353z"></path>
		</symbol>
		<symbol id="icon-previous" viewBox="0 0 1024 1024">
			<title>previous</title>
			<path class="path1" d="M302.657 512l447.782 497.527-16.063 14.473-460.816-512 460.816-512 16.063 14.473-447.782 497.527z"></path>
		</symbol>
		<symbol id="icon-facebook" viewBox="0 0 1024 1024">
			<title>facebook</title>
			<path class="path1" d="M512 0c-282.782 0-512 229.218-512 512s229.218 512 512 512c282.782 0 512-229.218 512-512s-229.218-512-512-512zM512 944c-238.594 0-432-193.406-432-432s193.406-432 432-432 432 193.406 432 432-193.406 432-432 432z"></path>
			<path class="path2" d="M633.5 433.624h-89.062v-65c0-19.938 20.624-24.562 30.25-24.562 9.562 0 57.534 0 57.534 0v-87.718l-65.94-0.344c-89.966 0-110.5 65.406-110.5 107.344v70.282h-65.282v90.374h65.282c0 116.032 0 244 0 244h88.656c0 0 0-129.282 0-244h75.312l13.75-90.376z"></path>
		</symbol>
		<symbol id="icon-linkedin" viewBox="0 0 1024 1024">
			<title>linkedin</title>
			<path class="path1" d="M512 0c-282.782 0-512 229.218-512 512s229.218 512 512 512c282.782 0 512-229.218 512-512s-229.218-512-512-512zM512 944c-238.594 0-432-193.406-432-432s193.406-432 432-432 432 193.406 432 432-193.406 432-432 432z"></path>
			<path class="path2" d="M256.188 767.782h96v-384h-96v384zM640.188 383.782c-82.188 1.376-122.624 61.282-128 64v-64h-96v384h96v-224c0-8.216 20.25-74 96-64 40.688 2.656 62.624 56.468 64 64v224l95.624 0.438v-265.844c-3.374-38.376-22.562-117.22-127.624-118.594zM304.188 255.782c-26.5 0-48 21.468-48 48s21.5 48 48 48 48-21.468 48-48-21.5-48-48-48z"></path>
		</symbol>
		<symbol id="icon-twitter" viewBox="0 0 1024 1024">
			<title>twitter</title>
			<path class="path1" d="M512 0c-282.782 0-512 229.218-512 512 0 282.784 229.218 512 512 512 282.784 0 512-229.216 512-512 0-282.782-229.216-512-512-512zM512 944c-238.594 0-432-193.404-432-432 0-238.594 193.406-432 432-432 238.596 0 432 193.406 432 432 0 238.596-193.404 432-432 432z"></path>
			<path class="path2" d="M768 341.844c-8.624 5.124-34.496 15.342-58.624 17.906 15.47-8.982 38.376-38.406 44.032-61.78-14.872 10.218-49.032 25.124-65.9 25.124 0 0 0 0.046 0.032 0.078-19.258-21.672-46.324-35.172-76.386-35.172-58.308 0-105.62 50.922-105.62 113.75 0 8.72 0.962 17.19 2.714 25.344h-0.034c-79.124-2.188-171.622-44.892-223.748-118-32 59.704-4.312 126.092 32.030 150.282-12.406 1.032-35.342-1.532-46.122-12.814-0.75 39.594 16.968 92.096 81.47 111.124-12.442 7.22-34.38 5.158-43.968 3.562 3.374 33.5 46.874 77.246 94.404 77.246-16.94 21.068-74.746 59.412-146.282 47.192 48.598 31.878 105.252 50.314 165.218 50.314 170.41 0 302.752-148.718 295.628-332.186 0-0.22-0.062-0.438-0.062-0.626 0-0.5 0.062-1 0.062-1.438 0-0.562-0.062-1.124-0.062-1.718 15.5-11.376 36.31-31.564 51.218-58.188z"></path>
		</symbol>
	</defs>
</svg>
