<?xml version="1.0" encoding="utf-8"?>
<!-- Generator: Adobe Illustrator 18.0.0, SVG Export Plug-In . SVG Version: 6.00 Build 0)  -->
<!DOCTYPE svg PUBLIC "-//W3C//DTD SVG 1.1//EN" "http://www.w3.org/Graphics/SVG/1.1/DTD/svg11.dtd">
<svg version="1.1" id="Capa_1" xmlns="http://www.w3.org/2000/svg" xmlns:xlink="http://www.w3.org/1999/xlink" x="0px" y="0px"
	 viewBox="239 0 602.9 595.3" enable-background="new 239 0 602.9 595.3" xml:space="preserve">
<g>
	<g>
		<path fill="#777777" d="M835.2,306.8c3.1-5.7,3.1-12.6,0-18.3c-56.9-104.7-167.8-175.8-295.3-175.8s-238.4,71.1-295.3,175.8
			c-3.1,5.7-3.1,12.6,0,18.3c56.9,104.7,167.8,175.8,295.3,175.8S778.3,411.5,835.2,306.8z M539.8,439.5
			c-78.4,0-141.9-63.5-141.9-141.9s63.5-141.9,141.9-141.9s141.9,63.5,141.9,141.9S618.2,439.5,539.8,439.5z"/>
		<path fill="#777777" d="M539.8,225.3c-6,0-11.8,0.7-17.3,2.1c5.7,6.6,9.1,15.1,9.1,24.5c0,20.7-16.8,37.5-37.5,37.5
			c-9.4,0-17.9-3.4-24.5-9.1c-1.4,5.5-2.1,11.3-2.1,17.3c0,39.9,32.4,72.3,72.3,72.3s72.3-32.4,72.3-72.3S579.8,225.3,539.8,225.3z"
			/>
	</g>
</g>
</svg>
