<?xml version="1.0" encoding="utf-8"?>
<!-- Generator: Adobe Illustrator 18.0.0, SVG Export Plug-In . SVG Version: 6.00 Build 0)  -->
<!DOCTYPE svg PUBLIC "-//W3C//DTD SVG 1.1//EN" "http://www.w3.org/Graphics/SVG/1.1/DTD/svg11.dtd">
<svg version="1.1" id="Capa_1" xmlns="http://www.w3.org/2000/svg" xmlns:xlink="http://www.w3.org/1999/xlink" x="0px" y="0px"
	 viewBox="198 196.9 48.7 51" enable-background="new 198 196.9 48.7 51" xml:space="preserve">
<g>
	<path fill="#FFFFFF" d="M236.6,219.6l-20.4-20.4c-0.8-0.8-1.7-1.2-2.8-1.2c-1.1,0-2.1,0.4-2.8,1.2l-2.4,2.3
		c-0.8,0.8-1.2,1.7-1.2,2.8c0,1.1,0.4,2,1.2,2.8l15.2,15.2l-15.2,15.2c-0.8,0.8-1.2,1.7-1.2,2.8c0,1.1,0.4,2,1.2,2.8l2.4,2.3
		c0.8,0.8,1.7,1.2,2.8,1.2c1.1,0,2-0.4,2.8-1.2l20.4-20.4c0.8-0.8,1.2-1.8,1.2-2.8C237.8,221.3,237.4,220.4,236.6,219.6z"/>
</g>
</svg>
