<?xml version="1.0" encoding="utf-8"?>
<!-- Generator: Adobe Illustrator 18.0.0, SVG Export Plug-In . SVG Version: 6.00 Build 0)  -->
<!DOCTYPE svg PUBLIC "-//W3C//DTD SVG 1.1//EN" "http://www.w3.org/Graphics/SVG/1.1/DTD/svg11.dtd">
<svg version="1.1" id="Capa_1" xmlns="http://www.w3.org/2000/svg" xmlns:xlink="http://www.w3.org/1999/xlink" x="0px" y="0px"
	 viewBox="99.9 93.3 642.1 408.7" enable-background="new 99.9 93.3 642.1 408.7" xml:space="preserve">
<g>
	<g>
		<path fill="#999999" d="M142.9,141.7c16.1,8.7,239.7,128.8,248,133.2c8.3,4.5,19.1,6.6,30,6.6c10.9,0,21.6-2.2,30-6.6
			c8.3-4.5,231.9-124.6,248-133.2c16.2-8.7,31.5-35.9,1.8-35.9H141.2C111.5,105.8,126.8,133.1,142.9,141.7z M705.8,207.9
			c-18.3,9.6-243.6,127.4-254.9,133.2c-11.2,5.9-19.1,6.6-30,6.6s-18.7-0.8-30-6.6c-11.2-5.8-236.5-123.7-254.9-133.2
			c-12.9-6.7-12.8,1.2-12.8,7.3c0,6.1,0,242.6,0,242.6c0,13.9,18.5,31.7,32.8,31.7h529.7c14.3,0,32.8-17.9,32.8-31.7
			c0,0,0-236.5,0-242.6C718.6,209,718.7,201.1,705.8,207.9z"/>
	</g>
</g>
</svg>
