<?xml version="1.0" encoding="utf-8"?>
<!-- Generator: Adobe Illustrator 18.0.0, SVG Export Plug-In . SVG Version: 6.00 Build 0)  -->
<!DOCTYPE svg PUBLIC "-//W3C//DTD SVG 1.1//EN" "http://www.w3.org/Graphics/SVG/1.1/DTD/svg11.dtd">
<svg version="1.1" id="Layer_1" xmlns="http://www.w3.org/2000/svg" xmlns:xlink="http://www.w3.org/1999/xlink" x="0px" y="0px"
	 viewBox="0 0 416.7 143.9" enable-background="new 0 0 416.7 143.9" xml:space="preserve">
<g>
	<path fill="#0C4A8C" d="M72.5,68.8l-10.9,40.7H50.2l-5.7-20.8c-0.5-1.9-1.1-4.4-1.8-7.6l-0.6-2.5h-0.3l-0.6,2.5l-0.6,2.5
		c-0.4,1.7-0.9,3.4-1.3,5.1l-5.8,20.8H22.3L11.8,68.8h7.9l5.9,22.3c0.4,1.4,0.8,3.4,1.3,5.9l0.6,3l0.6,3h0.3c0.3-1.3,0.6-2.3,0.7-3
		l0.7-2.9c0.4-1.5,0.9-3.5,1.6-5.9l6.3-22.3h9.1l6.1,22.3c0.5,1.9,1,3.9,1.5,5.9l0.7,2.9l0.7,3h0.2l0.7-3l0.6-3c0.5-2.4,1-4.4,1.4-6
		l6-22.3H72.5z"/>
	<path fill="#0C4A8C" d="M100.7,101.7H83.2l-2.5,7.8h-8.2L86,68.8h11.6l13.7,40.7h-8L100.7,101.7z M98.9,96l-7-21.2L85,96H98.9z"/>
	<path fill="#0C4A8C" d="M145,80.7h-7.5c0-0.4-0.1-0.7-0.1-0.8c-0.2-2.3-0.7-3.7-1.5-4.3c-0.8-0.6-2.8-0.9-5.9-0.9
		c-3.7,0-6,0.3-7.2,1c-1.1,0.7-1.7,2.1-1.7,4.3c0,2.6,0.5,4.1,1.4,4.6c0.9,0.5,3.9,0.9,9.1,1.2c6.1,0.3,10,1.2,11.8,2.6
		c1.8,1.4,2.7,4.3,2.7,8.7c0,5.4-1,8.9-3.1,10.5c-2.1,1.6-6.7,2.4-13.8,2.4c-6.4,0-10.6-0.8-12.7-2.3c-2.1-1.5-3.1-4.7-3.1-9.4
		l0-1.5h7.5l0,0.9c0,2.8,0.5,4.6,1.5,5.2c1,0.6,3.7,1,8.1,1c3.5,0,5.7-0.4,6.6-1.1s1.4-2.4,1.4-5.1c0-2-0.4-3.3-1.1-3.9
		c-0.7-0.6-2.3-1-4.7-1.2l-4.3-0.3c-6.4-0.4-10.5-1.3-12.3-2.7c-1.8-1.4-2.7-4.4-2.7-9.1c0-4.7,1.1-7.9,3.2-9.5
		c2.2-1.6,6.5-2.4,12.9-2.4c6.1,0,10.2,0.7,12.4,2.2c2.1,1.4,3.2,4.3,3.2,8.5V80.7z"/>
	<path fill="#0C4A8C" d="M167.5,75.7v33.7h-7.7V75.7h-11.7v-6.9h31.6v6.9H167.5z"/>
	<path fill="#0C4A8C" d="M190.5,75.3v10.5h19.1v5.7h-19.1V103h20.3v6.5h-28V68.8h27.8v6.5H190.5z"/>
	<path fill="#565555" d="M264.1,68.8v40.7h-7.7V87.3c0-1.8,0-3.8,0.1-6l0.1-3l0.1-3h-0.2l-0.9,2.8l-0.9,2.8
		c-0.8,2.5-1.5,4.4-1.9,5.6l-8.9,22.9h-7l-9-22.8c-0.5-1.3-1.2-3.1-2-5.6l-0.9-2.8l-0.9-2.8h-0.2l0.1,2.9l0.1,3
		c0.1,2.3,0.2,4.3,0.2,5.9v22.2h-7.7V68.8h12.6l7.3,18.8c0.5,1.3,1.2,3.2,2,5.6l0.9,2.8l0.9,2.8h0.3l0.9-2.8l0.9-2.8
		c0.7-2.4,1.4-4.2,1.9-5.6l7.1-18.9H264.1z"/>
	<path fill="#565555" d="M295.8,101.7h-17.5l-2.5,7.8h-8.2l13.5-40.7h11.6l13.7,40.7h-8L295.8,101.7z M294,96l-7-21.2L280.1,96H294z
		"/>
	<path fill="#565555" d="M326.1,75.7v33.7h-7.7V75.7h-11.7v-6.9h31.6v6.9H326.1z"/>
	<path fill="#565555" d="M367.3,95h7.7v1.4c0,5.7-1,9.3-3.1,11c-2.1,1.7-6.6,2.5-13.7,2.5c-8,0-13-1.3-14.8-3.9s-2.8-9.6-2.8-21
		c0-6.7,1.3-11.1,3.8-13.2c2.5-2.1,7.7-3.2,15.7-3.2c5.8,0,9.7,0.9,11.6,2.6c1.9,1.7,2.9,5.2,2.9,10.4l0,0.9H367v-1
		c0-2.7-0.5-4.4-1.5-5.1c-1-0.7-3.3-1.1-6.9-1.1c-4.8,0-7.7,0.6-8.6,1.8c-1,1.2-1.4,4.6-1.4,10.4c0,7.8,0.4,12.4,1.3,13.8
		c0.9,1.4,3.7,2.1,8.4,2.1c3.8,0,6.3-0.4,7.5-1.2c1.1-0.8,1.7-2.5,1.7-5.2L367.3,95z"/>
	<path fill="#565555" d="M414.4,68.8v40.7h-7.7V91.9h-19.1v17.6h-7.7V68.8h7.7v16.6h19.1V68.8H414.4z"/>
</g>
<g>
	<path fill="#126E31" d="M221.8,118.5v18h-3v-18H221.8z"/>
	<path fill="#126E31" d="M227.8,118.5v2.5h-3v-2.5H227.8z M227.8,123.9v12.6h-3v-12.6H227.8z"/>
	<path fill="#126E31" d="M230.7,123.9h3l-0.1,2.1l0.1,0c0.6-1.5,1.9-2.3,4-2.3c3,0,4.5,1.4,4.5,4.2v8.6h-3v-7.6v-0.5l-0.1-0.9
		c-0.1-0.9-0.9-1.4-2.2-1.4c-2,0-3,1-3,2.9v7.5h-3V123.9z"/>
	<path fill="#126E31" d="M248.1,118.5v10.3h0.8l3.4-4.9h3.5l-4.4,5.9l5.3,6.7h-3.7l-4.1-5.6h-0.7v5.6h-3v-18H248.1z"/>
	<path fill="#126E31" d="M261.1,118.5v2.5h-3v-2.5H261.1z M261.1,123.9v12.6h-3v-12.6H261.1z"/>
	<path fill="#126E31" d="M264,123.9h3l-0.1,2.1l0.1,0c0.6-1.5,1.9-2.3,4-2.3c3,0,4.5,1.4,4.5,4.2v8.6h-3v-7.6v-0.5l-0.1-0.9
		c-0.1-0.9-0.9-1.4-2.2-1.4c-2,0-3,1-3,2.9v7.5h-3V123.9z"/>
	<path fill="#126E31" d="M289.6,123.9v12.8c0,2.1-0.4,3.5-1.2,4.2c-0.8,0.8-2.4,1.1-4.6,1.1c-2.2,0-3.6-0.3-4.3-0.9
		s-1.1-1.7-1.1-3.4h2.9c0,0.8,0.2,1.3,0.5,1.6c0.3,0.2,1,0.3,2.1,0.3c1.9,0,2.8-0.8,2.8-2.3v-2.8l-0.1,0c-0.5,1.3-1.8,2-3.7,2
		c-1.9,0-3.2-0.5-3.9-1.4c-0.7-0.9-1-2.6-1-5.2c0-2.4,0.3-4,1-4.9c0.7-0.9,2-1.4,3.8-1.4c2,0,3.3,0.7,3.9,2.2h0.1l-0.1-2.1H289.6z
		 M283.7,126.2c-1.2,0-1.9,0.2-2.2,0.7c-0.3,0.5-0.5,1.5-0.5,3.2c0,1.8,0.2,2.9,0.5,3.4c0.3,0.5,1.1,0.7,2.3,0.7s2-0.3,2.3-0.8
		c0.4-0.5,0.5-1.6,0.5-3.4c0-1.7-0.2-2.7-0.5-3.2S284.9,126.2,283.7,126.2z"/>
	<path fill="#126E31" d="M299.4,123.9h3l-0.2,1.8l0.1,0c0.7-1.3,1.9-2,3.4-2c2.2,0,3.3,1.4,3.3,4.2v0.9h-2.8c0-0.3,0.1-0.6,0.1-0.7
		c0-1.3-0.5-2-1.6-2c-1.5,0-2.2,1-2.2,3v7.4h-3V123.9z"/>
	<path fill="#126E31" d="M318.8,132.5h3v0.5c0,2.5-1.8,3.7-5.5,3.7c-2.5,0-4.1-0.4-4.9-1.3s-1.2-2.7-1.2-5.4c0-2.5,0.4-4.1,1.2-4.9
		s2.4-1.3,4.7-1.3c2.2,0,3.8,0.4,4.5,1.2c0.8,0.8,1.1,2.4,1.1,4.8v0.9h-8.5c0,0.3,0,0.5,0,0.6c0,1.2,0.2,2.1,0.6,2.5
		c0.4,0.4,1.1,0.6,2.3,0.6c1.1,0,1.8-0.1,2.2-0.4C318.7,133.8,318.8,133.3,318.8,132.5z M318.8,128.9l0-0.5c0-1-0.2-1.7-0.5-2
		c-0.3-0.3-1.1-0.4-2.3-0.4c-1.1,0-1.9,0.2-2.2,0.5c-0.3,0.4-0.5,1.1-0.5,2.4H318.8z"/>
	<path fill="#126E31" d="M334.9,127.4h-3c0-0.1,0-0.2,0-0.2c-0.1-0.6-0.2-1-0.5-1.1c-0.3-0.1-1-0.2-2.1-0.2c-1.6,0-2.4,0.5-2.4,1.5
		c0,0.7,0.1,1.1,0.4,1.2c0.3,0.1,1.2,0.2,2.8,0.3c2.2,0.1,3.6,0.4,4.2,0.9s1,1.4,1,2.9c0,1.5-0.4,2.6-1.3,3.2
		c-0.9,0.6-2.4,0.9-4.7,0.9c-2.2,0-3.6-0.3-4.4-0.8c-0.8-0.5-1.2-1.5-1.2-3v-0.3h3.1c0,0.2-0.1,0.3-0.1,0.4
		c-0.1,1.1,0.7,1.7,2.6,1.7c1.9,0,2.9-0.6,2.9-1.7c0-1.1-0.6-1.6-1.8-1.6c-2.7,0-4.5-0.3-5.3-0.8c-0.9-0.5-1.3-1.6-1.3-3.2
		c0-1.4,0.4-2.4,1.2-2.9c0.8-0.5,2.3-0.8,4.5-0.8c2.1,0,3.5,0.2,4.2,0.7C334.5,125,334.9,126,334.9,127.4z"/>
	<path fill="#126E31" d="M343.3,123.8c2.4,0,4,0.4,4.8,1.2c0.8,0.8,1.1,2.4,1.1,4.9c0,2.8-0.4,4.6-1.1,5.5s-2.3,1.3-4.7,1.3
		c-2.6,0-4.2-0.4-5-1.2c-0.8-0.8-1.1-2.6-1.1-5.3c0-2.6,0.4-4.4,1.1-5.2S340.8,123.8,343.3,123.8z M343.2,126.2
		c-1.3,0-2.1,0.2-2.4,0.7c-0.3,0.5-0.5,1.5-0.5,3.2c0,1.9,0.2,3.1,0.5,3.6s1.1,0.7,2.4,0.7c1.3,0,2-0.3,2.4-0.8
		c0.3-0.5,0.5-1.7,0.5-3.6c0-1.6-0.2-2.6-0.5-3.1C345.3,126.4,344.5,126.2,343.2,126.2z"/>
	<path fill="#126E31" d="M362.9,123.9v12.6h-3l0.2-2.2l-0.1,0c-0.6,1.5-1.9,2.3-4.1,2.3c-2.9,0-4.3-1.4-4.3-4.3v-8.5h3v7.7
		c0,1.1,0.1,1.8,0.4,2.1c0.3,0.3,0.9,0.5,1.9,0.5c1.9,0,2.9-1.2,2.9-3.5v-6.9H362.9z"/>
	<path fill="#126E31" d="M366,123.9h3l-0.2,1.8l0.1,0c0.7-1.3,1.9-2,3.4-2c2.2,0,3.3,1.4,3.3,4.2v0.9h-2.8c0-0.3,0.1-0.6,0.1-0.7
		c0-1.3-0.5-2-1.6-2c-1.5,0-2.2,1-2.2,3v7.4h-3V123.9z"/>
	<path fill="#126E31" d="M385.4,131.7h3v0.4l-0.2,1.9c-0.4,1.7-2.2,2.6-5.4,2.6c-2.4,0-4-0.4-4.7-1.3c-0.8-0.9-1.2-2.6-1.2-5.2
		c0-2.5,0.4-4.2,1.2-5.1s2.3-1.3,4.6-1.3c2.2,0,3.7,0.3,4.4,1c0.8,0.6,1.2,1.8,1.2,3.6h-3c0-1.5-0.8-2.2-2.5-2.2
		c-1.2,0-2,0.2-2.3,0.7c-0.3,0.5-0.5,1.6-0.5,3.4c0,1.8,0.2,2.9,0.5,3.3c0.3,0.5,1.2,0.7,2.5,0.7c1,0,1.7-0.2,2-0.5
		C385.2,133.5,385.4,132.8,385.4,131.7z"/>
	<path fill="#126E31" d="M398.7,132.5h3v0.5c0,2.5-1.8,3.7-5.5,3.7c-2.5,0-4.1-0.4-4.9-1.3s-1.2-2.7-1.2-5.4c0-2.5,0.4-4.1,1.2-4.9
		s2.4-1.3,4.7-1.3c2.2,0,3.8,0.4,4.5,1.2c0.8,0.8,1.1,2.4,1.1,4.8v0.9h-8.5c0,0.3,0,0.5,0,0.6c0,1.2,0.2,2.1,0.6,2.5
		c0.4,0.4,1.1,0.6,2.3,0.6c1.1,0,1.8-0.1,2.2-0.4C398.5,133.8,398.7,133.3,398.7,132.5z M398.7,128.9l0-0.5c0-1-0.2-1.7-0.5-2
		c-0.3-0.3-1.1-0.4-2.3-0.4c-1.1,0-1.9,0.2-2.2,0.5c-0.3,0.4-0.5,1.1-0.5,2.4H398.7z"/>
	<path fill="#126E31" d="M414.8,127.4h-3c0-0.1,0-0.2,0-0.2c-0.1-0.6-0.2-1-0.5-1.1c-0.3-0.1-1-0.2-2.1-0.2c-1.6,0-2.4,0.5-2.4,1.5
		c0,0.7,0.1,1.1,0.4,1.2c0.3,0.1,1.2,0.2,2.8,0.3c2.2,0.1,3.6,0.4,4.2,0.9s1,1.4,1,2.9c0,1.5-0.4,2.6-1.3,3.2
		c-0.9,0.6-2.4,0.9-4.7,0.9c-2.2,0-3.6-0.3-4.4-0.8c-0.8-0.5-1.2-1.5-1.2-3v-0.3h3.1c0,0.2-0.1,0.3-0.1,0.4
		c-0.1,1.1,0.7,1.7,2.6,1.7c1.9,0,2.9-0.6,2.9-1.7c0-1.1-0.6-1.6-1.8-1.6c-2.7,0-4.5-0.3-5.3-0.8c-0.9-0.5-1.3-1.6-1.3-3.2
		c0-1.4,0.4-2.4,1.2-2.9c0.8-0.5,2.3-0.8,4.5-0.8c2.1,0,3.5,0.2,4.2,0.7C414.4,125,414.8,126,414.8,127.4z"/>
</g>
<g>
	<rect x="1.6" y="32.4" fill="#104173" width="24.1" height="24.1"/>
</g>
<g>
	<rect x="32.6" y="32.4" fill="#126E31" width="382.8" height="24.1"/>
</g>
<g>
	<rect x="32.6" y="1.4" fill="#565555" width="24.1" height="24.1"/>
</g>
</svg>
