<?xml version="1.0" encoding="utf-8"?>
<!-- Generator: Adobe Illustrator 18.0.0, SVG Export Plug-In . SVG Version: 6.00 Build 0)  -->
<!DOCTYPE svg PUBLIC "-//W3C//DTD SVG 1.1//EN" "http://www.w3.org/Graphics/SVG/1.1/DTD/svg11.dtd">
<svg version="1.1" id="Capa_1" xmlns="http://www.w3.org/2000/svg" xmlns:xlink="http://www.w3.org/1999/xlink" x="0px" y="0px"
	 viewBox="0 0 466.6 466.6" enable-background="new 0 0 466.6 466.6" xml:space="preserve">
<g>
	<path fill="#34A237" d="M233.3,0C148.2,0,79,69.2,79,154.3c0,34.3,21.9,90.2,66.9,170.8c31.8,57.1,63.2,104.6,64.5,106.6l22.9,34.8
		l22.9-34.8c1.3-2,32.6-49.6,64.5-106.6c45-80.7,66.9-136.6,66.9-170.8C387.6,69.2,318.4,0,233.3,0z M233.3,233.3
		c-44.2,0-80-35.8-80-80s35.8-80,80-80s80,35.8,80,80S277.5,233.3,233.3,233.3z"/>
</g>
</svg>
