<?xml version="1.0" encoding="utf-8"?>
<!-- Generator: Adobe Illustrator 18.0.0, SVG Export Plug-In . SVG Version: 6.00 Build 0)  -->
<!DOCTYPE svg PUBLIC "-//W3C//DTD SVG 1.1//EN" "http://www.w3.org/Graphics/SVG/1.1/DTD/svg11.dtd">
<svg version="1.1" id="Capa_1" xmlns="http://www.w3.org/2000/svg" xmlns:xlink="http://www.w3.org/1999/xlink" x="0px" y="0px"
	 viewBox="115.9 0 610.1 595.3" enable-background="new 115.9 0 610.1 595.3" xml:space="preserve">
<g>
	<path fill="#FFFFFF" d="M605,326c1.6,3.2,1.6,6.5,0,8.1L438,590.4c-1.6,1.6-3.2,3.2-6.5,3.2l0,0c-3.2,0-4.9-1.6-6.5-3.2
		L236.8,334.1c-1.6-1.6-1.6-6.5,0-8.1c1.6-3.2,4.9-4.9,6.5-4.9h355.2C600.2,321.2,603.4,322.8,605,326z M243.3,274.1h355.2l0,0
		c4.9,0,8.1-3.2,8.1-8.1c0-3.2-1.6-4.9-3.2-6.5L416.9,3.2C415.3,1.6,412,0,410.4,0c-3.2,0-4.9,1.6-6.5,3.2L236.8,261.1
		c-1.6,3.2-1.6,6.5,0,8.1C238.5,272.5,240.1,274.1,243.3,274.1z"/>
</g>
</svg>
