<svg display="none" width="0" height="0" version="1.1" xmlns="http://www.w3.org/2000/svg" xmlns:xlink="http://www.w3.org/1999/xlink">
	<defs>
		<symbol id="calendar" viewBox="0 0 1024 1024">
			<title>calendar</title>
			<path class="path1" d="M592.844 538.92v0c-29.799 0-53.896 24.128-53.896 53.923 0 29.74 24.155 53.896 53.896 53.896v0c29.74 0 53.896-24.155 53.896-53.896 0.003-29.795-24.101-53.923-53.896-53.923zM431.156 485.052c29.754 0 53.896-24.142 53.896-53.896 0-29.775-24.142-53.889-53.896-53.889-29.747 0-53.889 24.114-53.889 53.889 0 29.754 24.142 53.896 53.889 53.896zM592.844 377.267v0c-29.799 0-53.896 24.114-53.896 53.889 0 29.754 24.101 53.896 53.896 53.896v0c29.74 0 53.896-24.142 53.896-53.896 0.003-29.775-24.101-53.889-53.896-53.889zM646.743 107.785h-269.476v107.792h269.476v-107.792zM754.535 485.052c29.727 0 53.896-24.142 53.896-53.896 0-29.775-24.114-53.889-53.896-53.889-29.799 0-53.896 24.114-53.896 53.889 0 29.754 24.155 53.896 53.896 53.896zM754.535 646.74c29.727 0 53.896-24.155 53.896-53.896 0-29.795-24.114-53.896-53.896-53.896-29.799 0-53.896 24.101-53.896 53.896 0 29.74 24.155 53.896 53.896 53.896zM431.156 646.74c29.754 0 53.896-24.155 53.896-53.896 0-29.795-24.114-53.923-53.896-53.923-29.775 0-53.889 24.128-53.889 53.923 0 29.74 24.142 53.896 53.889 53.896zM269.476 808.43c29.747 0 53.896-24.169 53.896-53.896 0-29.795-24.149-53.896-53.896-53.896-29.775 0-53.896 24.101-53.896 53.896 0 29.727 24.145 53.896 53.896 53.896zM916.208 107.785h-53.879v107.792h53.879v700.629h-808.417v-700.625h53.889v-107.795h-53.889c-59.529 0-107.792 48.246-107.792 107.795v700.604c0 59.563 48.263 107.819 107.792 107.819h808.413c59.539 0 107.792-48.259 107.792-107.819v-700.604c0.003-59.549-48.253-107.795-107.788-107.795zM269.476 646.74c29.747 0 53.896-24.155 53.896-53.896 0-29.795-24.149-53.923-53.896-53.923-29.775 0-53.896 24.128-53.896 53.923 0 29.74 24.145 53.896 53.896 53.896zM269.476 485.052c29.747 0 53.896-24.142 53.896-53.896 0-29.775-24.149-53.889-53.896-53.889-29.775 0-53.896 24.114-53.896 53.889 0 29.754 24.145 53.896 53.896 53.896zM431.156 808.43c29.754 0 53.896-24.169 53.896-53.896 0-29.795-24.142-53.896-53.896-53.896-29.747 0-53.889 24.101-53.889 53.896 0 29.727 24.142 53.896 53.889 53.896zM269.476 215.58c29.747 0 53.896-24.142 53.896-53.896v-107.785c0-29.785-24.121-53.899-53.896-53.899-29.751 0-53.896 24.114-53.896 53.896v107.785c0 29.758 24.145 53.899 53.896 53.899zM754.535 215.58c29.727 0 53.896-24.142 53.896-53.896v-107.785c0-29.785-24.169-53.899-53.896-53.899-29.799 0-53.896 24.114-53.896 53.896v107.785c0 29.758 24.155 53.899 53.896 53.899z"></path>
		</symbol>
		<symbol id="chat" viewBox="0 0 1024 1024">
			<title>chat</title>
			<path class="path1" d="M383.905 1020.062c-5.057 0-10.13-1.229-14.761-3.686-10.571-5.577-17.061-16.715-16.746-28.625l3.072-117.319h-79.006c-60.211 0-103.203-49.609-103.203-110.608v-411.79c0-59.439 42.992-107.804 103.203-107.804h632.312c60.211 0 115.208 48.349 115.208 107.804v411.743c0 60.983-54.981 110.608-115.208 110.608h-306.003l-200.515 143.754c-5.451 3.938-11.894 5.923-18.353 5.923zM276.496 303.262c-25.899 0-40.188 19.677-40.188 44.788v411.743c0 25.836 15.155 47.592 40.188 47.592h111.348c8.507 0 16.652 3.419 22.575 9.515 5.939 6.112 9.153 14.336 8.917 22.827l-2.269 86.3 157.208-112.703c5.356-3.844 11.768-5.908 18.353-5.908h316.132c25.049 0 52.192-21.788 52.192-47.592v-411.79c0-25.112-26.293-44.788-52.192-44.788h-632.265z"></path>
			<path class="path2" d="M50.097 608.886c-7.436 0-11.878-2.615-17.881-7.94-23.048-20.401-32.217-47.199-32.217-77.477v-411.743c0-59.439 42.992-107.788 103.203-107.788h632.312c60.211 0 115.208 48.349 115.208 107.804v18.227c0 17.392-14.115 31.508-31.508 31.508s-31.508-14.115-31.508-31.508v-18.243c0-25.112-26.293-44.788-52.192-44.788h-632.312c-25.899 0.016-40.188 19.692-40.188 44.788v411.743c0 12.083 1.575 21.992 10.98 30.31 13.028 11.532 12.745 31.476 1.197 44.489-6.239 7.010-16.4 10.618-25.096 10.618z"></path>
			<path class="path3" d="M482.367 445.046h-126.031c-8.712 0-15.754-7.042-15.754-15.754s7.042-15.754 15.754-15.754h126.031c8.712 0 15.754 7.042 15.754 15.754s-7.042 15.754-15.754 15.754z"></path>
			<path class="path4" d="M702.921 445.046h-157.538c-8.712 0-15.754-7.042-15.754-15.754s7.042-15.754 15.754-15.754h157.538c8.712 0 15.754 7.042 15.754 15.754s-7.042 15.754-15.754 15.754z"></path>
			<path class="path5" d="M828.952 445.046h-63.015c-8.712 0-15.754-7.042-15.754-15.754s7.042-15.754 15.754-15.754h63.015c8.712 0 15.754 7.042 15.754 15.754s-7.042 15.754-15.754 15.754z"></path>
			<path class="path6" d="M419.352 523.815h-63.015c-8.712 0-15.754-7.058-15.754-15.754s7.042-15.754 15.754-15.754h63.015c8.712 0 15.754 7.042 15.754 15.754s-7.042 15.754-15.754 15.754z"></path>
			<path class="path7" d="M608.398 523.815h-126.031c-8.712 0-15.754-7.058-15.754-15.754s7.042-15.754 15.754-15.754h126.031c8.712 0 15.754 7.042 15.754 15.754s-7.042 15.754-15.754 15.754z"></path>
			<path class="path8" d="M828.952 523.815h-157.538c-8.712 0-15.754-7.058-15.754-15.754s7.042-15.754 15.754-15.754h157.538c8.712 0 15.754 7.042 15.754 15.754s-7.042 15.754-15.754 15.754z"></path>
			<path class="path9" d="M513.875 618.338h-157.538c-8.712 0-15.754-7.042-15.754-15.754s7.042-15.754 15.754-15.754h157.538c8.712 0 15.754 7.042 15.754 15.754s-7.042 15.754-15.754 15.754z"></path>
			<path class="path10" d="M734.429 618.338h-157.538c-8.712 0-15.754-7.042-15.754-15.754s7.042-15.754 15.754-15.754h157.538c8.712 0 15.754 7.042 15.754 15.754s-7.042 15.754-15.754 15.754z"></path>
			<path class="path11" d="M828.952 618.338h-31.508c-8.712 0-15.754-7.042-15.754-15.754s7.042-15.754 15.754-15.754h31.508c8.712 0 15.754 7.042 15.754 15.754s-7.042 15.754-15.754 15.754z"></path>
			<path class="path12" d="M419.352 697.108h-63.015c-8.712 0-15.754-7.042-15.754-15.754s7.042-15.754 15.754-15.754h63.015c8.712 0 15.754 7.042 15.754 15.754s-7.042 15.754-15.754 15.754z"></path>
			<path class="path13" d="M592.644 697.108h-110.277c-8.712 0-15.754-7.042-15.754-15.754s7.042-15.754 15.754-15.754h110.277c8.712 0 15.754 7.042 15.754 15.754s-7.042 15.754-15.754 15.754z"></path>
		</symbol>
		<symbol id="cogs" viewBox="0 0 1024 1024">
			<title>cogs</title>
			<path class="path1" d="M396.297 856.795h-72.489c-20.342 0-26.37-6.027-62.426-95.253l-17.921-7.265c-75.88 34.28-85.19 34.28-90.84 34.28h-11.517l-9.149-8.288-51.286-50.264c-14.907-14.745-14.907-22.549 24.217-111.398l-6.996-16.629c-91.648-32.827-97.89-38.855-97.89-59.789v-71.036c0-20.719 5.597-26.154 97.514-61.78l6.996-16.629c-39.662-83.737-41.653-94.877-25.885-110.214l59.466-58.228 12.485-0.215c5.274 0 14.853 0 92.078 32.451l17.813-7.211c33.527-89.549 39.501-95.63 60.327-95.63h72.489c20.557 0 26.047 5.489 62.372 95.253l17.813 7.211c75.772-34.28 85.19-34.28 90.894-34.28h11.517l9.149 8.234 51.448 50.156c14.853 14.799 14.853 22.602-24.271 111.506l7.050 16.737c92.24 33.043 97.836 38.478 97.836 59.735v70.929c0 20.773-5.597 26.208-97.514 61.834l-6.996 16.683c41.007 86.535 41.169 95.146 26.154 110.053l-59.735 58.444-12.485 0.215c-5.274 0-14.853 0-91.971-32.505l-17.867 7.319c-33.581 89.495-39.608 95.576-60.381 95.576zM339.952 799.859h39.77c7.104-16.037 18.62-45.259 27.984-70.337l4.359-11.732 63.018-25.562 10.871 4.682c25.778 10.925 56.183 23.302 72.92 29.276l27.661-27.015c-6.619-16.306-19.374-44.613-30.836-68.453l-5.543-11.57 26.37-62.426 11.247-4.413c25.885-10.010 56.022-22.226 72.328-29.598v-37.509c-16.414-6.888-46.174-18.19-71.79-27.231l-11.893-4.198-26.262-62.534 5.005-11.247c10.978-24.809 23.302-53.977 29.545-70.606l-27.661-27.015c-16.575 6.404-46.066 19.212-71.036 30.621l-11.14 5.059-62.964-25.401-4.52-11.194c-10.171-25.401-22.71-54.892-30.298-70.821h-39.716c-7.104 16.037-18.566 45.259-27.93 70.337l-4.359 11.678-62.856 25.509-10.871-4.628c-25.831-10.978-56.345-23.248-73.135-29.222l-27.607 27.015c6.619 16.306 19.427 44.559 30.836 68.507l5.489 11.517-26.37 62.48-11.247 4.305c-25.885 10.010-55.968 22.226-72.274 29.598v37.509c16.414 6.996 46.227 18.19 71.844 27.338l11.839 4.198 26.208 62.426-4.951 11.194c-10.978 24.755-23.302 53.977-29.545 70.606l27.607 27.015c16.575-6.404 46.066-19.158 70.983-30.567l11.194-5.112 62.964 25.509 4.52 11.247c10.225 25.347 22.71 54.892 30.244 70.767zM358.518 637.229c-74.050 0-134.269-59.197-134.269-132.009 0-72.758 60.219-131.955 134.269-131.955s134.323 59.197 134.323 131.955c0 72.866-60.273 132.009-134.323 132.009zM358.518 430.201c-42.622 0-77.333 33.635-77.333 75.019 0 41.438 34.711 75.073 77.333 75.073 42.676 0 77.387-33.635 77.387-75.073 0-41.33-34.711-75.019-77.387-75.019z"></path>
			<path class="path2" d="M814.927 870.249h-3.929l-35.787-12.001c-16.414-5.543-17.974-16.252-19.912-58.228-10.817 1.13-26.37 2.745-34.442 2.745-15.176 0-22.011-7.642-25.078-14.046l-14.853-30.675c-6.942-15.499-0.646-24.271 26.854-55.268l-0.054-0.484c-31.052-25.239-39.285-33.419-33.958-49.941l11.032-32.989c5.543-16.198 17.059-18.028 57.26-20.396l0.377-0.431c-4.251-41.223-4.198-52.040 10.763-59.95l35.949-18.351h5.812c8.395 0 11.678 0 43.806 28.953 26.423-33.258 31.374-36.11 42.676-36.11h3.982l35.68 12.001c16.414 5.328 18.082 17.059 19.912 58.228 10.871-1.184 26.477-2.798 34.496-2.798 15.284 0 22.064 7.803 25.078 14.315l14.745 30.46c7.642 14.799 1.238 23.625-26.746 55.322l0.054 0.484c30.46 24.809 39.501 33.796 33.688 50.479l-10.871 32.505c-4.897 16.145-16.521 17.974-57.206 20.396l-0.323 0.377c4.144 40.415 4.198 52.255-11.247 60.112l-35.464 18.19h-5.866c-8.288 0-11.786 0-43.913-28.953-25.509 32.182-30.729 36.056-42.514 36.056zM799.59 830.587l4.574 1.507c5.92-7.050 13.723-16.683 20.342-25.132l7.157-9.149 45.259-3.229 8.288 7.588c7.911 7.265 17.167 15.445 24.163 21.365l5.059-2.583c-0.646-9.202-1.776-21.741-2.96-32.505l-1.13-11.194 29.383-34.496 11.14-0.646c10.871-0.646 23.464-1.507 32.558-2.368l2.045-6.027c-6.835-5.92-16.198-13.777-24.432-20.45l-8.88-7.211-2.798-44.99 7.211-8.126c7.48-8.449 15.983-18.351 21.903-25.616l-2.422-5.059c-10.063 0.861-22.818 2.26-31.159 3.283l-11.678 1.453-33.958-30.083-0.484-11.086c-0.538-11.032-1.238-23.733-1.991-33.096l-4.682-1.561c-5.92 7.050-13.777 16.737-20.396 25.132l-7.157 9.149-45.097 3.337-8.288-7.642c-7.911-7.265-17.221-15.445-24.163-21.365l-5.005 2.529c0.646 9.256 1.722 21.795 2.906 32.612l1.13 11.14-29.276 34.496-11.194 0.538c-10.817 0.646-23.517 1.561-32.612 2.422l-2.045 5.974c6.835 5.974 16.252 13.777 24.486 20.45l8.987 7.211 2.745 45.205-7.211 8.126c-7.534 8.395-16.037 18.243-22.011 25.509l2.422 5.005c10.117-0.915 22.872-2.314 31.159-3.337l11.678-1.453 34.011 30.083 0.484 11.086c0.431 11.032 1.238 23.84 1.937 33.204zM847.485 765.794c-7.857 0-15.499-1.238-22.925-3.767-38.263-12.808-58.766-54.838-45.743-93.639 10.225-30.352 38.37-50.748 70.068-50.748 7.803 0 15.445 1.238 22.818 3.659 38.263 12.808 58.766 54.892 45.743 93.639-10.171 30.406-38.317 50.856-69.96 50.856zM848.938 665.051c-11.301 0-21.365 7.427-25.078 18.459-4.682 13.992 2.422 29.060 15.822 33.581 13.185 4.413 28.253-3.767 32.774-17.221 4.736-13.992-2.368-29.060-15.768-33.581-2.529-0.807-5.166-1.238-7.749-1.238z"></path>
		</symbol>
		<symbol id="folder" viewBox="0 0 1024 1024">
			<title>folder</title>
			<path class="path1" d="M984.774 405.591h-54.208v-108.416c0-22.085-18.069-40.154-40.154-40.154h-391.501l-52.2-84.323c-8.031-12.046-18.069-20.077-32.123-20.077h-291.116c-22.085 0-38.146 18.069-38.146 40.154v212.816h-44.169c-24.092 0-46.177 22.085-40.154 48.185l84.323 385.478c4.015 18.069 20.077 32.123 38.146 32.123h766.94c18.069 0 36.139-12.046 40.154-30.115l92.354-387.486c6.023-26.1-14.054-48.185-38.146-48.185zM163.627 230.921h226.87l52.2 86.331c8.031 12.046 20.077 18.069 34.131 18.069h375.439v70.269h-688.64v-174.67zM860.296 791.069h-704.702l-66.254-307.178h845.241l-74.285 307.178z"></path>
		</symbol>
		<symbol id="handshake" viewBox="0 0 1024 1024">
			<title>handshake</title>
			<path class="path1" d="M1024 223.186v321.618c0 0-66.35 13.522-80 15.323-13.65 1.783-56.411 16.073-87.497-14.802-47.817-47.616-217.911-223.022-217.911-223.022s-29.303-29.824-76.407-4.005c-42.999 23.561-106.798 58.021-133.76 71.634-9.554 6.949-21.147 11.054-33.701 11.054-32.521 0-58.871-27.355-58.871-61.111 0-26.45 16.219-48.914 38.894-57.408 61.339-38.491 189.12-112.914 242.459-142.309 32.567-17.92 56.018-19.456 100.699 19.502 55.049 48.082 103.982 91.813 103.982 91.813s22.912 10.962 41.417 8.274c38.711-5.714 160.695-36.562 160.695-36.562zM347.301 768.119c8.229-21.925 5.467-46.519-10.322-63.323-14.199-15.141-34.853-19.127-54.619-14.427 5.513-20.27 2.478-41.856-11.813-57.125-14.254-15.104-34.853-19.072-54.61-14.373 5.458-20.27 2.432-41.856-11.822-57.143-22.354-23.808-61.019-22.766-86.4 2.377-25.262 25.17-41.472 70.674-18.898 97.39 22.537 26.697 48.338 10.478 68.096 5.806-5.458 20.279-21.915 39.159-1.71 65.719 20.178 26.624 48.338 10.496 68.087 5.778-5.504 20.261-21.248 41.024-1.737 65.71 19.621 24.658 51.794 11.52 72.987 4.699-8.192 21.897-25.719 45.394-3.2 71.936 22.482 26.523 74.496 14.171 99.931-10.962 25.381-25.134 27.785-64.942 5.513-88.75-15.36-16.384-38.318-20.187-59.483-13.312zM810.094 599.963c-182.665-189.486-96.64-100.27-195.291-202.789 0 0-29.742-30.72-68.864-12.891-27.474 12.498-62.848 29.522-89.518 42.496-29.312 15.863-54.866 20.736-60.206 20.736-56.53 0-102.4-47.534-102.4-106.149 0-38.016 19.465-71.122 48.466-89.902 40.786-29.266 134.738-81.152 134.738-81.152s-28.581-37.632-91.31-37.632c-62.665 0-193.573 89.042-193.573 89.042s-37.157 24.704-90.103 2.478l-102.034-36.864v367.945c0 0 29.111 8.805 55.296 19.84 5.97-17.445 15.406-33.673 28.727-46.967 43.429-42.935 115.374-43.401 154.917-1.207 11.867 12.763 20.187 28.197 24.457 45.029 15.963 5.12 30.281 14.107 41.929 26.514 11.913 12.672 20.197 28.114 24.503 44.965 15.963 5.138 30.254 14.126 41.938 26.587 13.102 13.925 21.806 30.93 25.938 49.335 16.585 5.038 31.698 14.281 43.813 27.246 23.671 25.243 32.174 59.584 27.017 92.709 0 0.018 0 0.018 0 0.018v0c0 0.027 0 0.027 0 0.046 0.046 0.055 0.119 0.091 0.174 0.165 0.896 1.033 14.793 17.253 23.607 26.377 17.536 18.222 46.080 18.176 63.616 0 17.481-18.158 17.554-47.79 0-66.002-0.567-0.585-1.262-1.006-1.838-1.573 0.018-0.128 0.091-0.265 0.11-0.393-59.109-61.321-62.181-65.746-56.329-71.808 5.842-6.062 14.501 7.296 80.631 75.959 0.302 0.302 0.713 0.567 1.216 0.768 1.326 1.929 2.642 3.877 4.306 5.577 17.49 18.213 46.071 18.176 63.607 0 17.499-18.167 17.536-47.799 0-66.011-0.933-0.96-1.975-1.701-2.944-2.56-0.869-1.042-1.719-2.094-2.77-3.163-60.343-62.546-67.2-74.459-62.592-79.232 5.248-5.458 33.353 26.542 93.394 88.795 0.128 0 0.247-0.037 0.393-0.037 17.591 16.622 44.928 16.21 61.943-1.417 16.375-16.987 17.253-43.913 2.935-62.235-0.256-1.225-0.722-2.286-1.509-3.099-75.986-78.894-72.731-80.073-68.123-84.846s4.946-5.102 78.894 71.607c0.265 0.311 0.466 0.686 0.768 1.006 17.499 18.213 46.089 18.167 63.625 0 17.481-18.167 17.536-47.808 0-66.030-0.521-0.466-1.070-0.814-1.554-1.28z"></path>
		</symbol>
		<symbol id="list" viewBox="0 0 1024 1024">
			<title>list</title>
			<path class="path1" d="M73.728 792.576c-38.912 0-73.728 32.768-73.728 71.68s34.816 73.728 73.728 73.728 71.68-34.816 71.68-73.728-32.768-71.68-71.68-71.68z"></path>
			<path class="path2" d="M73.728 440.32c-38.912 0-73.728 32.768-73.728 71.68s34.816 71.68 73.728 71.68 71.68-32.768 71.68-71.68-32.768-71.68-71.68-71.68z"></path>
			<path class="path3" d="M335.872 225.28h620.544c36.864 0 67.584-28.672 67.584-65.536s-30.72-67.584-67.584-67.584h-620.544c-36.864 0-67.584 30.72-67.584 67.584s30.72 65.536 67.584 65.536z"></path>
			<path class="path4" d="M73.728 86.016c-38.912 0-73.728 34.816-73.728 73.728s34.816 71.68 73.728 71.68 71.68-32.768 71.68-71.68-32.768-73.728-71.68-73.728z"></path>
			<path class="path5" d="M956.416 444.416h-620.544c-36.864 0-67.584 30.72-67.584 67.584s30.72 67.584 67.584 67.584h620.544c36.864 0 67.584-30.72 67.584-67.584s-30.72-67.584-67.584-67.584z"></path>
			<path class="path6" d="M956.416 796.672h-620.544c-36.864 0-67.584 30.72-67.584 67.584s30.72 67.584 67.584 67.584h620.544c36.864 0 67.584-30.72 67.584-67.584s-30.72-67.584-67.584-67.584z"></path>
		</symbol>
		<symbol id="logo-colour" viewBox="0 0 2965 1024">
			<title>logo-colour</title>
			<path class="path1" d="M515.914 489.584l-77.565 289.623h-81.123l-40.562-148.014c-3.558-13.521-7.828-31.311-12.809-54.082l-4.27-17.79h-2.135l-8.539 35.58c-2.846 12.097-6.404 24.195-9.251 36.292l-41.273 148.014h-79.7l-74.719-289.623h56.217l41.985 158.688c2.846 9.962 5.693 24.195 9.251 41.985l8.539 42.696h2.135c2.135-9.251 4.27-16.367 4.981-21.348l4.981-20.637c2.846-10.674 6.404-24.906 11.386-41.985l44.831-158.688h64.756l43.408 158.688c3.558 13.521 7.116 27.753 10.674 41.985l4.981 20.637 4.981 21.348h1.423l4.981-21.348 4.27-21.348c3.558-17.079 7.116-31.311 9.962-42.696l42.696-158.688h55.505z"></path>
			<path class="path2" d="M716.587 723.703h-124.531l-17.79 55.505h-58.352l96.067-289.623h82.546l97.49 289.623h-56.928l-18.502-55.505zM703.778 683.141l-49.812-150.86-49.101 150.86h98.913z"></path>
			<path class="path3" d="M1031.828 574.265h-53.37c0-2.846-0.712-4.981-0.712-5.693-1.423-16.367-4.981-26.329-10.674-30.599s-19.925-6.404-41.985-6.404c-26.329 0-42.696 2.135-51.236 7.116-7.828 4.981-12.097 14.944-12.097 30.599 0 18.502 3.558 29.176 9.962 32.734s27.753 6.404 64.756 8.539c43.408 2.135 71.161 8.539 83.969 18.502s19.213 30.599 19.213 61.91c0 38.427-7.116 63.333-22.060 74.719s-47.678 17.079-98.202 17.079c-45.543 0-75.43-5.693-90.374-16.367s-22.060-33.445-22.060-66.891v-10.674h53.37v6.404c0 19.925 3.558 32.734 10.674 37.003s26.329 7.116 57.64 7.116c24.906 0 40.562-2.846 46.966-7.828s9.962-17.079 9.962-36.292c0-14.232-2.846-23.483-7.828-27.753s-16.367-7.116-33.445-8.539l-30.599-2.135c-45.543-2.846-74.719-9.251-87.527-19.213s-19.213-31.311-19.213-64.756c0-33.445 7.828-56.217 22.771-67.603 15.655-11.386 46.254-17.079 91.797-17.079 43.408 0 72.584 4.981 88.239 15.655 14.944 9.962 22.771 30.599 22.771 60.486v9.962z"></path>
			<path class="path4" d="M1191.939 538.685v239.811h-54.794v-239.811h-83.258v-49.101h224.867v49.101h-86.816z"></path>
			<path class="path5" d="M1355.608 535.839v74.719h135.917v40.562h-135.917v81.835h144.456v46.254h-199.249v-289.623h197.826v46.254h-143.033z"></path>
			<path class="path6" d="M1879.35 489.584v289.623h-54.794v-157.976c0-12.809 0-27.041 0.712-42.696l1.423-42.696h-1.423l-12.809 39.85c-5.693 17.79-10.674 31.311-13.521 39.85l-63.333 162.958h-49.812l-64.044-162.246c-3.558-9.251-8.539-22.060-14.232-39.85l-12.809-39.85h-1.423l0.712 20.637 0.712 21.348c0.712 16.367 1.423 30.599 1.423 41.985v157.976h-54.794v-288.912h89.662l51.947 133.782c3.558 9.251 8.539 22.771 14.232 39.85l12.809 39.85h2.135l12.809-39.85c4.981-17.079 9.962-29.887 13.521-39.85l50.524-134.493h90.374z"></path>
			<path class="path7" d="M2104.928 723.703h-124.531l-17.79 55.505h-58.352l96.067-289.623h82.546l97.49 289.623h-56.928l-18.502-55.505zM2092.12 683.141l-49.812-150.86-49.101 150.86h98.913z"></path>
			<path class="path8" d="M2320.545 538.685v239.811h-54.794v-239.811h-83.258v-49.101h224.867v49.101h-86.816z"></path>
			<path class="path9" d="M2613.726 676.025h54.794v9.962c0 40.562-7.116 66.179-22.060 78.277s-46.966 17.79-97.49 17.79c-56.928 0-92.509-9.251-105.318-27.753s-19.925-68.314-19.925-149.437c0-47.678 9.251-78.988 27.041-93.932s54.794-22.771 111.722-22.771c41.273 0 69.026 6.404 82.546 18.502s20.637 37.003 20.637 74.007v6.404h-54.082v-7.116c0-19.213-3.558-31.311-10.674-36.292s-23.483-7.828-49.101-7.828c-34.157 0-54.794 4.27-61.198 12.809-7.116 8.539-9.962 32.734-9.962 74.007 0 55.505 2.846 88.239 9.251 98.202s26.329 14.944 59.775 14.944c27.041 0 44.831-2.846 53.37-8.539 7.828-5.693 12.097-17.79 12.097-37.003l-1.423-14.232z"></path>
			<path class="path10" d="M2948.892 489.584v289.623h-54.794v-125.243h-135.917v125.243h-54.794v-289.623h54.794v118.126h135.917v-118.126h54.794z"></path>
			<path class="path11" d="M1578.341 843.252v128.089h-21.348v-128.089h21.348z"></path>
			<path class="path12" d="M1621.037 843.252v17.79h-21.348v-17.79h21.348zM1621.037 881.679v89.662h-21.348v-89.662h21.348z"></path>
			<path class="path13" d="M1641.673 881.679h21.348l-0.712 14.944h0.712c4.27-10.674 13.521-16.367 28.464-16.367 21.348 0 32.022 9.962 32.022 29.887v61.198h-21.348v-57.64l-0.712-6.404c-0.712-6.404-6.404-9.962-15.655-9.962-14.232 0-21.348 7.116-21.348 20.637v53.37h-21.348v-89.662z"></path>
			<path class="path14" d="M1765.493 843.252v73.295h5.693l24.195-34.869h24.906l-31.311 41.985 37.715 47.678h-26.329l-29.176-39.85h-4.981v39.85h-21.348v-128.089h20.637z"></path>
			<path class="path15" d="M1858.001 843.252v17.79h-21.348v-17.79h21.348zM1858.001 881.679v89.662h-21.348v-89.662h21.348z"></path>
			<path class="path16" d="M1878.638 881.679h21.348l-0.712 14.944h0.712c4.27-10.674 13.521-16.367 28.464-16.367 21.348 0 32.022 9.962 32.022 29.887v61.198h-21.348v-57.64l-0.712-6.404c-0.712-6.404-6.404-9.962-15.655-9.962-14.232 0-21.348 7.116-21.348 20.637v53.37h-21.348v-89.662z"></path>
			<path class="path17" d="M2060.809 881.679v91.085c0 14.944-2.846 24.906-8.539 29.887-5.693 5.693-17.079 7.828-32.734 7.828s-25.618-2.135-30.599-6.404-7.828-12.097-7.828-24.195h20.637c0 5.693 1.423 9.251 3.558 11.386 2.135 1.423 7.116 2.135 14.944 2.135 13.521 0 19.925-5.693 19.925-16.367v-19.925h-0.712c-3.558 9.251-12.809 14.232-26.329 14.232s-22.771-3.558-27.753-9.962c-4.981-6.404-7.116-18.502-7.116-37.003 0-17.079 2.135-28.464 7.116-34.869s14.232-9.962 27.041-9.962c14.232 0 23.483 4.981 27.753 15.655h0.712l-0.712-14.944h20.637zM2018.824 898.046c-8.539 0-13.521 1.423-15.655 4.981s-3.558 10.674-3.558 22.771c0 12.809 1.423 20.637 3.558 24.195s7.828 4.981 16.367 4.981 14.232-2.135 16.367-5.693c2.846-3.558 3.558-11.386 3.558-24.195 0-12.097-1.423-19.213-3.558-22.771s-8.539-4.27-17.079-4.27z"></path>
			<path class="path18" d="M2130.546 881.679h21.348l-1.423 12.809h0.712c4.981-9.251 13.521-14.232 24.195-14.232 15.655 0 23.483 9.962 23.483 29.887v6.404h-19.925c0-2.135 0.712-4.27 0.712-4.981 0-9.251-3.558-14.232-11.386-14.232-10.674 0-15.655 7.116-15.655 21.348v52.659h-21.348v-89.662z"></path>
			<path class="path19" d="M2268.598 942.877h21.348v3.558c0 17.79-12.809 26.329-39.138 26.329-17.79 0-29.176-2.846-34.869-9.251s-8.539-19.213-8.539-38.427c0-17.79 2.846-29.176 8.539-34.869s17.079-9.251 33.445-9.251c15.655 0 27.041 2.846 32.022 8.539 5.693 5.693 7.828 17.079 7.828 34.157v6.404h-60.486c0 2.135 0 3.558 0 4.27 0 8.539 1.423 14.944 4.27 17.79s7.828 4.27 16.367 4.27c7.828 0 12.809-0.712 15.655-2.846 2.846-1.423 3.558-4.981 3.558-10.674zM2268.598 917.259v-3.558c0-7.116-1.423-12.097-3.558-14.232s-7.828-2.846-16.367-2.846c-7.828 0-13.521 1.423-15.655 3.558-2.135 2.846-3.558 7.828-3.558 17.079h39.138z"></path>
			<path class="path20" d="M2383.166 906.585h-21.348c0-0.712 0-1.423 0-1.423-0.712-4.27-1.423-7.116-3.558-7.828s-7.116-1.423-14.944-1.423c-11.386 0-17.079 3.558-17.079 10.674 0 4.981 0.712 7.828 2.846 8.539s8.539 1.423 19.925 2.135c15.655 0.712 25.618 2.846 29.887 6.404s7.116 9.962 7.116 20.637c0 10.674-2.846 18.502-9.251 22.771s-17.079 6.404-33.445 6.404c-15.655 0-25.618-2.135-31.311-5.693s-8.539-10.674-8.539-21.348v-2.135h22.060c0 1.423-0.712 2.135-0.712 2.846-0.712 7.828 4.981 12.097 18.502 12.097s20.637-4.27 20.637-12.097c0-7.828-4.27-11.386-12.809-11.386-19.213 0-32.022-2.135-37.715-5.693-6.404-3.558-9.251-11.386-9.251-22.771 0-9.962 2.846-17.079 8.539-20.637s16.367-5.693 32.022-5.693c14.944 0 24.906 1.423 29.887 4.981 5.693 3.558 8.539 10.674 8.539 20.637z"></path>
			<path class="path21" d="M2442.941 880.967c17.079 0 28.464 2.846 34.157 8.539s7.828 17.079 7.828 34.869c0 19.925-2.846 32.734-7.828 39.138s-16.367 9.251-33.445 9.251c-18.502 0-29.887-2.846-35.58-8.539s-7.828-18.502-7.828-37.715c0-18.502 2.846-31.311 7.828-37.003s17.079-8.539 34.869-8.539zM2442.229 898.046c-9.251 0-14.944 1.423-17.079 4.981s-3.558 10.674-3.558 22.771c0 13.521 1.423 22.060 3.558 25.618s7.828 4.981 17.079 4.981c9.251 0 14.232-2.135 17.079-5.693 2.135-3.558 3.558-12.097 3.558-25.618 0-11.386-1.423-18.502-3.558-22.060s-7.828-4.981-17.079-4.981z"></path>
			<path class="path22" d="M2582.416 881.679v89.662h-21.348l1.423-15.655h-0.712c-4.27 10.674-13.521 16.367-29.176 16.367-20.637 0-30.599-9.962-30.599-30.599v-60.486h21.348v54.794c0 7.828 0.712 12.809 2.846 14.944s6.404 3.558 13.521 3.558c13.521 0 20.637-8.539 20.637-24.906v-49.101h22.060z"></path>
			<path class="path23" d="M2604.475 881.679h21.348l-1.423 12.809h0.712c4.981-9.251 13.521-14.232 24.195-14.232 15.655 0 23.483 9.962 23.483 29.887v6.404h-19.925c0-2.135 0.712-4.27 0.712-4.981 0-9.251-3.558-14.232-11.386-14.232-10.674 0-15.655 7.116-15.655 21.348v52.659h-21.348v-89.662z"></path>
			<path class="path24" d="M2742.527 937.184h21.348v2.846l-1.423 13.521c-2.846 12.097-15.655 18.502-38.427 18.502-17.079 0-28.464-2.846-33.445-9.251-5.693-6.404-8.539-18.502-8.539-37.003 0-17.79 2.846-29.887 8.539-36.292s16.367-9.251 32.734-9.251c15.655 0 26.329 2.135 31.311 7.116 5.693 4.27 8.539 12.809 8.539 25.618h-21.348c0-10.674-5.693-15.655-17.79-15.655-8.539 0-14.232 1.423-16.367 4.981s-3.558 11.386-3.558 24.195c0 12.809 1.423 20.637 3.558 23.483 2.135 3.558 8.539 4.981 17.79 4.981 7.116 0 12.097-1.423 14.232-3.558 1.423-1.423 2.846-6.404 2.846-14.232z"></path>
			<path class="path25" d="M2837.17 942.877h21.348v3.558c0 17.79-12.809 26.329-39.138 26.329-17.79 0-29.176-2.846-34.869-9.251s-8.539-19.213-8.539-38.427c0-17.79 2.846-29.176 8.539-34.869s17.079-9.251 33.445-9.251c15.655 0 27.041 2.846 32.022 8.539 5.693 5.693 7.828 17.079 7.828 34.157v6.404h-60.486c0 2.135 0 3.558 0 4.27 0 8.539 1.423 14.944 4.27 17.79s7.828 4.27 16.367 4.27c7.828 0 12.809-0.712 15.655-2.846 2.135-1.423 3.558-4.981 3.558-10.674zM2837.17 917.259v-3.558c0-7.116-1.423-12.097-3.558-14.232s-7.828-2.846-16.367-2.846c-7.828 0-13.521 1.423-15.655 3.558-2.135 2.846-3.558 7.828-3.558 17.079h39.138z"></path>
			<path class="path26" d="M2951.739 906.585h-21.348c0-0.712 0-1.423 0-1.423-0.712-4.27-1.423-7.116-3.558-7.828s-7.116-1.423-14.944-1.423c-11.386 0-17.079 3.558-17.079 10.674 0 4.981 0.712 7.828 2.846 8.539s8.539 1.423 19.925 2.135c15.655 0.712 25.618 2.846 29.887 6.404s7.116 9.962 7.116 20.637c0 10.674-2.846 18.502-9.251 22.771s-17.079 6.404-33.445 6.404c-15.655 0-25.618-2.135-31.311-5.693s-8.539-10.674-8.539-21.348v-2.135h22.060c0 1.423-0.712 2.135-0.712 2.846-0.712 7.828 4.981 12.097 18.502 12.097s20.637-4.27 20.637-12.097c0-7.828-4.27-11.386-12.809-11.386-19.213 0-32.022-2.135-37.715-5.693-6.404-3.558-9.251-11.386-9.251-22.771 0-9.962 2.846-17.079 8.539-20.637s16.367-5.693 32.022-5.693c14.944 0 24.906 1.423 29.887 4.981 5.693 3.558 8.539 10.674 8.539 20.637z"></path>
			<path class="path27" d="M11.386 230.56h171.497v171.497h-171.497v-171.497z"></path>
			<path class="path28" d="M231.983 230.56h2724.025v171.497h-2724.025v-171.497z"></path>
			<path class="path29" d="M231.983 9.962h171.497v171.497h-171.497v-171.497z"></path>
		</symbol>
		<symbol id="logo-white" viewBox="0 0 2965 1024">
			<title>logo-white</title>
			<path class="path1" d="M515.914 489.584l-77.565 289.623h-81.123l-40.562-148.014c-3.558-13.521-7.828-31.311-12.809-54.082l-4.27-17.79h-2.135l-8.539 35.58c-2.846 12.097-6.404 24.195-9.251 36.292l-41.273 148.014h-79.7l-74.719-289.623h56.217l41.985 158.688c2.846 9.962 5.693 24.195 9.251 41.985l8.539 42.696h2.135c2.135-9.251 4.27-16.367 4.981-21.348l4.981-20.637c2.846-10.674 6.404-24.906 11.386-41.985l44.831-158.688h64.756l43.408 158.688c3.558 13.521 7.116 27.753 10.674 41.985l4.981 20.637 4.981 21.348h1.423l4.981-21.348 4.27-21.348c3.558-17.079 7.116-31.311 9.962-42.696l42.696-158.688h55.505z"></path>
			<path class="path2" d="M716.587 723.703h-124.531l-17.79 55.505h-58.352l96.067-289.623h82.546l97.49 289.623h-56.928l-18.502-55.505zM703.778 683.141l-49.812-150.86-49.101 150.86h98.913z"></path>
			<path class="path3" d="M1031.828 574.265h-53.37c0-2.846-0.712-4.981-0.712-5.693-1.423-16.367-4.981-26.329-10.674-30.599s-19.925-6.404-41.985-6.404c-26.329 0-42.696 2.135-51.236 7.116-7.828 4.981-12.097 14.944-12.097 30.599 0 18.502 3.558 29.176 9.962 32.734s27.753 6.404 64.756 8.539c43.408 2.135 71.161 8.539 83.969 18.502s19.213 30.599 19.213 61.91c0 38.427-7.116 63.333-22.060 74.719s-47.678 17.079-98.202 17.079c-45.543 0-75.43-5.693-90.374-16.367s-22.060-33.445-22.060-66.891v-10.674h53.37v6.404c0 19.925 3.558 32.734 10.674 37.003s26.329 7.116 57.64 7.116c24.906 0 40.562-2.846 46.966-7.828s9.962-17.079 9.962-36.292c0-14.232-2.846-23.483-7.828-27.753s-16.367-7.116-33.445-8.539l-30.599-2.135c-45.543-2.846-74.719-9.251-87.527-19.213s-19.213-31.311-19.213-64.756c0-33.445 7.828-56.217 22.771-67.603 15.655-11.386 46.254-17.079 91.797-17.079 43.408 0 72.584 4.981 88.239 15.655 14.944 9.962 22.771 30.599 22.771 60.486v9.962z"></path>
			<path class="path4" d="M1191.939 538.685v239.811h-54.794v-239.811h-83.258v-49.101h224.867v49.101h-86.816z"></path>
			<path class="path5" d="M1355.608 535.839v74.719h135.917v40.562h-135.917v81.835h144.456v46.254h-199.249v-289.623h197.826v46.254h-143.033z"></path>
			<path class="path6" d="M1879.35 489.584v289.623h-54.794v-157.976c0-12.809 0-27.041 0.712-42.696l1.423-42.696h-1.423l-12.809 39.85c-5.693 17.79-10.674 31.311-13.521 39.85l-63.333 162.958h-49.812l-64.044-162.246c-3.558-9.251-8.539-22.060-14.232-39.85l-12.809-39.85h-1.423l0.712 20.637 0.712 21.348c0.712 16.367 1.423 30.599 1.423 41.985v157.976h-54.794v-288.912h89.662l51.947 133.782c3.558 9.251 8.539 22.771 14.232 39.85l12.809 39.85h2.135l12.809-39.85c4.981-17.079 9.962-29.887 13.521-39.85l50.524-134.493h90.374z"></path>
			<path class="path7" d="M2104.928 723.703h-124.531l-17.79 55.505h-58.352l96.067-289.623h82.546l97.49 289.623h-56.928l-18.502-55.505zM2092.12 683.141l-49.812-150.86-49.101 150.86h98.913z"></path>
			<path class="path8" d="M2320.545 538.685v239.811h-54.794v-239.811h-83.258v-49.101h224.867v49.101h-86.816z"></path>
			<path class="path9" d="M2613.726 676.025h54.794v9.962c0 40.562-7.116 66.179-22.060 78.277s-46.966 17.79-97.49 17.79c-56.928 0-92.509-9.251-105.318-27.753s-19.925-68.314-19.925-149.437c0-47.678 9.251-78.988 27.041-93.932s54.794-22.771 111.722-22.771c41.273 0 69.026 6.404 82.546 18.502s20.637 37.003 20.637 74.007v6.404h-54.082v-7.116c0-19.213-3.558-31.311-10.674-36.292s-23.483-7.828-49.101-7.828c-34.157 0-54.794 4.27-61.198 12.809-7.116 8.539-9.962 32.734-9.962 74.007 0 55.505 2.846 88.239 9.251 98.202s26.329 14.944 59.775 14.944c27.041 0 44.831-2.846 53.37-8.539 7.828-5.693 12.097-17.79 12.097-37.003l-1.423-14.232z"></path>
			<path class="path10" d="M2948.892 489.584v289.623h-54.794v-125.243h-135.917v125.243h-54.794v-289.623h54.794v118.126h135.917v-118.126h54.794z"></path>
			<path class="path11" d="M1578.341 843.252v128.089h-21.348v-128.089h21.348z"></path>
			<path class="path12" d="M1621.037 843.252v17.79h-21.348v-17.79h21.348zM1621.037 881.679v89.662h-21.348v-89.662h21.348z"></path>
			<path class="path13" d="M1641.673 881.679h21.348l-0.712 14.944h0.712c4.27-10.674 13.521-16.367 28.464-16.367 21.348 0 32.022 9.962 32.022 29.887v61.198h-21.348v-57.64l-0.712-6.404c-0.712-6.404-6.404-9.962-15.655-9.962-14.232 0-21.348 7.116-21.348 20.637v53.37h-21.348v-89.662z"></path>
			<path class="path14" d="M1765.493 843.252v73.295h5.693l24.195-34.869h24.906l-31.311 41.985 37.715 47.678h-26.329l-29.176-39.85h-4.981v39.85h-21.348v-128.089h20.637z"></path>
			<path class="path15" d="M1858.001 843.252v17.79h-21.348v-17.79h21.348zM1858.001 881.679v89.662h-21.348v-89.662h21.348z"></path>
			<path class="path16" d="M1878.638 881.679h21.348l-0.712 14.944h0.712c4.27-10.674 13.521-16.367 28.464-16.367 21.348 0 32.022 9.962 32.022 29.887v61.198h-21.348v-57.64l-0.712-6.404c-0.712-6.404-6.404-9.962-15.655-9.962-14.232 0-21.348 7.116-21.348 20.637v53.37h-21.348v-89.662z"></path>
			<path class="path17" d="M2060.809 881.679v91.085c0 14.944-2.846 24.906-8.539 29.887-5.693 5.693-17.079 7.828-32.734 7.828s-25.618-2.135-30.599-6.404-7.828-12.097-7.828-24.195h20.637c0 5.693 1.423 9.251 3.558 11.386 2.135 1.423 7.116 2.135 14.944 2.135 13.521 0 19.925-5.693 19.925-16.367v-19.925h-0.712c-3.558 9.251-12.809 14.232-26.329 14.232s-22.771-3.558-27.753-9.962c-4.981-6.404-7.116-18.502-7.116-37.003 0-17.079 2.135-28.464 7.116-34.869s14.232-9.962 27.041-9.962c14.232 0 23.483 4.981 27.753 15.655h0.712l-0.712-14.944h20.637zM2018.824 898.046c-8.539 0-13.521 1.423-15.655 4.981s-3.558 10.674-3.558 22.771c0 12.809 1.423 20.637 3.558 24.195s7.828 4.981 16.367 4.981 14.232-2.135 16.367-5.693c2.846-3.558 3.558-11.386 3.558-24.195 0-12.097-1.423-19.213-3.558-22.771s-8.539-4.27-17.079-4.27z"></path>
			<path class="path18" d="M2130.546 881.679h21.348l-1.423 12.809h0.712c4.981-9.251 13.521-14.232 24.195-14.232 15.655 0 23.483 9.962 23.483 29.887v6.404h-19.925c0-2.135 0.712-4.27 0.712-4.981 0-9.251-3.558-14.232-11.386-14.232-10.674 0-15.655 7.116-15.655 21.348v52.659h-21.348v-89.662z"></path>
			<path class="path19" d="M2268.598 942.877h21.348v3.558c0 17.79-12.809 26.329-39.138 26.329-17.79 0-29.176-2.846-34.869-9.251s-8.539-19.213-8.539-38.427c0-17.79 2.846-29.176 8.539-34.869s17.079-9.251 33.445-9.251c15.655 0 27.041 2.846 32.022 8.539 5.693 5.693 7.828 17.079 7.828 34.157v6.404h-60.486c0 2.135 0 3.558 0 4.27 0 8.539 1.423 14.944 4.27 17.79s7.828 4.27 16.367 4.27c7.828 0 12.809-0.712 15.655-2.846 2.846-1.423 3.558-4.981 3.558-10.674zM2268.598 917.259v-3.558c0-7.116-1.423-12.097-3.558-14.232s-7.828-2.846-16.367-2.846c-7.828 0-13.521 1.423-15.655 3.558-2.135 2.846-3.558 7.828-3.558 17.079h39.138z"></path>
			<path class="path20" d="M2383.166 906.585h-21.348c0-0.712 0-1.423 0-1.423-0.712-4.27-1.423-7.116-3.558-7.828s-7.116-1.423-14.944-1.423c-11.386 0-17.079 3.558-17.079 10.674 0 4.981 0.712 7.828 2.846 8.539s8.539 1.423 19.925 2.135c15.655 0.712 25.618 2.846 29.887 6.404s7.116 9.962 7.116 20.637c0 10.674-2.846 18.502-9.251 22.771s-17.079 6.404-33.445 6.404c-15.655 0-25.618-2.135-31.311-5.693s-8.539-10.674-8.539-21.348v-2.135h22.060c0 1.423-0.712 2.135-0.712 2.846-0.712 7.828 4.981 12.097 18.502 12.097s20.637-4.27 20.637-12.097c0-7.828-4.27-11.386-12.809-11.386-19.213 0-32.022-2.135-37.715-5.693-6.404-3.558-9.251-11.386-9.251-22.771 0-9.962 2.846-17.079 8.539-20.637s16.367-5.693 32.022-5.693c14.944 0 24.906 1.423 29.887 4.981 5.693 3.558 8.539 10.674 8.539 20.637z"></path>
			<path class="path21" d="M2442.941 880.967c17.079 0 28.464 2.846 34.157 8.539s7.828 17.079 7.828 34.869c0 19.925-2.846 32.734-7.828 39.138s-16.367 9.251-33.445 9.251c-18.502 0-29.887-2.846-35.58-8.539s-7.828-18.502-7.828-37.715c0-18.502 2.846-31.311 7.828-37.003s17.079-8.539 34.869-8.539zM2442.229 898.046c-9.251 0-14.944 1.423-17.079 4.981s-3.558 10.674-3.558 22.771c0 13.521 1.423 22.060 3.558 25.618s7.828 4.981 17.079 4.981c9.251 0 14.232-2.135 17.079-5.693 2.135-3.558 3.558-12.097 3.558-25.618 0-11.386-1.423-18.502-3.558-22.060s-7.828-4.981-17.079-4.981z"></path>
			<path class="path22" d="M2582.416 881.679v89.662h-21.348l1.423-15.655h-0.712c-4.27 10.674-13.521 16.367-29.176 16.367-20.637 0-30.599-9.962-30.599-30.599v-60.486h21.348v54.794c0 7.828 0.712 12.809 2.846 14.944s6.404 3.558 13.521 3.558c13.521 0 20.637-8.539 20.637-24.906v-49.101h22.060z"></path>
			<path class="path23" d="M2604.475 881.679h21.348l-1.423 12.809h0.712c4.981-9.251 13.521-14.232 24.195-14.232 15.655 0 23.483 9.962 23.483 29.887v6.404h-19.925c0-2.135 0.712-4.27 0.712-4.981 0-9.251-3.558-14.232-11.386-14.232-10.674 0-15.655 7.116-15.655 21.348v52.659h-21.348v-89.662z"></path>
			<path class="path24" d="M2742.527 937.184h21.348v2.846l-1.423 13.521c-2.846 12.097-15.655 18.502-38.427 18.502-17.079 0-28.464-2.846-33.445-9.251-5.693-6.404-8.539-18.502-8.539-37.003 0-17.79 2.846-29.887 8.539-36.292s16.367-9.251 32.734-9.251c15.655 0 26.329 2.135 31.311 7.116 5.693 4.27 8.539 12.809 8.539 25.618h-21.348c0-10.674-5.693-15.655-17.79-15.655-8.539 0-14.232 1.423-16.367 4.981s-3.558 11.386-3.558 24.195c0 12.809 1.423 20.637 3.558 23.483 2.135 3.558 8.539 4.981 17.79 4.981 7.116 0 12.097-1.423 14.232-3.558 1.423-1.423 2.846-6.404 2.846-14.232z"></path>
			<path class="path25" d="M2837.17 942.877h21.348v3.558c0 17.79-12.809 26.329-39.138 26.329-17.79 0-29.176-2.846-34.869-9.251s-8.539-19.213-8.539-38.427c0-17.79 2.846-29.176 8.539-34.869s17.079-9.251 33.445-9.251c15.655 0 27.041 2.846 32.022 8.539 5.693 5.693 7.828 17.079 7.828 34.157v6.404h-60.486c0 2.135 0 3.558 0 4.27 0 8.539 1.423 14.944 4.27 17.79s7.828 4.27 16.367 4.27c7.828 0 12.809-0.712 15.655-2.846 2.135-1.423 3.558-4.981 3.558-10.674zM2837.17 917.259v-3.558c0-7.116-1.423-12.097-3.558-14.232s-7.828-2.846-16.367-2.846c-7.828 0-13.521 1.423-15.655 3.558-2.135 2.846-3.558 7.828-3.558 17.079h39.138z"></path>
			<path class="path26" d="M2951.739 906.585h-21.348c0-0.712 0-1.423 0-1.423-0.712-4.27-1.423-7.116-3.558-7.828s-7.116-1.423-14.944-1.423c-11.386 0-17.079 3.558-17.079 10.674 0 4.981 0.712 7.828 2.846 8.539s8.539 1.423 19.925 2.135c15.655 0.712 25.618 2.846 29.887 6.404s7.116 9.962 7.116 20.637c0 10.674-2.846 18.502-9.251 22.771s-17.079 6.404-33.445 6.404c-15.655 0-25.618-2.135-31.311-5.693s-8.539-10.674-8.539-21.348v-2.135h22.060c0 1.423-0.712 2.135-0.712 2.846-0.712 7.828 4.981 12.097 18.502 12.097s20.637-4.27 20.637-12.097c0-7.828-4.27-11.386-12.809-11.386-19.213 0-32.022-2.135-37.715-5.693-6.404-3.558-9.251-11.386-9.251-22.771 0-9.962 2.846-17.079 8.539-20.637s16.367-5.693 32.022-5.693c14.944 0 24.906 1.423 29.887 4.981 5.693 3.558 8.539 10.674 8.539 20.637z"></path>
			<path class="path27" d="M11.386 230.56h171.497v171.497h-171.497v-171.497z"></path>
			<path class="path28" d="M231.983 230.56h2724.025v171.497h-2724.025v-171.497z"></path>
			<path class="path29" d="M231.983 9.962h171.497v171.497h-171.497v-171.497z"></path>
		</symbol>
		<symbol id="users" viewBox="0 0 1024 1024">
			<title>users</title>
			<path class="path1" d="M617.94 229.029c47.347 29.686 80.548 79.921 86.592 138.233 19.309 9.022 40.74 14.211 63.462 14.211 82.95 0 150.182-67.232 150.182-150.169 0-82.95-67.232-150.182-150.182-150.182-82.158 0.026-148.801 66.056-150.054 147.907zM519.553 536.523c82.95 0 150.182-67.244 150.182-150.182s-67.244-150.169-150.182-150.169c-82.937 0-150.207 67.244-150.207 150.182s67.27 150.169 150.207 150.169zM583.257 546.76h-127.435c-106.029 0-192.289 86.273-192.289 192.302v155.843l0.396 2.441 10.735 3.361c101.186 31.616 189.094 42.159 261.45 42.159 141.326 0 223.24-40.293 228.288-42.862l10.032-5.073h1.073v-155.868c0.038-106.029-86.221-192.302-192.251-192.302zM831.724 391.722h-126.451c-1.367 50.593-22.964 96.151-57.123 128.917 94.247 28.025 163.204 115.422 163.204 218.653v48.024c124.853-4.575 196.8-39.961 201.541-42.338l10.032-5.086h1.073v-155.894c0-106.017-86.26-192.276-192.276-192.276zM256.032 381.498c29.379 0 56.714-8.575 79.87-23.182 7.361-48.012 33.098-89.966 69.864-118.54 0.153-2.811 0.422-5.597 0.422-8.434 0-82.95-67.244-150.182-150.156-150.182-82.963 0-150.182 67.232-150.182 150.182 0 82.912 67.219 150.156 150.182 150.156zM390.904 520.639c-33.993-32.6-55.513-77.915-57.085-128.201-4.69-0.345-9.329-0.716-14.108-0.716h-127.422c-106.029 0-192.289 86.26-192.289 192.276v155.868l0.396 2.402 10.735 3.386c81.174 25.341 153.619 37.021 216.544 40.702v-47.066c0.026-103.231 68.957-190.602 163.229-218.653z"></path>
		</symbol>
		<symbol id="next" viewBox="0 0 1024 1024">
			<title>next</title>
			<path class="path1" d="M750.442 511.995l-460.811 512.005-16.073-14.472 447.756-497.533-447.756-497.533 16.062-14.462 460.822 511.995z"></path>
		</symbol>
		<symbol id="pin" viewBox="0 0 1024 1024">
			<title>pin</title>
			<path class="path1" d="M512.002 0c-186.768 0-338.714 151.947-338.714 338.712 0 75.223 48.035 197.862 146.842 374.927 69.892 125.235 138.634 229.658 141.522 234.041l50.35 76.32 50.348-76.318c2.89-4.385 71.637-108.806 141.52-234.041 98.811-177.067 146.842-299.704 146.842-374.927 0.002-186.768-151.945-338.714-338.71-338.714zM512.002 512c-96.966 0-175.575-78.607-175.575-175.575s78.609-175.575 175.575-175.575c96.966 0 175.575 78.607 175.575 175.575s-78.611 175.575-175.575 175.575z"></path>
		</symbol>
		<symbol id="play" viewBox="0 0 1024 1024">
			<title>play</title>
			<path class="path1" d="M937.186 468.823l-801.028-462.195c-32.896-18.915-74.017 4.934-74.017 42.765v925.212c0 37.831 41.121 61.681 74.017 42.765l801.028-462.195c32.896-19.746 32.896-67.438 0-86.353z"></path>
		</symbol>
		<symbol id="previous" viewBox="0 0 1024 1024">
			<title>previous</title>
			<path class="path1" d="M302.657 512l447.782 497.527-16.063 14.473-460.816-512 460.816-512 16.063 14.473-447.782 497.527z"></path>
		</symbol>
		<symbol id="facebook" viewBox="0 0 1024 1024">
			<title>facebook</title>
			<path class="path1" d="M512 0c-282.782 0-512 229.218-512 512s229.218 512 512 512c282.782 0 512-229.218 512-512s-229.218-512-512-512zM512 944c-238.594 0-432-193.406-432-432s193.406-432 432-432 432 193.406 432 432-193.406 432-432 432z"></path>
			<path class="path2" d="M633.5 433.624h-89.062v-65c0-19.938 20.624-24.562 30.25-24.562 9.562 0 57.534 0 57.534 0v-87.718l-65.94-0.344c-89.966 0-110.5 65.406-110.5 107.344v70.282h-65.282v90.374h65.282c0 116.032 0 244 0 244h88.656c0 0 0-129.282 0-244h75.312l13.75-90.376z"></path>
		</symbol>
		<symbol id="linkedin" viewBox="0 0 1024 1024">
			<title>linkedin</title>
			<path class="path1" d="M512 0c-282.782 0-512 229.218-512 512s229.218 512 512 512c282.782 0 512-229.218 512-512s-229.218-512-512-512zM512 944c-238.594 0-432-193.406-432-432s193.406-432 432-432 432 193.406 432 432-193.406 432-432 432z"></path>
			<path class="path2" d="M256.188 767.782h96v-384h-96v384zM640.188 383.782c-82.188 1.376-122.624 61.282-128 64v-64h-96v384h96v-224c0-8.216 20.25-74 96-64 40.688 2.656 62.624 56.468 64 64v224l95.624 0.438v-265.844c-3.374-38.376-22.562-117.22-127.624-118.594zM304.188 255.782c-26.5 0-48 21.468-48 48s21.5 48 48 48 48-21.468 48-48-21.5-48-48-48z"></path>
		</symbol>
		<symbol id="twitter" viewBox="0 0 1024 1024">
			<title>twitter</title>
			<path class="path1" d="M512 0c-282.782 0-512 229.218-512 512 0 282.784 229.218 512 512 512 282.784 0 512-229.216 512-512 0-282.782-229.216-512-512-512zM512 944c-238.594 0-432-193.404-432-432 0-238.594 193.406-432 432-432 238.596 0 432 193.406 432 432 0 238.596-193.404 432-432 432z"></path>
			<path class="path2" d="M768 341.844c-8.624 5.124-34.496 15.342-58.624 17.906 15.47-8.982 38.376-38.406 44.032-61.78-14.872 10.218-49.032 25.124-65.9 25.124 0 0 0 0.046 0.032 0.078-19.258-21.672-46.324-35.172-76.386-35.172-58.308 0-105.62 50.922-105.62 113.75 0 8.72 0.962 17.19 2.714 25.344h-0.034c-79.124-2.188-171.622-44.892-223.748-118-32 59.704-4.312 126.092 32.030 150.282-12.406 1.032-35.342-1.532-46.122-12.814-0.75 39.594 16.968 92.096 81.47 111.124-12.442 7.22-34.38 5.158-43.968 3.562 3.374 33.5 46.874 77.246 94.404 77.246-16.94 21.068-74.746 59.412-146.282 47.192 48.598 31.878 105.252 50.314 165.218 50.314 170.41 0 302.752-148.718 295.628-332.186 0-0.22-0.062-0.438-0.062-0.626 0-0.5 0.062-1 0.062-1.438 0-0.562-0.062-1.124-0.062-1.718 15.5-11.376 36.31-31.564 51.218-58.188z"></path>
		</symbol>
		<symbol id="mail" viewBox="0 0 1024 1024">
			<title>mail</title>
			<path class="path1" d="M81.613 270.643c24.986 13.466 371.149 199.373 384.051 206.285 12.851 6.912 29.542 10.24 46.336 10.24 16.845 0 33.536-3.328 46.387-10.291 12.902-6.912 359.014-192.819 384-206.285 25.037-13.414 48.691-55.552 2.765-55.552h-866.253c-45.926 0-22.323 42.138 2.714 55.603zM952.986 373.043c-28.416 14.848-377.19 197.171-394.598 206.285s-29.542 10.291-46.387 10.291c-16.794 0-28.928-1.178-46.336-10.291s-366.234-191.488-394.598-206.285c-20.019-10.445-19.866 1.792-19.866 11.213s0 375.552 0 375.552c0 21.504 28.621 49.152 50.79 49.152h820.070c22.221 0 50.739-27.648 50.739-49.101 0 0 0-366.131 0-375.552 0-9.472 0.205-21.709-19.814-11.264z"></path>
		</symbol>
		<symbol id="lock" viewBox="0 0 1024 1024">
			<title>lock</title>
			<path class="path1" d="M809.011 409.702h-92.211v-71.68c0-148.326-68.301-235.52-204.8-235.52-136.448 0-204.8 87.194-204.8 235.52v71.68h-102.4c-28.262 0-51.2 33.126-51.2 61.44v399.36c0 28.16 21.965 58.317 48.742 66.918l61.235 19.814c26.778 8.653 71.731 15.718 99.942 15.718h296.96c28.16 0 73.165-7.066 99.942-15.718l61.235-19.814c26.829-8.602 48.742-38.758 48.742-66.918v-399.36c0-28.314-33.126-61.44-61.389-61.44zM409.6 317.542c0-73.984 40.858-112.64 102.4-112.64 61.594 0 102.4 38.656 102.4 112.64v92.16h-204.8v-92.16z"></path>
		</symbol>
		<symbol id="user" viewBox="0 0 1024 1024">
			<title>user</title>
			<path class="path1" d="M758.784 739.738c-126.208-45.978-166.554-84.787-166.554-167.885 0-49.869 38.554-33.587 55.45-124.928 7.014-37.888 41.062-0.614 47.616-87.091 0-34.458-18.586-43.059-18.586-43.059s9.472-51.046 13.158-90.266c4.506-48.947-28.262-175.309-203.469-175.309-175.155 0-208.026 126.362-203.418 175.309 3.686 39.219 13.158 90.266 13.158 90.266s-18.637 8.55-18.637 43.059c6.502 86.477 40.55 49.203 47.565 87.091 16.947 91.341 55.501 75.059 55.501 124.928 0 83.098-40.346 121.907-166.554 167.885-126.669 46.080-208.896 93.133-208.896 125.235 0 32.051 0 107.776 0 107.776h962.56c0 0 0-75.725 0-107.776s-82.278-79.104-208.896-125.235z"></path>
		</symbol>
		<symbol id="dashboard" viewBox="0 0 1024 1024">
			<title>dashboard</title>
			<path class="path1" d="M488.369 379.164c0 60.306-48.9 109.206-109.206 109.206h-269.958c-60.306 0-109.206-48.9-109.206-109.206v-269.942c0-60.321 48.9-109.221 109.206-109.221h269.974c60.306 0 109.206 48.9 109.206 109.206l-0.016 269.958zM425.354 109.221c0-25.521-20.685-46.206-46.19-46.206h-269.958c-25.505 0-46.19 20.685-46.19 46.206v269.974c0 25.505 20.685 46.19 46.19 46.19h269.974c25.505 0 46.19-20.685 46.19-46.19l-0.016-269.974z"></path>
			<path class="path2" d="M126.031 252.062c-8.712 0-15.754-7.042-15.754-15.754v-28.388c0-43.638 29.113-81.888 69.144-81.888h98.146c8.696 0 15.754 7.042 15.754 15.754s-7.058 15.754-15.754 15.754h-98.146c-24.576 0-37.636 27.097-37.636 50.397v28.373c0 8.712-7.058 15.754-15.754 15.754z"></path>
			<path class="path3" d="M120.029 306.113c-4.112 0-8.208-1.733-11.185-4.569-2.851-2.977-4.569-7.089-4.569-11.185s1.717-8.192 4.569-11.185c5.986-5.829 16.368-5.829 22.37 0 2.836 2.993 4.569 7.089 4.569 11.185s-1.733 8.208-4.569 11.028c-2.993 2.962-7.089 4.726-11.185 4.726z"></path>
			<path class="path4" d="M1024 379.164c0 60.306-48.9 109.206-109.206 109.206h-269.958c-60.306 0-109.206-48.9-109.206-109.206v-269.942c0-60.321 48.9-109.221 109.206-109.221h269.974c60.306 0 109.221 48.9 109.221 109.206l-0.032 269.958zM960.985 109.221c0-25.521-20.669-46.206-46.19-46.206h-269.958c-25.521 0-46.19 20.685-46.19 46.206v269.974c0 25.505 20.669 46.19 46.19 46.19h269.974c25.505 0 46.206-20.685 46.206-46.19l-0.032-269.974z"></path>
			<path class="path5" d="M488.369 914.81c0 60.306-48.9 109.19-109.206 109.19h-269.958c-60.306 0-109.206-48.884-109.206-109.19v-269.974c0-60.306 48.9-109.206 109.206-109.206h269.974c60.306 0 109.206 48.9 109.206 109.206l-0.016 269.974zM425.354 644.836c0-25.505-20.685-46.19-46.19-46.19h-269.958c-25.505 0-46.19 20.685-46.19 46.19v269.974c0 25.505 20.685 46.206 46.19 46.206h269.974c25.505 0 46.19-20.685 46.19-46.206l-0.016-269.974z"></path>
			<path class="path6" d="M1024 914.81c0 60.306-48.9 109.19-109.206 109.19h-269.958c-60.306 0-109.206-48.884-109.206-109.19v-269.974c0-60.306 48.9-109.206 109.206-109.206h269.974c60.306 0 109.221 48.9 109.221 109.206l-0.032 269.974zM960.985 644.836c0-25.505-20.669-46.19-46.19-46.19h-269.958c-25.521 0-46.19 20.685-46.19 46.19v269.974c0 25.505 20.669 46.206 46.19 46.206h269.974c25.505 0 46.206-20.685 46.206-46.206l-0.032-269.974z"></path>
		</symbol>
		<symbol id="action-list" viewBox="0 0 1024 1024">
			<title>action list</title>
			<path class="path1" d="M865.322 73.24h-161.088l10.868 50.288c1.337 6.243 1.271 12.511 0.571 18.678h115.16v812.831h-637.735v-812.831h115.193c-0.7-6.201-0.734-12.469 0.601-18.745l10.871-50.221h-161.115c-19.040 0-34.45 15.441-34.45 34.48v881.799c0 19.009 15.41 34.48 34.45 34.48h706.674c19.040 0 34.48-15.477 34.48-34.48v-881.797c0.002-19.040-15.439-34.482-34.48-34.482z"></path>
			<path class="path2" d="M749.658 322.469h-235.523c-19.074 0-34.482 15.441-34.482 34.45 0 19.049 15.41 34.482 34.482 34.482h235.523c19.074 0 34.48-15.433 34.48-34.482 0.004-19.009-15.406-34.45-34.48-34.45z"></path>
			<path class="path3" d="M749.658 533.946h-235.523c-19.074 0-34.482 15.439-34.482 34.48 0 19.019 15.41 34.486 34.482 34.486h235.523c19.074 0 34.48-15.475 34.48-34.486 0.004-19.040-15.406-34.48-34.48-34.48z"></path>
			<path class="path4" d="M252.065 330.571c-14.543 12.271-16.416 34.022-4.143 48.591l50.294 59.603c6.572 7.799 16.209 12.239 26.346 12.239 0.839 0 1.67-0.034 2.536-0.099 11.003-0.799 20.976-6.869 26.782-16.274l90.477-146.481c10.006-16.209 5.007-37.423-11.2-47.421-16.209-10.072-37.423-5.007-47.431 11.202l-65.498 105.993-19.61-23.217c-12.277-14.569-33.984-16.439-48.555-4.134z"></path>
			<path class="path5" d="M334.636 516.742c-28.576 0-51.728 23.145-51.728 51.69 0 28.553 23.15 51.697 51.728 51.697 28.553 0 51.697-23.143 51.697-51.697 0-28.549-23.143-51.69-51.697-51.69z"></path>
			<path class="path6" d="M749.658 740.784h-235.523c-19.074 0-34.482 15.41-34.482 34.488 0 19.011 15.41 34.45 34.482 34.45h235.523c19.074 0 34.48-15.439 34.48-34.45 0.004-19.080-15.406-34.488-34.48-34.488z"></path>
			<path class="path7" d="M334.636 723.58c-28.576 0-51.728 23.143-51.728 51.697 0 28.545 23.15 51.699 51.728 51.699 28.553 0 51.697-23.147 51.697-51.699 0-28.553-23.143-51.697-51.697-51.697z"></path>
			<path class="path8" d="M365.719 159.418h292.49c7.17 0 13.942-3.207 18.44-8.804 4.506-5.543 6.243-12.871 4.699-19.882l-24.208-112.054c-2.366-10.904-12.001-18.678-23.145-18.678h-244.030c-11.134 0-20.771 7.776-23.143 18.678l-24.246 112.054c-1.465 7.008 0.264 14.339 4.737 19.882 4.501 5.6 11.273 8.804 18.406 8.804z"></path>
		</symbol>
		<symbol id="options" viewBox="0 0 1024 1024">
			<title>options</title>
			<path class="path1" d="M506.47 656.746c-79.809 0-144.746-64.922-144.746-144.746 0-79.809 64.922-144.746 144.746-144.746 79.793 0 144.746 64.937 144.746 144.746 0 79.825-64.937 144.746-144.746 144.746zM506.47 430.269c-45.056 0-81.731 36.659-81.731 81.731s36.659 81.731 81.731 81.731 81.731-36.643 81.731-81.731c0-45.056-36.659-81.731-81.731-81.731z"></path>
			<path class="path2" d="M510.629 1024h-3.040c-57.502 0-109.615-43.292-128-103.534-24.592-7.625-48.49-17.566-71.459-29.633-23.599 13.265-49.703 20.433-75.256 20.433-32.941 0-63.252-12.178-85.354-34.296l-2.71-2.883c-40.031-39.999-46.064-107.473-16.289-163.147-11.847-22.686-20.070-46.883-27.853-72.231-60.337-18.227-100.667-68.151-100.667-124.755v-3.056c0-56.808 40.298-107.047 100.573-125.495 8.176-27.065 17.376-51.83 29.554-74.91-30.61-55.154-26.025-119.792 13.974-159.807l1.985-2.19c23.032-23.032 55.044-35.745 90.285-35.745 25.647 0 51.373 6.68 74.311 19.078 21.488-11.106 43.811-20.354 66.733-27.616 15.785-60.684 68.513-104.212 130.174-104.212h3.040c60.778 0 110.75 42.756 125.401 104.369 23.237 7.389 45.828 16.778 67.552 28.089 22.040-12.918 47.12-19.881 72.42-19.881 35.635 0 68.813 13.548 93.452 38.156l1.623 1.497c43.67 43.654 48.9 109.269 15.785 163.115 11.485 21.961 22.638 44.316 29.885 66.828 61.503 14.557 107.284 66.67 107.284 128.725v3.040c0 61.724-45.765 113.538-107.362 127.937-6.9 21-16.809 42.394-28.058 63.992 32.5 54.225 25.805 122.707-18.211 166.739l-2.3 3.356c-23.631 23.584-55.233 37.762-88.568 37.762h0.032c-25.222 0-50.617-8.649-73.334-22.37-23.158 12.272-47.309 21.74-72.2 29.507-17.061 61.204-66.402 103.14-123.4 103.14zM306.932 822.65c5.498 0 10.98 1.418 15.911 4.301 28.688 16.762 59.345 29.507 91.057 37.809 11.973 3.104 21 12.965 23.079 25.175 6.79 39.857 37.793 71.050 70.593 71.050h3.040c35.935 0 60.148-35.478 65.441-70.53 1.875-12.461 10.98-22.591 23.174-25.758 32.469-8.523 63.677-21.599 92.806-38.849 11.359-6.743 25.726-5.64 35.95 2.662 15.581 12.713 33.918 19.677 51.61 19.692v0c16.731 0 31.823-6.239 43.622-18.038l2.111-2.127c26.041-26.041 26.498-69.144 1.024-100.194-8.255-10.114-9.468-24.245-2.962-35.588 16.92-29.728 29.223-58.778 36.58-86.441 3.419-12.871 16.211-22.213 29.491-23.3 40.472-3.356 71.507-32.217 71.507-68.592v-3.025c0-36.817-31.067-65.993-71.554-69.459-13.249-1.119-25.206-10.445-28.609-23.3-7.94-29.917-20.984-59.896-37.967-89.072-6.617-11.406-5.64-25.726 2.741-35.903 25.962-31.46 26.592-70.829 1.686-95.752l-1.638-1.497c-13.407-13.359-30.783-20.354-49.577-20.354-18.117 0-36.202 6.522-50.869 18.337-10.161 8.192-24.34 9.279-35.635 2.71-28.089-16.352-58.147-28.83-89.324-37.1-12.761-3.356-22.055-14.32-23.316-27.443-3.923-40.645-31.145-69.049-66.276-69.049h-3.040c-36.439 0-67.174 29.854-71.444 69.427-1.402 12.965-10.65 23.725-23.268 27.081-30.484 8.066-59.959 20.212-87.623 36.092-10.713 6.176-24.072 5.482-34.107-1.764-15.927-11.485-35.919-18.054-54.855-18.054-18.416 0-34.706 6.16-45.875 17.329l-2.206 2.19c-25.206 25.206-17.44 67.222 3.245 95.689 7.42 10.193 8.050 23.836 1.591 34.658-16.479 27.648-29.003 58.4-38.298 93.972-3.104 11.894-11.185 20.89-23.3 23.048-39.952 7.121-68.435 36.47-68.435 68.246v3.025c0 31.445 28.451 60.416 68.372 67.395 12.146 2.143 21.094 11.138 24.214 23.095 8.617 32.989 20.779 63.756 36.99 91.451 6.254 10.697 5.467 24.056-1.717 34.154-23.489 33.067-23.867 77.099-0.709 100.226l2.647 2.851c12.398 12.383 28.688 15.139 40.078 15.139 18.448 0 38.628-7.089 55.375-19.456 5.53-4.096 12.083-6.16 18.668-6.16z"></path>
			<path class="path3" d="M775.152 425.196c-6.333 0-12.304-3.844-14.73-10.114-39.999-104.164-141.879-174.143-253.495-174.159-8.712 0-15.754-7.058-15.754-15.754s7.042-15.754 15.754-15.754v0c124.55 0 238.261 78.108 282.908 194.371 3.104 8.113-0.945 17.235-9.043 20.354-1.875 0.709-3.765 1.056-5.64 1.056z"></path>
			<path class="path4" d="M243.176 652.493c-5.341 0-10.555-2.725-13.501-7.625-3.135-5.199-4.537-9.043-7.058-16.069-1.213-3.324-2.757-7.593-5.010-13.501-3.119-8.129 0.945-17.235 9.058-20.338 8.113-3.135 17.235 0.961 20.354 9.043 2.347 6.16 3.97 10.618 5.215 14.1 2.3 6.302 2.962 8.082 4.427 10.492 4.49 7.483 2.095 17.156-5.356 21.63-2.568 1.56-5.372 2.269-8.129 2.269z"></path>
			<path class="path5" d="M500.515 809.669v0c-89.529 0-174.001-39.29-231.755-107.804-5.608-6.664-4.773-16.605 1.89-22.197 6.632-5.593 16.589-4.773 22.197 1.906 51.751 61.377 127.449 96.587 207.667 96.587 8.696 0 15.754 7.058 15.754 15.754 0 8.728-7.058 15.754-15.754 15.754z"></path>
		</symbol>
		<symbol id="assets" viewBox="0 0 1024 1024">
			<title>assets</title>
			<path class="path1" d="M891.892 173.396c-5.757-8.212-15.509-11.912-25.052-10.495-0.363-0.086-0.726-0.242-1.089-0.294l-390.827-57.366c-4.27-0.64-8.627-0.173-12.69 1.314l-313.025 114.733c-0.138 0.052-0.259 0.138-0.398 0.19-0.328 0.138-0.64 0.346-0.985 0.467-1.712 0.761-3.302 1.66-4.772 2.714-0.45 0.328-0.882 0.657-1.331 1.020-1.608 1.314-3.078 2.749-4.305 4.392-0.069 0.104-0.173 0.156-0.242 0.259l-132.178 180.813c-5.066 6.933-6.38 15.958-3.492 24.050 2.887 8.109 9.613 14.229 17.946 16.373l114.698 29.617v283.564c0 11.394 7.452 21.473 18.361 24.81l419.96 128.322c0.138 0.069 0.294 0.017 0.432 0.086 2.248 0.622 4.599 1.020 6.95 1.037 0.052 0 0.121 0.035 0.19 0.035v0h0.017c2.472 0 4.893-0.45 7.313-1.158 0.761-0.242 1.47-0.571 2.248-0.899 1.020-0.38 2.023-0.657 3.026-1.176l301.354-167.24c8.247-4.582 13.347-13.261 13.347-22.684v-283.512l101.938-48.929c6.864-3.285 11.93-9.457 13.866-16.823 1.919-7.383 0.519-15.215-3.856-21.456l-127.406-181.764zM473.903 157.524l305.054 44.78-202.355 94.089-320.442-59.043 217.743-79.825zM169.454 274.106l367.175 67.671-107.921 161.898-359.274-92.758 100.019-136.811zM186.017 745.554v-250.99l247.55 63.919c2.161 0.536 4.322 0.83 6.484 0.83 8.524 0 16.684-4.219 21.577-11.549l92.481-138.713v448.971l-368.092-112.468zM855.463 710.595l-249.503 138.436v-409.638l45.558 96.803c2.956 6.241 8.282 11.083 14.765 13.365 2.818 1.037 5.757 1.504 8.679 1.504 3.856 0 7.676-0.864 11.221-2.524l169.246-81.226 0.035 243.279zM687.341 490.466l-72.737-154.533 247.273-114.975 97.409 138.955-271.945 130.552z"></path>
		</symbol>
		<symbol id="logout" viewBox="0 0 1024 1024">
			<title>logout</title>
			<path class="path1" d="M462.871 1023.116h459.244c37.235 0 67.524-30.293 67.524-67.526v-887.18c0-37.235-30.291-67.526-67.524-67.526h-460.671c-20.915 0-37.87 16.955-37.87 37.87s16.955 37.87 37.87 37.87h452.457v870.754h-451.030c-20.915 0-37.87 16.955-37.87 37.87s16.955 37.868 37.87 37.868z"></path>
			<path class="path2" d="M922.115 1024h-459.244c-21.37 0-38.754-17.385-38.754-38.754s17.385-38.754 38.754-38.754h450.146v-868.984h-451.573c-21.37 0-38.754-17.385-38.754-38.754s17.385-38.754 38.754-38.754h460.671c37.722 0 68.408 30.689 68.408 68.41v887.18c0.002 37.722-30.687 68.41-68.408 68.41zM462.871 948.262c-20.394 0-36.986 16.592-36.986 36.986s16.592 36.986 36.986 36.986h459.244c36.746 0 66.64-29.895 66.64-66.642v-887.182c0.002-36.746-29.893-66.642-66.64-66.642h-460.671c-20.394 0-36.986 16.592-36.986 36.986s16.592 36.986 36.986 36.986h453.341v872.521h-451.914z"></path>
			<path class="path3" d="M487.258 227.579c-5.325-12.019-12.899-22.688-22.513-31.709-18.39-17.254-42.391-26.757-67.579-26.757 0 0-0.004 0-0.005 0-24.462 0-47.953 9.142-66.145 25.738l-264.58 241.341c-20.385 18.596-32.076 45.083-32.075 72.674 0 27.589 11.692 54.077 32.075 72.671l264.58 241.343c18.194 16.598 41.687 25.738 66.149 25.738 25.188 0 49.189-9.501 67.577-26.755 9.614-9.020 17.19-19.688 22.515-31.709 5.582-12.597 8.414-26.037 8.414-39.949v-34.91h246.709c54.238 0 98.365-44.127 98.365-98.367v-216.128c0-54.238-44.127-98.367-98.365-98.367h-246.709v-34.912c0-13.909-2.831-27.349-8.412-39.944zM742.379 378.177c12.493 0 22.625 10.129 22.625 22.625v216.13c0 12.494-10.131 22.627-22.625 22.627h-299.824c-12.496 0-22.625 10.129-22.625 22.625v88.026c0 13.56-11.108 22.671-22.766 22.671-5.244 0-10.599-1.842-15.107-5.955l-264.58-241.343c-9.837-8.972-9.837-24.456 0-33.432l264.578-241.341c4.507-4.111 9.864-5.953 15.107-5.955 11.658 0 22.766 9.11 22.766 22.671v88.026c0 12.494 10.129 22.627 22.627 22.627h299.824z"></path>
			<path class="path4" d="M397.164 849.504c-24.684 0-48.388-9.224-66.745-25.968l-264.58-241.343c-20.567-18.762-32.363-45.488-32.363-73.325s11.794-54.563 32.363-73.329l264.58-241.341c18.357-16.746 42.060-25.968 66.741-25.968 25.418 0 49.634 9.588 68.189 26.995 9.701 9.103 17.346 19.869 22.717 31.995 5.633 12.708 8.488 26.267 8.488 40.303v34.028h245.825c54.726 0 99.249 44.523 99.249 99.251v216.13c0 54.726-44.523 99.251-99.249 99.251h-245.825v34.026c0 14.034-2.857 27.595-8.49 40.306-5.373 12.128-13.018 22.894-22.719 31.995-18.553 17.408-42.767 26.993-68.182 26.993zM397.165 169.998c-24.244 0-47.523 9.059-65.555 25.507l-264.58 241.343c-20.201 18.428-31.786 44.679-31.786 72.020s11.586 53.591 31.786 72.019l264.58 241.343c18.030 16.447 41.311 25.507 65.553 25.507 24.964 0 48.748-9.416 66.971-26.514 9.529-8.941 17.036-19.511 22.314-31.42 5.532-12.485 8.338-25.807 8.338-39.592v-35.794h247.593c53.75 0 97.481-43.729 97.481-97.483v-216.13c0-53.752-43.729-97.483-97.481-97.483h-247.593v-35.796c0-13.787-2.804-27.107-8.336-39.587-5.276-11.909-12.782-22.482-22.312-31.422-18.226-17.098-42.011-26.516-66.973-26.516zM397.164 773.764c-5.838 0-11.267-2.139-15.703-6.186l-264.58-241.343c-4.873-4.443-7.666-10.774-7.666-17.367 0-6.595 2.795-12.926 7.666-17.372l264.578-241.341c4.434-4.045 9.865-6.184 15.703-6.186v0c11.373 0 23.65 9.006 23.65 23.555v88.026c0 11.989 9.754 21.743 21.743 21.743h299.824c6.28 0 12.183 2.445 16.623 6.885 4.439 4.441 6.886 10.344 6.886 16.624v216.13c0 12.963-10.546 23.511-23.509 23.511h-299.824c-11.989 0-21.741 9.754-21.741 21.741v88.026c0 14.552-12.277 23.557-23.65 23.557zM397.164 245.74c-5.389 0.002-10.408 1.982-14.512 5.723l-264.58 241.341c-4.507 4.111-7.090 9.966-7.090 16.064s2.585 11.952 7.090 16.060l264.578 241.343c4.105 3.745 9.123 5.723 14.512 5.723 13.698 0 21.882-11.078 21.882-21.787v-88.026c0-12.963 10.546-23.509 23.509-23.509h299.824c11.987 0 21.741-9.754 21.741-21.743v-216.128c0-11.989-9.754-21.741-21.741-21.741h-299.824c-12.965 0-23.511-10.546-23.511-23.511v-88.026c0.004-10.709-8.182-21.785-21.879-21.785v0z"></path>
		</symbol>
		<symbol id="connections" viewBox="0 0 1024 1024">
			<title>connections</title>
			<path class="path1" d="M883.219 119.294c-77.058 0-140.781 63.722-140.781 140.781 0 53.349 31.12 100.77 75.577 124.48l-74.096 211.913c-7.41-1.484-16.301-2.964-25.191-2.964-22.229 0-41.495 4.446-60.758 13.337l-164.492-171.903c7.41-17.783 11.855-37.048 11.855-56.313 0-77.059-63.722-140.781-140.781-140.781s-140.781 63.722-140.781 140.781c0 42.975 19.265 82.987 50.385 108.179l-71.132 151.155c-19.265-8.891-40.012-14.819-62.24-14.819-77.059 0-140.781 63.722-140.781 140.781s63.722 140.781 140.781 140.781c77.059 0 140.781-63.722 140.781-140.781 0-34.084-11.855-63.722-31.12-88.915l75.577-161.528c11.855 2.964 23.711 4.447 37.048 4.447 35.566 0 68.168-13.337 93.36-35.566l155.601 160.046c-20.747 25.192-32.604 56.313-32.604 90.398 0 77.058 63.724 140.781 140.781 140.781 77.061 0 140.781-63.724 140.781-140.781 0-47.421-23.711-90.398-60.758-115.591l75.577-217.841c2.966 0 5.928 0 7.41 0 77.061 0 140.781-63.722 140.781-140.781 0-75.577-63.72-139.3-140.781-139.3zM142.263 845.43c-44.457 0-81.505-37.048-81.505-81.505s37.048-81.505 81.505-81.505 81.505 37.048 81.505 81.505-37.048 81.505-81.505 81.505zM364.55 460.133c-44.457 0-81.505-37.048-81.505-81.505s37.048-81.505 81.505-81.505 81.505 37.048 81.505 81.505-37.048 81.505-81.505 81.505zM720.208 815.792c-44.457 0-81.505-37.048-81.505-81.505s37.048-81.505 81.505-81.505 81.505 37.048 81.505 81.505-37.048 81.505-81.505 81.505zM883.219 341.58c-44.457 0-81.505-37.048-81.505-81.505s37.048-81.505 81.505-81.505 81.505 37.048 81.505 81.505-37.048 81.505-81.505 81.505z"></path>
			<path class="path2" d="M898.038 200.799c-25.191 0-47.419 11.855-60.758 32.602-4.447 7.41-2.962 16.301 4.447 20.747 2.962 1.482 5.924 2.964 8.891 2.964 4.444 0 8.891-2.964 11.854-5.928 7.41-13.337 20.747-20.747 35.566-20.747 8.891 0 14.819-5.928 14.819-14.819 0-7.41-5.929-14.819-14.819-14.819z"></path>
		</symbol>
		<symbol id="search" viewBox="0 0 1024 1024">
			<title>search</title>
			<path class="path1" d="M387.531 780.33c-213.68 0-387.531-173.82-387.531-387.515s173.851-387.531 387.531-387.531c213.696 0 387.531 173.835 387.531 387.531 0.016 213.696-173.804 387.515-387.531 387.515zM387.531 68.553c-178.802 0-324.261 145.459-324.261 324.261 0 178.818 145.459 324.245 324.261 324.245 178.786 0 324.261-145.427 324.261-324.245 0-178.802-145.443-324.261-324.261-324.261z"></path>
			<path class="path2" d="M158.445 272.854c-2.752 0-5.536-0.712-8.067-2.23-7.513-4.445-9.981-14.173-5.52-21.67 50.632-85.257 143.624-138.214 242.674-138.214 8.747 0 15.818 7.070 15.818 15.818s-7.070 15.818-15.818 15.818c-87.946 0-170.498 47.042-215.467 122.745-2.958 4.983-8.209 7.735-13.619 7.735z"></path>
			<path class="path3" d="M121.274 399.363c-8.731 0-15.818-7.070-15.818-15.818 0-22.461 2.673-34.973 7.403-55.156 1.993-8.51 10.503-13.761 18.997-11.8 8.51 1.993 13.793 10.487 11.8 18.997-4.429 18.949-6.564 28.899-6.564 47.959 0 8.747-7.070 15.818-15.818 15.818z"></path>
			<path class="path4" d="M929.11 1018.717c-25.371 0-49.161-9.854-67.13-27.776l-255.312-255.344c-19.804-19.804-26.32-44.273-18.364-68.901 6.469-20.073 21.67-36.982 34.182-49.462 18.554-18.538 41.331-37.504 69.961-37.504 12.195 0 30.528 3.765 48.449 21.686l255.344 255.312c17.921 17.953 27.776 41.774 27.776 67.13 0 25.34-9.854 49.177-27.776 67.098-17.953 17.906-41.774 27.76-67.13 27.76zM648.237 687.196c0.111 0 0.949 1.487 3.148 3.67l255.328 255.344c11.958 11.926 32.79 11.926 44.764 0 5.963-5.995 9.237-13.935 9.237-22.366 0-8.462-3.274-16.403-9.269-22.398l-255.28-255.296c-2.278-2.278-3.733-3.084-4.16-3.211-0.221 0.127-6.738 0.965-24.755 19.029-18.095 18.032-18.965 24.549-19.013 25.229v0z"></path>
		</symbol>
		<symbol id="user2" viewBox="0 0 1024 1024">
			<title>user2</title>
			<path class="path1" d="M513.277 652.005c-145.152 0-251.27-263.552-251.27-400.735-0.015-138.559 112.711-251.27 251.27-251.27s251.27 112.711 251.27 251.27c-0.015 137.168-106.118 400.735-251.27 400.735zM513.277 61.181c-104.818 0-190.089 85.271-190.089 190.089 0 118.752 97.706 339.554 190.089 339.554 92.368 0 190.089-220.817 190.089-339.554-0.015-104.818-85.271-190.089-190.089-190.089z"></path>
			<path class="path2" d="M384.874 273.769c-8.458 0-15.295-6.837-15.295-15.295 0-84.108 68.431-152.539 152.539-152.539 8.443 0 15.295 6.852 15.295 15.295 0 8.458-6.852 15.295-15.295 15.295-67.238 0-121.949 54.711-121.949 121.949 0 8.458-6.852 15.295-15.295 15.295z"></path>
			<path class="path3" d="M390.242 332.488c-4.13 0-7.954-1.53-10.86-4.436-2.891-2.891-4.436-6.883-4.436-10.86s1.545-7.954 4.436-10.86c5.659-5.659 15.907-5.659 21.566 0 2.906 2.906 4.589 6.883 4.589 10.86 0 4.145-1.667 7.969-4.589 10.86-2.738 2.921-6.73 4.436-10.707 4.436z"></path>
			<path class="path4" d="M512.008 1024c-86.403 0-368.355-8.825-368.355-122.362 0-162.665 107.342-309.377 261.028-356.776l18.737-5.782 13.077 14.607c46.834 52.31 102.86 54.772 153.105-0.994l13.169-14.638 18.767 5.919c152.386 48.103 258.826 195.182 258.826 357.694 0 113.506-281.952 122.331-368.355 122.331zM405.354 609.27c-118.951 44.876-200.536 162.512-200.536 292.368 0 16.855 94.448 61.181 307.174 61.181 212.711 0 307.174-44.326 307.174-61.181 0-129.795-80.805-247.767-198.624-293.209-32.747 30.59-69.486 46.635-107.281 46.635-38.651 0-75.604-15.739-107.908-45.794z"></path>
		</symbol>
		<symbol id="company" viewBox="0 0 1024 1024">
			<title>company</title>
			<path class="path1" d="M996.159 162.77l-233.871 0.036v-42.342c0-15.375-12.466-27.841-27.841-27.841h-444.895c-15.375 0-27.841 12.466-27.841 27.841v42.342l-233.871-0.036c-15.377 0-27.841 12.466-27.841 27.841v712.925c0 15.375 12.464 27.841 27.841 27.841h155.723c15.375 0 27.841-12.466 27.841-27.841v-131.39l50.307-0.109v131.5c0 15.375 12.466 27.841 27.841 27.841h171.042c15.375 0 27.841-12.466 27.841-27.841v-147.059h47.129v147.059c0 15.375 12.466 27.841 27.841 27.841h171.042c15.375 0 27.841-12.466 27.841-27.841v-131.5l50.307 0.109v131.39c0 15.375 12.466 27.841 27.841 27.841h155.723c15.377 0 27.841-12.466 27.841-27.841v-712.925c0-15.375-12.464-27.841-27.841-27.841zM261.712 716.465h-78.148c-15.377 0-27.841 12.468-27.841 27.841v131.39h-100.042v-657.244l206.030-0.076v498.089zM706.607 875.696h-115.361v-147.059c0-15.373-12.468-27.841-27.841-27.841h-102.81c-15.375 0-27.841 12.468-27.841 27.841v147.059h-115.361v-727.392h389.213v727.392zM968.319 875.696h-100.042v-131.39c0-15.373-12.464-27.841-27.841-27.841h-78.148v-498.089h10.796c0.434 0.022 0.864 0.076 1.301 0.076h193.932l0.002 657.244z"></path>
			<path class="path2" d="M188.742 286.617h-53.648c-5.515 0-9.987 4.472-9.987 9.987v53.648c0 5.519 4.472 9.987 9.987 9.987h53.648c5.517 0 9.987-4.47 9.987-9.987v-53.648c0.002-5.517-4.47-9.987-9.987-9.987z"></path>
			<path class="path3" d="M188.742 437.048h-53.648c-5.515 0-9.987 4.47-9.987 9.987v53.646c0 5.517 4.472 9.987 9.987 9.987h53.648c5.517 0 9.987-4.472 9.987-9.987v-53.646c0.002-5.519-4.47-9.987-9.987-9.987z"></path>
			<path class="path4" d="M188.742 587.475h-53.648c-5.515 0-9.987 4.472-9.987 9.987v53.65c0 5.517 4.472 9.987 9.987 9.987h53.648c5.517 0 9.987-4.472 9.987-9.987v-53.65c0.002-5.517-4.47-9.987-9.987-9.987z"></path>
			<path class="path5" d="M835.258 360.239h53.648c5.519 0 9.987-4.47 9.987-9.987v-53.648c0-5.517-4.472-9.987-9.987-9.987h-53.648c-5.517 0-9.985 4.472-9.985 9.987v53.648c-0.004 5.517 4.468 9.987 9.985 9.987z"></path>
			<path class="path6" d="M835.258 510.668h53.648c5.519 0 9.987-4.472 9.987-9.987v-53.646c0-5.519-4.472-9.987-9.987-9.987h-53.648c-5.517 0-9.985 4.47-9.985 9.987v53.646c-0.004 5.517 4.468 9.987 9.985 9.987z"></path>
			<path class="path7" d="M835.258 661.099h53.648c5.519 0 9.987-4.472 9.987-9.987v-53.65c0-5.517-4.472-9.987-9.987-9.987h-53.648c-5.517 0-9.985 4.472-9.985 9.987v53.65c-0.004 5.515 4.468 9.987 9.985 9.987z"></path>
			<path class="path8" d="M398.78 305.306h53.648c5.517 0 9.987-4.472 9.987-9.989v-53.646c0-5.517-4.472-9.987-9.987-9.987h-53.648c-5.517 0-9.989 4.472-9.989 9.987v53.646c0 5.517 4.472 9.989 9.989 9.989z"></path>
			<path class="path9" d="M398.78 455.735h53.648c5.517 0 9.987-4.472 9.987-9.987v-53.648c0-5.517-4.472-9.987-9.987-9.987h-53.648c-5.517 0-9.989 4.472-9.989 9.987v53.648c0 5.515 4.472 9.987 9.989 9.987z"></path>
			<path class="path10" d="M398.78 606.162h53.648c5.517 0 9.987-4.472 9.987-9.985v-53.648c0-5.521-4.472-9.987-9.987-9.987h-53.648c-5.517 0-9.989 4.472-9.989 9.987v53.648c0 5.517 4.472 9.985 9.989 9.985z"></path>
			<path class="path11" d="M571.572 305.306h53.648c5.517 0 9.989-4.472 9.989-9.989v-53.646c0-5.517-4.475-9.987-9.989-9.987h-53.648c-5.519 0-9.985 4.472-9.985 9.987v53.646c0 5.517 4.47 9.989 9.985 9.989z"></path>
			<path class="path12" d="M571.572 455.735h53.648c5.517 0 9.989-4.472 9.989-9.987v-53.648c0-5.517-4.475-9.987-9.989-9.987h-53.648c-5.519 0-9.985 4.472-9.985 9.987v53.648c0 5.515 4.47 9.987 9.985 9.987z"></path>
			<path class="path13" d="M571.572 606.162h53.648c5.517 0 9.989-4.472 9.989-9.985v-53.648c0-5.521-4.475-9.987-9.989-9.987h-53.648c-5.519 0-9.985 4.472-9.985 9.987v53.648c0 5.517 4.47 9.985 9.985 9.985z"></path>
		</symbol>
		<symbol id="tick" viewBox="0 0 1024 1024">
			<title>tick</title>
			<path class="path1" d="M893.134 497.781c-17.903 0-32.414 14.514-32.414 32.414v379.753h-795.892v-795.897h639.383c17.903 0 32.414-14.514 32.414-32.414s-14.511-32.414-32.414-32.414h-671.796c-17.9 0-32.414 14.514-32.414 32.414v860.725c0 17.9 14.514 32.414 32.414 32.414h860.72c17.898 0 32.414-14.514 32.414-32.414v-412.167c0-17.9-14.511-32.414-32.414-32.414z"></path>
			<path class="path2" d="M1014.501 70.543c-12.657-12.657-33.179-12.657-45.841 0l-527.944 527.949-131.17-131.17c-12.66-12.657-33.181-12.657-45.841 0-12.657 12.66-12.657 33.181 0 45.841l154.090 154.090c6.33 6.327 14.625 9.493 22.92 9.493s16.591-3.166 22.92-9.493l550.864-550.869c12.662-12.66 12.662-33.181 0-45.841z"></path>
		</symbol>
		<symbol id="disposal" viewBox="0 0 1024 1024">
			<title>disposal</title>
			<path class="path1" d="M956.382 104.295h-243.091v-104.295h-402.591v104.295h-243.081v257.516h96.72v662.192h695.304v-662.212h96.74v-257.496zM348.623 37.924h326.747v60.869h-326.747v-60.869zM821.718 986.060h-619.453v-624.269h619.453v624.269zM918.458 323.864h-812.916v-181.665h812.916v181.665z"></path>
			<path class="path2" d="M310.7 423.493h37.924v477.234h-37.924v-477.234z"></path>
			<path class="path3" d="M675.37 423.493h37.924v477.234h-37.924v-477.234z"></path>
			<path class="path4" d="M493.038 423.493h37.927v477.234h-37.927v-477.234z"></path>
		</symbol>
		<symbol id="admin" viewBox="0 0 1024 1024">
			<title>admin</title>
			<path class="path1" d="M313.648 321.235c3.556 16.358 9.009 26.947 15.37 33.546 15.133 105.34 109.686 195.112 185.629 191.358 96.608-4.741 165.082-108.856 180.453-191.358 6.361-6.559 12.486-20.586 16.161-37.063 4.109-18.926 8.535-47.454-2.845-62.548-0.672-0.79-5.018-4.781-5.769-5.453 10.866-39.196 34.731-109.133-24.695-171.997-32.203-34.060-76.93-51.168-117.351-64.682-119.327-39.868-203.567 16.042-242.447 109.014-2.805 6.599-20.942 48.363 1.027 127.664-2.134 1.422-4.070 3.24-5.69 5.453-11.419 15.054-3.991 47.138 0.158 66.065z"></path>
			<path class="path2" d="M930.791 900.564c-3.319-72.505-7.428-187.407-70.766-281.406 0 0-18.057-24.616-60.888-40.974 0 0-93.012-28.33-135.843-58.952l-19.559 13.395 2.173 127.15-117.43 313.49c-2.568 6.875-9.127 11.419-16.437 11.419s-13.869-4.544-16.437-11.419l-117.391-313.49c0 0 2.173-126.755 2.134-127.15 0.277 1.067-19.598-13.395-19.598-13.395-42.752 30.622-135.804 58.952-135.804 58.952-42.831 16.358-60.888 40.974-60.888 40.974-63.299 94-67.487 208.901-70.806 281.406-2.292 50.102 8.219 68.791 21.416 74.125 163.818 65.748 630.813 65.748 794.671 0 13.276-5.295 23.707-24.023 21.455-74.125z"></path>
			<path class="path3" d="M516.228 586.639l-5.295 0.119c-17.069 0-34.297-3.319-51.208-9.167l46.545 71.241-41.764 40.303 42.989 261.058c0.356 2.252 2.292 3.872 4.583 3.872 2.252 0 4.188-1.62 4.583-3.872l42.989-261.058-41.804-40.303 45.874-70.174c-14.975 4.386-30.82 7.31-47.494 7.981z"></path>
		</symbol>
		<symbol id="categories" viewBox="0 0 1024 1024">
			<title>categories</title>
			<path class="path1" d="M998.015 273.176l-468.163-208.769c-11.348-5.082-24.323-5.082-35.708 0l-468.16 208.769c-15.265 6.806-25.357 21.774-25.936 38.484s8.382 32.332 23.143 40.208l468.16 249.656c6.451 3.469 13.558 5.158 20.63 5.158 7.106 0 14.178-1.707 20.668-5.158l468.16-249.656c14.761-7.875 23.743-23.481 23.143-40.208s-10.672-31.674-25.936-38.484zM511.981 513.195l-368.425-196.47 368.425-164.286 368.445 164.286-368.445 196.47z"></path>
			<path class="path2" d="M959.511 459.988l-447.53 238.702-447.513-238.702c-21.437-11.441-47.956-3.338-59.3 18.040-11.385 21.381-3.338 47.918 18.023 59.3l468.16 249.712c6.451 3.452 13.558 5.158 20.63 5.158 7.106 0 14.178-1.707 20.668-5.158l468.16-249.712c21.361-11.382 29.405-37.922 18.023-59.3s-37.922-29.46-59.32-18.040z"></path>
			<path class="path3" d="M959.511 631.215l-447.53 238.667-447.513-238.667c-21.437-11.441-47.956-3.3-59.3 18.040-11.385 21.381-3.338 47.918 18.023 59.3l468.16 249.694c6.451 3.452 13.558 5.158 20.63 5.158 7.106 0 14.178-1.707 20.668-5.158l468.16-249.694c21.361-11.382 29.405-37.922 18.023-59.3-11.403-21.343-37.884-29.481-59.32-18.040z"></path>
		</symbol>
		<symbol id="barcode" viewBox="0 0 1024 1024">
			<title>barcode</title>
			<path class="path1" d="M92.303 21.731h-82.264c-5.545 0-10.039 4.495-10.039 10.039v959.74c0 5.545 4.495 10.039 10.039 10.039h82.264c5.545 0 10.039-4.495 10.039-10.039v-959.74c0-5.545-4.498-10.039-10.039-10.039z"></path>
			<path class="path2" d="M192.848 833.47h41.129c5.545 0 10.039-4.495 10.039-10.039v-791.661c0-5.545-4.495-10.039-10.039-10.039h-41.129c-5.545 0-10.039 4.495-10.039 10.039v791.661c0 5.545 4.498 10.039 10.039 10.039z"></path>
			<path class="path3" d="M348.235 833.47h53.317c5.545 0 10.039-4.495 10.039-10.039v-791.661c0-5.545-4.495-10.039-10.039-10.039h-53.317c-5.545 0-10.039 4.495-10.039 10.039v791.661c0 5.545 4.498 10.039 10.039 10.039z"></path>
			<path class="path4" d="M489.914 833.47h51.794c5.545 0 10.039-4.495 10.039-10.039v-791.661c0-5.545-4.495-10.039-10.039-10.039h-51.794c-5.545 0-10.039 4.495-10.039 10.039v791.661c0 5.545 4.495 10.039 10.039 10.039z"></path>
			<path class="path5" d="M631.587 833.47h82.264c5.545 0 10.039-4.495 10.039-10.039v-791.661c0-5.545-4.495-10.039-10.039-10.039h-82.264c-5.545 0-10.039 4.495-10.039 10.039v791.661c0 5.545 4.498 10.039 10.039 10.039z"></path>
			<path class="path6" d="M800.688 833.47h54.84c5.545 0 10.039-4.495 10.039-10.039v-791.661c0-5.545-4.495-10.039-10.039-10.039h-54.84c-5.545 0-10.039 4.495-10.039 10.039v791.661c0 5.545 4.495 10.039 10.039 10.039z"></path>
			<path class="path7" d="M1013.961 21.731h-82.264c-5.545 0-10.039 4.495-10.039 10.039v959.74c0 5.545 4.495 10.039 10.039 10.039h82.264c5.545 0 10.039-4.495 10.039-10.039v-959.74c0-5.545-4.495-10.039-10.039-10.039z"></path>
			<path class="path8" d="M200.082 877.184c-32.255 0-50.744 22.766-50.744 62.461 0 39.798 18.489 62.625 50.744 62.625 32.352 0 50.913-22.823 50.913-62.625 0-39.695-18.561-62.461-50.913-62.461zM200.082 986.123c-22.964 0-34.604-15.638-34.604-46.479 0-30.734 11.643-46.318 34.604-46.318 23.076 0 34.773 15.584 34.773 46.318 0 17.359-4.523 46.479-34.773 46.479z"></path>
			<path class="path9" d="M283.648 877.184h-24.694c-4.285 0-7.759 3.476-7.759 7.762v0.62c0 4.285 3.474 7.762 7.759 7.762h16.304v101.178c0 4.291 3.479 7.765 7.759 7.765h0.631c4.28 0 7.759-3.474 7.759-7.765v-109.559c0-4.285-3.479-7.762-7.759-7.762z"></path>
			<path class="path10" d="M354.229 939.596h-32.232c-4.291 0-7.759 3.476-7.759 7.765v0.622c0 4.288 3.468 7.765 7.759 7.765h32.232c4.285 0 7.759-3.476 7.759-7.765v-0.622c0-4.288-3.474-7.765-7.759-7.765z"></path>
			<path class="path11" d="M417.778 877.184c-32.252 0-50.747 22.766-50.747 62.461 0 39.798 18.495 62.625 50.747 62.625 32.355 0 50.907-22.823 50.907-62.625 0-39.695-18.55-62.461-50.907-62.461zM417.778 986.123c-22.961 0-34.601-15.638-34.601-46.479 0-30.734 11.643-46.318 34.601-46.318 23.076 0 34.773 15.584 34.773 46.318 0 17.359-4.521 46.479-34.773 46.479z"></path>
			<path class="path12" d="M501.333 877.184h-24.682c-4.285 0-7.759 3.476-7.759 7.762v0.62c0 4.285 3.474 7.762 7.759 7.762h16.307v101.178c0 4.291 3.474 7.765 7.759 7.765h0.617c4.291 0 7.77-3.474 7.77-7.765v-109.559c0-4.285-3.479-7.762-7.77-7.762z"></path>
			<path class="path13" d="M607.215 986.123h-54.157l32.579-36.282c13.146-13.705 20.999-28.669 20.999-40.036 0-19.817-14.947-32.622-38.072-32.622-13.025 0-26.724 5.8-36.655 15.518-1.483 1.449-2.326 3.425-2.332 5.501-0.023 2.068 0.797 4.062 2.263 5.53l0.416 0.416c3.006 3.018 7.882 3.046 10.923 0.069 6.87-6.718 16.596-10.888 25.388-10.888 6.589 0 21.929 1.609 21.929 16.476 0 5.404-4.323 16.209-16.659 29.076l-42.959 47.732c-1.285 1.426-2.002 3.276-2.002 5.195v2.702c0 4.291 3.485 7.765 7.77 7.765h70.573c4.291 0 7.765-3.474 7.765-7.765v-0.617c-0.003-4.294-3.476-7.77-7.767-7.77z"></path>
			<path class="path14" d="M664.645 926.45l29.943-35.37c1.182-1.403 1.841-3.178 1.841-5.020v-1.119c0-4.285-3.479-7.762-7.759-7.762h-56.458c-4.291 0-7.765 3.476-7.765 7.762v0.62c0 4.285 3.474 7.762 7.765 7.762h39.423l-29.773 35.025c-1.196 1.405-1.856 3.187-1.856 5.025v1.122c0 4.288 3.479 7.765 7.77 7.765h9.936c12.713 0 27.86 3.525 27.86 20.322 0 14.738-10.3 23.535-27.542 23.535-8.717 0-18.137-2.679-25.219-7.168-3.422-2.168-7.934-1.342-10.366 1.899l-0.359 0.485c-1.308 1.741-1.824 3.953-1.42 6.092 0.399 2.14 1.684 4.013 3.534 5.16 9.913 6.15 22.244 9.675 33.829 9.675 26.131 0 43.691-16.206 43.691-40.323 0-19.812-14.322-33.247-37.076-35.487z"></path>
			<path class="path15" d="M791.13 952.753h-10.206v-28.018c0-4.285-3.474-7.762-7.765-7.762h-0.62c-4.291 0-7.762 3.476-7.762 7.762v28.018h-33.365l36.778-63.938c1.385-2.401 1.374-5.355-0.006-7.756-1.388-2.398-3.95-3.875-6.715-3.875h-0.714c-2.777 0-5.344 1.486-6.732 3.889l-42.454 73.817c-0.671 1.179-1.030 2.51-1.030 3.869v2.375c0 4.285 3.479 7.762 7.765 7.762h46.47v25.609c0 4.291 3.471 7.765 7.762 7.765h0.62c4.291 0 7.765-3.474 7.765-7.765v-25.609h10.206c4.285 0 7.765-3.479 7.765-7.762v-0.622c0.006-4.288-3.474-7.759-7.762-7.759z"></path>
			<path class="path16" d="M837.836 922.429c-5.329 0-11.783 0.866-18.082 2.364v-31.463h48.877c4.285 0 7.759-3.476 7.759-7.762v-0.62c0-4.285-3.474-7.762-7.759-7.762h-57.258c-4.285 0-7.759 3.476-7.759 7.762v51.039c0 2.544 1.251 4.928 3.344 6.379 2.088 1.446 4.761 1.781 7.139 0.886 7.581-2.843 16.895-4.681 23.736-4.681 16.545 0 26.426 7.957 26.426 21.289 0 16.243-9.996 25.941-26.744 25.941-8.774 0-19.921-3.382-28.408-8.617-3.631-2.24-8.384-1.133-10.65 2.475l-0.235 0.379c-1.101 1.744-1.46 3.849-0.998 5.857 0.453 2.008 1.692 3.752 3.431 4.848 10.986 6.913 25.112 11.204 36.861 11.204 25.649 0 42.885-16.915 42.885-42.084 0-22.393-17.098-37.435-42.563-37.435z"></path>
		</symbol>
		<symbol id="settings" viewBox="0 0 1024 1024">
			<title>settings</title>
			<path class="path1" d="M218.824 178.181h-188.707c-16.635 0-30.117-13.491-30.117-30.117s13.482-30.117 30.117-30.117h188.707c16.635 0 30.117 13.491 30.117 30.117s-13.482 30.117-30.117 30.117z"></path>
			<path class="path2" d="M326.66 286.007c-76.069 0-137.953-61.883-137.953-137.946 0-76.078 61.883-137.962 137.953-137.962s137.953 61.883 137.953 137.962c0 76.065-61.883 137.946-137.953 137.946zM326.66 70.337c-42.855 0-77.718 34.87-77.718 77.725s34.863 77.709 77.718 77.709 77.718-34.854 77.718-77.709-34.863-77.725-77.718-77.725z"></path>
			<path class="path3" d="M993.883 178.181h-450.135c-16.635 0-30.117-13.491-30.117-30.117s13.482-30.117 30.117-30.117h450.132c16.635 0 30.117 13.491 30.117 30.117s-13.48 30.117-30.115 30.117z"></path>
			<path class="path4" d="M731.035 649.946c-76.072 0-137.953-61.883-137.953-137.946s61.883-137.946 137.953-137.946 137.953 61.883 137.953 137.946-61.881 137.946-137.953 137.946zM731.035 434.291c-42.855 0-77.718 34.854-77.718 77.709s34.863 77.709 77.718 77.709 77.718-34.854 77.718-77.709-34.863-77.709-77.718-77.709z"></path>
			<path class="path5" d="M513.954 542.117h-483.836c-16.635 0-30.117-13.491-30.117-30.117s13.482-30.117 30.117-30.117h483.836c16.635 0 30.117 13.491 30.117 30.117s-13.482 30.117-30.117 30.117z"></path>
			<path class="path6" d="M993.883 542.117h-155.012c-16.635 0-30.117-13.491-30.117-30.117s13.482-30.117 30.117-30.117h155.012c16.635 0 30.117 13.491 30.117 30.117s-13.482 30.117-30.117 30.117z"></path>
			<path class="path7" d="M292.965 1013.898c-76.069 0-137.953-61.883-137.953-137.962 0-76.063 61.883-137.946 137.953-137.946s137.953 61.883 137.953 137.946c0 76.078-61.883 137.962-137.953 137.962zM292.965 798.227c-42.855 0-77.718 34.854-77.718 77.709s34.863 77.725 77.718 77.725 77.718-34.87 77.718-77.725-34.863-77.709-77.718-77.709z"></path>
			<path class="path8" d="M993.883 906.056h-483.836c-16.635 0-30.117-13.491-30.117-30.117s13.482-30.117 30.117-30.117h483.836c16.635 0 30.117 13.491 30.117 30.117s-13.482 30.117-30.117 30.117z"></path>
			<path class="path9" d="M185.129 906.056h-155.012c-16.635 0-30.117-13.491-30.117-30.12 0-16.626 13.482-30.117 30.117-30.117h155.012c16.635 0 30.117 13.491 30.117 30.117 0 16.629-13.482 30.12-30.117 30.12z"></path>
		</symbol>
		<symbol id="info" viewBox="0 0 1024 1024">
			<title>info</title>
			<path class="path1" d="M512 256c-35.328 0-64 28.672-64 64s28.672 64 64 64 64-28.64 64-64-28.64-64-64-64zM512 448c-35.328 0-64 28.64-64 64v192c0 35.328 28.672 64 64 64s64-28.672 64-64v-192c0-35.328-28.64-64-64-64zM512 0c-282.304 0-512 229.696-512 512s229.696 512 512 512 512-229.696 512-512-229.696-512-512-512zM512 928c-229.408 0-416-186.624-416-416s186.592-416 416-416c229.376 0 416 186.624 416 416s-186.624 416-416 416z"></path>
		</symbol>
		<symbol id="email" viewBox="0 0 1024 1024">
			<title>email</title>
			<path class="path1" d="M33.792 243.803c27.773 14.928 412.342 221.503 426.655 229.194 14.325 7.691 32.87 11.401 51.553 11.401 18.694 0 37.217-3.709 51.553-11.401 14.313-7.691 398.882-214.255 426.644-229.194 27.796-14.916 54.101-61.759 3.049-61.759h-962.492c-51.018 0-24.758 46.842 3.038 61.759zM1001.973 357.581c-31.551 16.464-419.1 219.136-438.42 229.194-19.331 10.092-32.87 11.401-51.553 11.401s-32.222-1.308-51.553-11.401c-19.319-10.058-406.847-212.73-438.42-229.194-22.221-11.571-22.027 2.002-22.027 12.493s0 417.326 0 417.326c0 23.848 31.767 54.556 56.422 54.556h911.155c24.656 0 56.422-30.709 56.422-54.556 0 0 0-406.835 0-417.326s0.228-24.064-22.027-12.493z"></path>
		</symbol>
		<symbol id="phone" viewBox="0 0 1024 1024">
			<title>phone</title>
			<path class="path1" d="M1001.042 809.261l-158.141-158.158c-31.499-31.372-83.661-30.419-116.257 2.189l-79.672 79.654c-5.034-2.774-10.244-5.672-15.721-8.746-50.312-27.877-119.173-66.086-191.634-138.601-72.676-72.667-110.921-141.634-138.883-191.978-2.951-5.334-5.778-10.476-8.57-15.36l79.76-79.713c32.646-32.655 33.546-84.803 2.121-116.266l-158.141-158.176c-31.425-31.419-83.611-30.466-116.257 2.189l-44.569 44.825 1.218 1.209c-14.945 19.069-27.433 41.063-36.726 64.78-8.567 22.576-13.9 44.119-16.339 65.707-20.881 173.112 58.226 331.323 272.912 546.013 296.762 296.741 535.913 274.324 546.23 273.23 22.47-2.686 44.005-8.055 65.889-16.554 23.511-9.185 45.49-21.655 64.548-36.568l0.974 0.865 45.152-44.213c32.578-32.649 33.517-84.814 2.106-116.328z"></path>
		</symbol>
		<symbol id="upload" viewBox="0 0 1024 1024">
			<title>upload</title>
			<path class="path1" d="M874.402 399.167h-167.061c-21.705 0-39.463 17.758-39.463 39.463s17.758 39.463 39.463 39.463h126.939v466.981h-644.562v-466.981h140.094c21.705 0 39.463-17.758 39.463-39.463s-17.758-39.463-39.463-39.463h-180.214c-21.705 0-38.806 19.732-38.806 41.436v547.221c0 21.705 17.101 36.174 38.806 36.174h724.805c21.705 0 38.806-14.469 38.806-36.174v-547.221c0-21.705-17.101-41.436-38.806-41.436z"></path>
			<path class="path2" d="M505.422 695.14c21.705 0 39.463-17.758 39.463-39.463v-534.725l168.375 149.96c7.236 6.576 17.101 9.866 26.308 9.866 11.182 0 21.705-4.603 29.597-13.155 14.469-16.442 13.155-41.436-3.289-55.905l-226.913-201.919c-14.469-12.496-35.517-13.155-50.645-1.316-7.236 3.289-13.155 9.209-17.101 15.785l-196.659 188.766c-15.785 15.128-16.442 40.12-1.316 55.905 15.128 15.785 40.12 16.442 55.905 1.316l136.805-131.544v516.967c0.007 21.705 17.765 39.463 39.47 39.463z"></path>
		</symbol>
	</defs>
</svg>
